<svg width="192" height="192" viewBox="0 0 192 192" fill="none" xmlns="http://www.w3.org/2000/svg">
<rect width="192" height="192" rx="35" fill="#F5F5F7"/>
<path d="M75.048 143.28C68.4773 143.28 62.4187 142.128 56.872 139.824C51.4107 137.435 46.632 134.107 42.536 129.84C38.44 125.573 35.2827 120.539 33.064 114.736C30.8453 108.933 29.736 102.576 29.736 95.664C29.736 88.752 30.8453 82.4373 33.064 76.72C35.2827 71.0027 38.3973 66.0533 42.408 61.872C46.504 57.6053 51.2827 54.32 56.744 52.016C62.2907 49.712 68.392 48.56 75.048 48.56C82.3867 48.56 89 50.0107 94.888 52.912C100.776 55.8133 105.597 59.9093 109.352 65.2C113.192 70.4053 115.539 76.5493 116.392 83.632H100.008C98.984 76.72 96.2107 71.4293 91.688 67.76C87.1653 64.0053 81.6613 62.128 75.176 62.128C69.4587 62.128 64.4667 63.4933 60.2 66.224C55.9333 68.9547 52.6053 72.8373 50.216 77.872C47.8267 82.8213 46.632 88.7093 46.632 95.536C46.632 102.533 47.8267 108.592 50.216 113.712C52.6053 118.747 55.976 122.672 60.328 125.488C64.68 128.304 69.672 129.712 75.304 129.712C81.6187 129.712 87.0373 127.877 91.56 124.208C96.0827 120.453 98.9413 115.163 100.136 108.336H116.648C115.624 115.333 113.192 121.477 109.352 126.768C105.597 132.059 100.776 136.155 94.888 139.056C89 141.872 82.3867 143.28 75.048 143.28ZM106.625 161.584V149.296H166.273V161.584H106.625Z" fill="#1D1D1F"/>
<path d="M109 159.584V147.296H168.648V159.584H109Z" fill="url(#paint0_linear_2_15)"/>
<defs>
<linearGradient id="paint0_linear_2_15" x1="109.35" y1="146" x2="169.35" y2="161" gradientUnits="userSpaceOnUse">
<stop stop-color="#FF0F7B"/>
<stop offset="1" stop-color="#F89B29"/>
</linearGradient>
</defs>
</svg>
