<?xml version="1.0" encoding="UTF-8" standalone="no"?>
<svg
   width="133"
   height="35"
   viewBox="0 0 133 35"
   fill="none"
   version="1.1"
   id="svg3"
   sodipodi:docname="cascade_-133x35px-in-text-logo.svg"
   inkscape:export-filename="cascade_-logo-text.svg"
   inkscape:export-xdpi="96"
   inkscape:export-ydpi="96"
   inkscape:version="1.4.2 (f4327f4, 2025-05-13)"
   xmlns:inkscape="http://www.inkscape.org/namespaces/inkscape"
   xmlns:sodipodi="http://sodipodi.sourceforge.net/DTD/sodipodi-0.dtd"
   xmlns="http://www.w3.org/2000/svg"
   xmlns:svg="http://www.w3.org/2000/svg">
  <sodipodi:namedview
     id="namedview3"
     pagecolor="#ffffff"
     bordercolor="#000000"
     borderopacity="0.25"
     inkscape:showpageshadow="2"
     inkscape:pageopacity="0.0"
     inkscape:pagecheckerboard="0"
     inkscape:deskcolor="#d1d1d1"
     inkscape:zoom="11.313709"
     inkscape:cx="98.553007"
     inkscape:cy="41.586717"
     inkscape:window-width="1920"
     inkscape:window-height="974"
     inkscape:window-x="-11"
     inkscape:window-y="-11"
     inkscape:window-maximized="1"
     inkscape:current-layer="g3" />
  <g
     id="g3"
     transform="translate(0,-2)">
    <path
       d="M 11.73,27.3 C 10.19,27.3 8.77,27.03 7.47,26.49 6.19,25.93 5.07,25.15 4.11,24.15 3.15,23.15 2.41,21.97 1.89,20.61 1.37,19.25 1.11,17.76 1.11,16.14 1.11,14.52 1.37,13.04 1.89,11.7 2.41,10.36 3.14,9.2 4.08,8.22 5.04,7.22 6.16,6.45 7.44,5.91 8.74,5.37 10.17,5.1 11.73,5.1 c 1.72,0 3.27,0.34 4.65,1.02 1.38,0.68 2.51,1.64 3.39,2.88 0.9,1.22 1.45,2.66 1.65,4.32 H 17.58 C 17.34,11.7 16.69,10.46 15.63,9.6 14.57,8.72 13.28,8.28 11.76,8.28 c -1.34,0 -2.51,0.32 -3.51,0.96 -1,0.64 -1.78,1.55 -2.34,2.73 -0.56,1.16 -0.84,2.54 -0.84,4.14 0,1.64 0.28,3.06 0.84,4.26 0.56,1.18 1.35,2.1 2.37,2.76 1.02,0.66 2.19,0.99 3.51,0.99 1.48,0 2.75,-0.43 3.81,-1.29 1.06,-0.88 1.73,-2.12 2.01,-3.72 h 3.87 c -0.24,1.64 -0.81,3.08 -1.71,4.32 -0.88,1.24 -2.01,2.2 -3.39,2.88 C 15,26.97 13.45,27.3 11.73,27.3 Z M 33.1055,27 c -0.1,-0.4 -0.18,-0.84 -0.24,-1.32 -0.04,-0.48 -0.06,-1.06 -0.06,-1.74 h -0.12 v -7.26 c 0,-0.8 -0.23,-1.4 -0.69,-1.8 -0.44,-0.42 -1.12,-0.63 -2.04,-0.63 -0.9,0 -1.62,0.17 -2.16,0.51 -0.52,0.32 -0.84,0.79 -0.96,1.41 h -3.63 c 0.16,-1.42 0.84,-2.57 2.04,-3.45 1.2,-0.88 2.81,-1.32 4.83,-1.32 2.1,0 3.69,0.48 4.77,1.44 1.08,0.94 1.62,2.33 1.62,4.17 v 6.93 c 0,0.48 0.03,0.97 0.09,1.47 0.08,0.5 0.19,1.03 0.33,1.59 z m -5.31,0.3 c -1.54,0 -2.77,-0.38 -3.69,-1.14 -0.9,-0.78 -1.35,-1.82 -1.35,-3.12 0,-1.4 0.51,-2.51 1.53,-3.33 1.02,-0.82 2.46,-1.37 4.32,-1.65 l 4.77,-0.72 v 2.4 l -4.14,0.63 c -0.9,0.14 -1.58,0.39 -2.04,0.75 -0.44,0.36 -0.66,0.86 -0.66,1.5 0,0.58 0.21,1.03 0.63,1.35 0.42,0.3 1,0.45 1.74,0.45 1.08,0 1.98,-0.27 2.7,-0.81 0.72,-0.54 1.08,-1.2 1.08,-1.98 l 0.42,2.31 c -0.4,1.1 -1.06,1.94 -1.98,2.52 -0.9,0.56 -2.01,0.84 -3.33,0.84 z m 17.7555,0 c -2.12,0 -3.81,-0.44 -5.07,-1.32 -1.26,-0.9 -1.95,-2.14 -2.07,-3.72 h 3.45 c 0.1,0.78 0.47,1.37 1.11,1.77 0.64,0.4 1.5,0.6 2.58,0.6 0.98,0 1.71,-0.15 2.19,-0.45 0.5,-0.32 0.75,-0.77 0.75,-1.35 0,-0.42 -0.14,-0.76 -0.42,-1.02 -0.28,-0.28 -0.81,-0.51 -1.59,-0.69 l -2.46,-0.57 c -1.68,-0.36 -2.93,-0.92 -3.75,-1.68 -0.8,-0.78 -1.2,-1.75 -1.2,-2.91 0,-1.42 0.54,-2.53 1.62,-3.33 1.1,-0.82 2.61,-1.23 4.53,-1.23 1.9,0 3.42,0.41 4.56,1.23 1.16,0.8 1.8,1.91 1.92,3.33 h -3.45 c -0.1,-0.62 -0.42,-1.09 -0.96,-1.41 -0.52,-0.32 -1.24,-0.48 -2.16,-0.48 -0.86,0 -1.51,0.14 -1.95,0.42 -0.44,0.26 -0.66,0.65 -0.66,1.17 0,0.4 0.17,0.74 0.51,1.02 0.34,0.26 0.91,0.49 1.71,0.69 l 2.64,0.6 c 1.5,0.34 2.63,0.93 3.39,1.77 0.78,0.84 1.17,1.83 1.17,2.97 0,1.46 -0.56,2.59 -1.68,3.39 -1.12,0.8 -2.69,1.2 -4.71,1.2 z m 15.8023,0 c -1.54,0 -2.9,-0.34 -4.08,-1.02 -1.16,-0.68 -2.08,-1.62 -2.76,-2.82 -0.66,-1.22 -0.99,-2.6 -0.99,-4.14 0,-1.54 0.33,-2.9 0.99,-4.08 0.68,-1.2 1.6,-2.14 2.76,-2.82 1.18,-0.68 2.54,-1.02 4.08,-1.02 1.26,0 2.4,0.24 3.42,0.72 1.02,0.46 1.86,1.12 2.52,1.98 0.66,0.84 1.08,1.82 1.26,2.94 h -3.63 c -0.22,-0.82 -0.64,-1.46 -1.26,-1.92 -0.62,-0.46 -1.37,-0.69 -2.25,-0.69 -0.82,0 -1.53,0.2 -2.13,0.6 -0.58,0.4 -1.03,0.97 -1.35,1.71 -0.32,0.74 -0.48,1.6 -0.48,2.58 0,1 0.16,1.87 0.48,2.61 0.32,0.74 0.78,1.32 1.38,1.74 0.6,0.4 1.3,0.6 2.1,0.6 0.88,0 1.63,-0.23 2.25,-0.69 0.62,-0.46 1.04,-1.1 1.26,-1.92 h 3.63 c -0.18,1.12 -0.61,2.11 -1.29,2.97 -0.66,0.84 -1.5,1.5 -2.52,1.98 -1,0.46 -2.13,0.69 -3.39,0.69 z M 80.3109,27 c -0.1,-0.4 -0.18,-0.84 -0.24,-1.32 -0.04,-0.48 -0.06,-1.06 -0.06,-1.74 h -0.12 v -7.26 c 0,-0.8 -0.23,-1.4 -0.69,-1.8 -0.44,-0.42 -1.12,-0.63 -2.04,-0.63 -0.9,0 -1.62,0.17 -2.16,0.51 -0.52,0.32 -0.84,0.79 -0.96,1.41 h -3.63 c 0.16,-1.42 0.84,-2.57 2.04,-3.45 1.2,-0.88 2.81,-1.32 4.83,-1.32 2.1,0 3.69,0.48 4.77,1.44 1.08,0.94 1.62,2.33 1.62,4.17 v 6.93 c 0,0.48 0.03,0.97 0.09,1.47 0.08,0.5 0.19,1.03 0.33,1.59 z m -5.31,0.3 c -1.54,0 -2.77,-0.38 -3.69,-1.14 -0.9,-0.78 -1.35,-1.82 -1.35,-3.12 0,-1.4 0.51,-2.51 1.53,-3.33 1.02,-0.82 2.46,-1.37 4.32,-1.65 l 4.77,-0.72 v 2.4 l -4.14,0.63 c -0.9,0.14 -1.58,0.39 -2.04,0.75 -0.44,0.36 -0.66,0.86 -0.66,1.5 0,0.58 0.21,1.03 0.63,1.35 0.42,0.3 1,0.45 1.74,0.45 1.08,0 1.98,-0.27 2.7,-0.81 0.72,-0.54 1.08,-1.2 1.08,-1.98 l 0.42,2.31 c -0.4,1.1 -1.06,1.94 -1.98,2.52 -0.9,0.56 -2.01,0.84 -3.33,0.84 z M 97.8851,27 v -3.45 l 0.3,0.06 c -0.26,1.12 -0.89,2.02 -1.89,2.7 -1,0.66 -2.19,0.99 -3.57,0.99 -1.4,0 -2.62,-0.32 -3.66,-0.96 -1.02,-0.66 -1.81,-1.58 -2.37,-2.76 -0.56,-1.18 -0.84,-2.57 -0.84,-4.17 0,-1.62 0.29,-3.03 0.87,-4.23 0.58,-1.2 1.39,-2.13 2.43,-2.79 1.06,-0.66 2.29,-0.99 3.69,-0.99 1.44,0 2.63,0.35 3.57,1.05 0.94,0.68 1.52,1.63 1.74,2.85 l -0.39,0.03 V 5.4 h 3.8099 V 27 Z m -4.05,-2.79 c 1.22,0 2.19,-0.42 2.91,-1.26 0.74,-0.86 1.11,-2.06 1.11,-3.6 0,-1.54 -0.37,-2.73 -1.11,-3.57 -0.74,-0.84 -1.72,-1.26 -2.94,-1.26 -1.2,0 -2.17,0.43 -2.91,1.29 -0.74,0.84 -1.11,2.03 -1.11,3.57 0,1.54 0.37,2.73 1.11,3.57 0.74,0.84 1.72,1.26 2.94,1.26 z m 18.3329,3.09 c -1.62,0 -3.04,-0.34 -4.26,-1.02 -1.2,-0.68 -2.14,-1.62 -2.82,-2.82 -0.66,-1.2 -0.99,-2.58 -0.99,-4.14 0,-1.56 0.33,-2.93 0.99,-4.11 0.68,-1.2 1.62,-2.13 2.82,-2.79 1.2,-0.68 2.6,-1.02 4.2,-1.02 1.52,0 2.84,0.32 3.96,0.96 1.12,0.62 1.99,1.5 2.61,2.64 0.62,1.14 0.93,2.47 0.93,3.99 0,0.28 -0.01,0.54 -0.03,0.78 -0.02,0.24 -0.05,0.48 -0.09,0.72 h -13.05 v -2.64 h 10.14 l -0.78,0.72 c 0,-1.44 -0.33,-2.52 -0.99,-3.24 -0.66,-0.72 -1.58,-1.08 -2.76,-1.08 -1.28,0 -2.3,0.44 -3.06,1.32 -0.74,0.88 -1.11,2.15 -1.11,3.81 0,1.64 0.37,2.9 1.11,3.78 0.76,0.86 1.83,1.29 3.21,1.29 0.8,0 1.5,-0.15 2.1,-0.45 0.6,-0.3 1.04,-0.76 1.32,-1.38 h 3.57 c -0.5,1.44 -1.35,2.58 -2.55,3.42 -1.18,0.84 -2.67,1.26 -4.47,1.26 z m 5.263,4.29 v -2.88 h 13.98 v 2.88 z"
       fill="white"
       id="path1"
       style="fill:#1d1d1f;fill-opacity:1" />
    <path
       d="m 119.00211,30.599438 v -2.88 h 13.97999 v 2.88 z"
       fill="url(#paint0_linear_160_33)"
       id="path2"
       style="fill:url(#paint0_linear_160_33)" />
  </g>
  <defs
     id="defs3">
    <linearGradient
       id="paint0_linear_160_33"
       x1="118"
       y1="25.6395"
       x2="127.692"
       y2="26.2747"
       gradientUnits="userSpaceOnUse"
       gradientTransform="translate(1.0021033,-1.9905613)">
      <stop
         stop-color="#FF0F7B"
         id="stop2" />
      <stop
         offset="1"
         stop-color="#F89B29"
         id="stop3" />
    </linearGradient>
  </defs>
</svg>
