<svg width="254" height="261" viewBox="0 0 254 261" fill="none" xmlns="http://www.w3.org/2000/svg">
<rect width="254" height="261" rx="35" fill="#63C564"/>
<circle cx="35" cy="35" r="20" fill="#F4FFF5"/>
<path d="M62.9918 42V27.4545H64.7532V34.6705H64.9237L71.4577 27.4545H73.7589L67.6509 34.017L73.7589 42H71.6282L66.5714 35.2386L64.7532 37.2841V42H62.9918ZM79.0217 42.2557C78.3304 42.2557 77.703 42.1255 77.1396 41.8651C76.5761 41.5999 76.1287 41.2188 75.7972 40.7216C75.4658 40.2197 75.3001 39.6136 75.3001 38.9034C75.3001 38.2784 75.4232 37.7718 75.6694 37.3835C75.9156 36.9905 76.2447 36.6828 76.6566 36.4602C77.0685 36.2377 77.5231 36.072 78.0202 35.9631C78.5221 35.8494 79.0264 35.7595 79.533 35.6932C80.1959 35.608 80.7333 35.544 81.1452 35.5014C81.5619 35.4541 81.8649 35.3759 82.0543 35.267C82.2485 35.1581 82.3455 34.9687 82.3455 34.6989V34.642C82.3455 33.9413 82.1538 33.3968 81.7702 33.0085C81.3915 32.6203 80.8162 32.4261 80.0444 32.4261C79.2442 32.4261 78.6168 32.6013 78.1623 32.9517C77.7077 33.3021 77.3881 33.6761 77.2035 34.0739L75.6126 33.5057C75.8967 32.8428 76.2754 32.3267 76.7489 31.9574C77.2272 31.5833 77.748 31.3229 78.3114 31.1761C78.8796 31.0246 79.4383 30.9489 79.9876 30.9489C80.3379 30.9489 80.7404 30.9915 81.195 31.0767C81.6542 31.1572 82.0969 31.3253 82.5231 31.581C82.954 31.8366 83.3114 32.2225 83.5955 32.7386C83.8796 33.2547 84.0217 33.946 84.0217 34.8125V42H82.3455V40.5227H82.2603C82.1467 40.7595 81.9573 41.0128 81.6921 41.2827C81.427 41.5526 81.0742 41.7822 80.6339 41.9716C80.1935 42.161 79.6561 42.2557 79.0217 42.2557ZM79.2773 40.75C79.9402 40.75 80.4989 40.6198 80.9535 40.3594C81.4128 40.099 81.7584 39.7628 81.9904 39.3509C82.2272 38.9389 82.3455 38.5057 82.3455 38.0511V36.517C82.2745 36.6023 82.1183 36.6804 81.8768 36.7514C81.64 36.8177 81.3654 36.8769 81.0529 36.929C80.7451 36.9763 80.4445 37.0189 80.1509 37.0568C79.8621 37.09 79.6277 37.1184 79.4478 37.142C79.0122 37.1989 78.605 37.2912 78.2262 37.419C77.8522 37.5421 77.5491 37.7292 77.3171 37.9801C77.0898 38.2263 76.9762 38.5625 76.9762 38.9886C76.9762 39.571 77.1916 40.0114 77.6225 40.3097C78.0581 40.6032 78.6097 40.75 79.2773 40.75ZM88.7571 35.4375V42H87.081V31.0909H88.7003V32.7955H88.8423C89.098 32.2415 89.4863 31.7964 90.0071 31.4602C90.5279 31.1193 91.2003 30.9489 92.0241 30.9489C92.7628 30.9489 93.4091 31.1004 93.9631 31.4034C94.517 31.7017 94.9479 32.1562 95.2557 32.767C95.5634 33.3731 95.7173 34.1402 95.7173 35.0682V42H94.0412V35.1818C94.0412 34.3248 93.8187 33.6572 93.3736 33.179C92.9285 32.696 92.3177 32.4545 91.5412 32.4545C91.0062 32.4545 90.5279 32.5705 90.1065 32.8026C89.6899 33.0346 89.3608 33.3731 89.1193 33.8182C88.8778 34.2633 88.7571 34.803 88.7571 35.4375ZM103.525 31.0909V32.5114H97.8711V31.0909H103.525ZM99.5188 28.4773H101.195V38.875C101.195 39.3485 101.264 39.7036 101.401 39.9403C101.543 40.1723 101.723 40.3286 101.941 40.4091C102.163 40.4848 102.398 40.5227 102.644 40.5227C102.828 40.5227 102.98 40.5133 103.098 40.4943C103.217 40.4706 103.311 40.4517 103.382 40.4375L103.723 41.9432C103.61 41.9858 103.451 42.0284 103.248 42.071C103.044 42.1184 102.786 42.142 102.473 42.142C102 42.142 101.536 42.0402 101.081 41.8366C100.632 41.633 100.257 41.3229 99.9592 40.9062C99.6656 40.4896 99.5188 39.964 99.5188 39.3295V28.4773ZM110.36 42.2273C109.376 42.2273 108.511 41.9929 107.768 41.5241C107.029 41.0554 106.452 40.3996 106.035 39.5568C105.623 38.714 105.417 37.7292 105.417 36.6023C105.417 35.4659 105.623 34.474 106.035 33.6264C106.452 32.7789 107.029 32.1207 107.768 31.652C108.511 31.1832 109.376 30.9489 110.36 30.9489C111.345 30.9489 112.207 31.1832 112.946 31.652C113.689 32.1207 114.267 32.7789 114.679 33.6264C115.095 34.474 115.304 35.4659 115.304 36.6023C115.304 37.7292 115.095 38.714 114.679 39.5568C114.267 40.3996 113.689 41.0554 112.946 41.5241C112.207 41.9929 111.345 42.2273 110.36 42.2273ZM110.36 40.7216C111.109 40.7216 111.724 40.5298 112.207 40.1463C112.69 39.7628 113.047 39.2585 113.279 38.6335C113.511 38.0085 113.627 37.3314 113.627 36.6023C113.627 35.8731 113.511 35.1937 113.279 34.5639C113.047 33.9342 112.69 33.4252 112.207 33.0369C111.724 32.6487 111.109 32.4545 110.36 32.4545C109.612 32.4545 108.997 32.6487 108.514 33.0369C108.031 33.4252 107.673 33.9342 107.441 34.5639C107.209 35.1937 107.093 35.8731 107.093 36.6023C107.093 37.3314 107.209 38.0085 107.441 38.6335C107.673 39.2585 108.031 39.7628 108.514 40.1463C108.997 40.5298 109.612 40.7216 110.36 40.7216ZM117.862 42V31.0909H119.482V32.7386H119.595C119.794 32.1989 120.154 31.7609 120.675 31.4247C121.196 31.0885 121.783 30.9205 122.436 30.9205C122.559 30.9205 122.713 30.9228 122.898 30.9276C123.082 30.9323 123.222 30.9394 123.317 30.9489V32.6534C123.26 32.6392 123.13 32.6179 122.926 32.5895C122.727 32.5563 122.517 32.5398 122.294 32.5398C121.764 32.5398 121.29 32.651 120.874 32.8736C120.462 33.0914 120.135 33.3944 119.893 33.7827C119.657 34.1662 119.538 34.6042 119.538 35.0966V42H117.862Z" fill="#C5F4CA"/>
<path d="M42.2362 32.7743L28.7744 32.6871L33.1591 28.3024" stroke="#79BC80" stroke-width="2.5" stroke-linecap="round" stroke-linejoin="round"/>
<path d="M28.7744 38.236L41.354 38.5334L36.9694 42.918" stroke="#79BC80" stroke-width="2.5" stroke-linecap="round" stroke-linejoin="round"/>
<path d="M61.5028 109.318C59.9877 109.318 58.6316 109.034 57.4347 108.466C56.2377 107.89 55.2869 107.102 54.5824 106.102C53.8854 105.102 53.5142 103.958 53.4688 102.67H57.5597C57.6354 103.625 58.0483 104.405 58.7983 105.011C59.5483 105.61 60.4498 105.909 61.5028 105.909C62.3286 105.909 63.0634 105.72 63.7074 105.341C64.3513 104.962 64.8589 104.436 65.2301 103.761C65.6013 103.087 65.7831 102.318 65.7756 101.455C65.7831 100.576 65.5975 99.7955 65.2188 99.1136C64.84 98.4318 64.321 97.8977 63.6619 97.5114C63.0028 97.1174 62.2453 96.9205 61.3892 96.9205C60.6922 96.9129 60.0066 97.0417 59.3324 97.3068C58.6581 97.572 58.1241 97.9205 57.7301 98.3523L53.9233 97.7273L55.1392 85.7273H68.6392V89.25H58.6278L57.9574 95.4205H58.0938C58.5256 94.9129 59.1354 94.4924 59.9233 94.1591C60.7112 93.8182 61.5748 93.6477 62.5142 93.6477C63.9233 93.6477 65.1809 93.9811 66.2869 94.6477C67.393 95.3068 68.2642 96.2159 68.9006 97.375C69.5369 98.5341 69.8551 99.8598 69.8551 101.352C69.8551 102.89 69.4991 104.261 68.7869 105.466C68.0824 106.663 67.1013 107.606 65.8438 108.295C64.5938 108.977 63.1468 109.318 61.5028 109.318ZM82.2642 109.443C80.393 109.443 78.7869 108.97 77.446 108.023C76.1127 107.068 75.0862 105.693 74.3665 103.898C73.6544 102.095 73.2983 99.9242 73.2983 97.3864C73.3059 94.8485 73.6657 92.6894 74.3778 90.9091C75.0975 89.1212 76.1241 87.7576 77.4574 86.8182C78.7983 85.8788 80.4006 85.4091 82.2642 85.4091C84.1278 85.4091 85.7301 85.8788 87.071 86.8182C88.4119 87.7576 89.4384 89.1212 90.1506 90.9091C90.8703 92.697 91.2301 94.8561 91.2301 97.3864C91.2301 99.9318 90.8703 102.106 90.1506 103.909C89.4384 105.705 88.4119 107.076 87.071 108.023C85.7377 108.97 84.1354 109.443 82.2642 109.443ZM82.2642 105.886C83.7188 105.886 84.8665 105.17 85.7074 103.739C86.5559 102.299 86.9801 100.182 86.9801 97.3864C86.9801 95.5379 86.7869 93.9848 86.4006 92.7273C86.0142 91.4697 85.4688 90.5227 84.7642 89.8864C84.0597 89.2424 83.2263 88.9205 82.2642 88.9205C80.8172 88.9205 79.6733 89.6402 78.8324 91.0795C77.9915 92.5114 77.5672 94.6136 77.5597 97.3864C77.5521 99.2424 77.7377 100.803 78.1165 102.068C78.5028 103.333 79.0483 104.288 79.7528 104.932C80.4574 105.568 81.2945 105.886 82.2642 105.886ZM103.608 109.443C101.737 109.443 100.131 108.97 98.7898 108.023C97.4564 107.068 96.4299 105.693 95.7102 103.898C94.9981 102.095 94.642 99.9242 94.642 97.3864C94.6496 94.8485 95.0095 92.6894 95.7216 90.9091C96.4413 89.1212 97.4678 87.7576 98.8011 86.8182C100.142 85.8788 101.744 85.4091 103.608 85.4091C105.472 85.4091 107.074 85.8788 108.415 86.8182C109.756 87.7576 110.782 89.1212 111.494 90.9091C112.214 92.697 112.574 94.8561 112.574 97.3864C112.574 99.9318 112.214 102.106 111.494 103.909C110.782 105.705 109.756 107.076 108.415 108.023C107.081 108.97 105.479 109.443 103.608 109.443ZM103.608 105.886C105.063 105.886 106.21 105.17 107.051 103.739C107.9 102.299 108.324 100.182 108.324 97.3864C108.324 95.5379 108.131 93.9848 107.744 92.7273C107.358 91.4697 106.813 90.5227 106.108 89.8864C105.403 89.2424 104.57 88.9205 103.608 88.9205C102.161 88.9205 101.017 89.6402 100.176 91.0795C99.3352 92.5114 98.911 94.6136 98.9034 97.3864C98.8958 99.2424 99.0814 100.803 99.4602 102.068C99.8466 103.333 100.392 104.288 101.097 104.932C101.801 105.568 102.638 105.886 103.608 105.886ZM118.023 109.25C117.333 109.25 116.742 109.008 116.25 108.523C115.758 108.038 115.515 107.447 115.523 106.75C115.515 106.068 115.758 105.485 116.25 105C116.742 104.515 117.333 104.273 118.023 104.273C118.689 104.273 119.269 104.515 119.761 105C120.261 105.485 120.515 106.068 120.523 106.75C120.515 107.212 120.394 107.633 120.159 108.011C119.932 108.39 119.629 108.693 119.25 108.92C118.879 109.14 118.47 109.25 118.023 109.25ZM132.42 109.443C130.549 109.443 128.943 108.97 127.602 108.023C126.269 107.068 125.242 105.693 124.523 103.898C123.811 102.095 123.455 99.9242 123.455 97.3864C123.462 94.8485 123.822 92.6894 124.534 90.9091C125.254 89.1212 126.28 87.7576 127.614 86.8182C128.955 85.8788 130.557 85.4091 132.42 85.4091C134.284 85.4091 135.886 85.8788 137.227 86.8182C138.568 87.7576 139.595 89.1212 140.307 90.9091C141.027 92.697 141.386 94.8561 141.386 97.3864C141.386 99.9318 141.027 102.106 140.307 103.909C139.595 105.705 138.568 107.076 137.227 108.023C135.894 108.97 134.292 109.443 132.42 109.443ZM132.42 105.886C133.875 105.886 135.023 105.17 135.864 103.739C136.712 102.299 137.136 100.182 137.136 97.3864C137.136 95.5379 136.943 93.9848 136.557 92.7273C136.17 91.4697 135.625 90.5227 134.92 89.8864C134.216 89.2424 133.383 88.9205 132.42 88.9205C130.973 88.9205 129.83 89.6402 128.989 91.0795C128.148 92.5114 127.723 94.6136 127.716 97.3864C127.708 99.2424 127.894 100.803 128.273 102.068C128.659 103.333 129.205 104.288 129.909 104.932C130.614 105.568 131.451 105.886 132.42 105.886ZM153.764 109.443C151.893 109.443 150.287 108.97 148.946 108.023C147.613 107.068 146.586 105.693 145.866 103.898C145.154 102.095 144.798 99.9242 144.798 97.3864C144.806 94.8485 145.166 92.6894 145.878 90.9091C146.598 89.1212 147.624 87.7576 148.957 86.8182C150.298 85.8788 151.901 85.4091 153.764 85.4091C155.628 85.4091 157.23 85.8788 158.571 86.8182C159.912 87.7576 160.938 89.1212 161.651 90.9091C162.37 92.697 162.73 94.8561 162.73 97.3864C162.73 99.9318 162.37 102.106 161.651 103.909C160.938 105.705 159.912 107.076 158.571 108.023C157.238 108.97 155.635 109.443 153.764 109.443ZM153.764 105.886C155.219 105.886 156.366 105.17 157.207 103.739C158.056 102.299 158.48 100.182 158.48 97.3864C158.48 95.5379 158.287 93.9848 157.901 92.7273C157.514 91.4697 156.969 90.5227 156.264 89.8864C155.56 89.2424 154.726 88.9205 153.764 88.9205C152.317 88.9205 151.173 89.6402 150.332 91.0795C149.491 92.5114 149.067 94.6136 149.06 97.3864C149.052 99.2424 149.238 100.803 149.616 102.068C150.003 103.333 150.548 104.288 151.253 104.932C151.957 105.568 152.795 105.886 153.764 105.886ZM178.5 100.719H172.859V100.781C172.859 101.646 172.995 102.453 173.266 103.203C173.547 103.953 173.901 104.542 174.328 104.969C174.766 105.427 175.292 105.76 175.906 105.969C176.531 106.177 177.224 106.281 177.984 106.281C178.557 106.281 179.115 106.245 179.656 106.172C180.198 106.089 180.719 105.958 181.219 105.781L181.625 108.844C181.021 108.99 180.396 109.104 179.75 109.188C179.104 109.271 178.443 109.312 177.766 109.312C176.516 109.312 175.365 109.135 174.312 108.781C173.271 108.417 172.37 107.87 171.609 107.141C170.87 106.453 170.266 105.547 169.797 104.422C169.328 103.286 169.094 102.078 169.094 100.797V100.719H166.375V98.5781H169.094V96.5312H166.375V94.3906H169.109V94.3438C169.109 93.1458 169.354 91.9792 169.844 90.8438C170.344 89.6979 170.974 88.776 171.734 88.0781C172.495 87.3698 173.396 86.8385 174.438 86.4844C175.49 86.1198 176.641 85.9375 177.891 85.9375C178.536 85.9375 179.161 85.9844 179.766 86.0781C180.38 86.1615 181 86.276 181.625 86.4219L181.219 89.5C180.729 89.3542 180.214 89.2344 179.672 89.1406C179.13 89.0365 178.573 88.9844 178 88.9844C177.219 88.9844 176.505 89.1042 175.859 89.3438C175.214 89.5833 174.682 89.9323 174.266 90.3906C173.797 90.9219 173.448 91.5729 173.219 92.3438C172.99 93.1042 172.875 93.7812 172.875 94.375V94.3906H178.5V96.5312H172.859V98.5781H178.5V100.719Z" fill="#C5F4CA"/>
<line x1="24.5" y1="97" x2="39.5" y2="97" stroke="#C5F4CA" stroke-width="5" stroke-linecap="round"/>
<path d="M52.2088 156V152.955L60.2884 145.034C61.0611 144.254 61.705 143.561 62.2202 142.955C62.7353 142.348 63.1217 141.761 63.3793 141.193C63.6368 140.625 63.7656 140.019 63.7656 139.375C63.7656 138.64 63.599 138.011 63.2656 137.489C62.9323 136.958 62.474 136.549 61.8906 136.261C61.3073 135.973 60.6444 135.83 59.902 135.83C59.1368 135.83 58.4664 135.989 57.8906 136.307C57.3149 136.617 56.8679 137.061 56.5497 137.636C56.2391 138.212 56.0838 138.898 56.0838 139.693H52.0724C52.0724 138.216 52.4096 136.932 53.0838 135.841C53.758 134.75 54.6861 133.905 55.8679 133.307C57.0573 132.708 58.4209 132.409 59.9588 132.409C61.5194 132.409 62.8906 132.701 64.0724 133.284C65.2543 133.867 66.1709 134.667 66.8224 135.682C67.4815 136.697 67.8111 137.856 67.8111 139.159C67.8111 140.03 67.6444 140.886 67.3111 141.727C66.9777 142.568 66.3906 143.5 65.5497 144.523C64.7164 145.545 63.5459 146.784 62.0384 148.239L58.027 152.318V152.477H68.1634V156H52.2088ZM81.5497 132.727V156H77.3338V136.83H77.1974L71.7543 140.307V136.443L77.5384 132.727H81.5497ZM96.9247 132.727V156H92.7088V136.83H92.5724L87.1293 140.307V136.443L92.9134 132.727H96.9247ZM110.925 156.318C109.41 156.318 108.054 156.034 106.857 155.466C105.66 154.89 104.709 154.102 104.004 153.102C103.307 152.102 102.936 150.958 102.891 149.67H106.982C107.057 150.625 107.47 151.405 108.22 152.011C108.97 152.61 109.872 152.909 110.925 152.909C111.75 152.909 112.485 152.72 113.129 152.341C113.773 151.962 114.281 151.436 114.652 150.761C115.023 150.087 115.205 149.318 115.197 148.455C115.205 147.576 115.019 146.795 114.641 146.114C114.262 145.432 113.743 144.898 113.084 144.511C112.425 144.117 111.667 143.92 110.811 143.92C110.114 143.913 109.429 144.042 108.754 144.307C108.08 144.572 107.546 144.92 107.152 145.352L103.345 144.727L104.561 132.727H118.061V136.25H108.05L107.379 142.42H107.516C107.947 141.913 108.557 141.492 109.345 141.159C110.133 140.818 110.997 140.648 111.936 140.648C113.345 140.648 114.603 140.981 115.709 141.648C116.815 142.307 117.686 143.216 118.322 144.375C118.959 145.534 119.277 146.86 119.277 148.352C119.277 149.89 118.921 151.261 118.209 152.466C117.504 153.663 116.523 154.606 115.266 155.295C114.016 155.977 112.569 156.318 110.925 156.318ZM124.882 156.25C124.193 156.25 123.602 156.008 123.109 155.523C122.617 155.038 122.375 154.447 122.382 153.75C122.375 153.068 122.617 152.485 123.109 152C123.602 151.515 124.193 151.273 124.882 151.273C125.549 151.273 126.128 151.515 126.621 152C127.121 152.485 127.375 153.068 127.382 153.75C127.375 154.212 127.253 154.633 127.018 155.011C126.791 155.39 126.488 155.693 126.109 155.92C125.738 156.14 125.329 156.25 124.882 156.25ZM139.28 156.443C137.409 156.443 135.803 155.97 134.462 155.023C133.128 154.068 132.102 152.693 131.382 150.898C130.67 149.095 130.314 146.924 130.314 144.386C130.321 141.848 130.681 139.689 131.393 137.909C132.113 136.121 133.14 134.758 134.473 133.818C135.814 132.879 137.416 132.409 139.28 132.409C141.143 132.409 142.746 132.879 144.087 133.818C145.428 134.758 146.454 136.121 147.166 137.909C147.886 139.697 148.246 141.856 148.246 144.386C148.246 146.932 147.886 149.106 147.166 150.909C146.454 152.705 145.428 154.076 144.087 155.023C142.753 155.97 141.151 156.443 139.28 156.443ZM139.28 152.886C140.734 152.886 141.882 152.17 142.723 150.739C143.571 149.299 143.996 147.182 143.996 144.386C143.996 142.538 143.803 140.985 143.416 139.727C143.03 138.47 142.484 137.523 141.78 136.886C141.075 136.242 140.242 135.92 139.28 135.92C137.833 135.92 136.689 136.64 135.848 138.08C135.007 139.511 134.583 141.614 134.575 144.386C134.568 146.242 134.753 147.803 135.132 149.068C135.518 150.333 136.064 151.288 136.768 151.932C137.473 152.568 138.31 152.886 139.28 152.886ZM151.601 151.682V148.33L161.476 132.727H164.271V137.5H162.567L155.919 148.034V148.216H169.703V151.682H151.601ZM162.703 156V150.659L162.749 149.159V132.727H166.726V156H162.703ZM185.562 147.328V156H181.812V133.25H189.422C190.568 133.26 191.62 133.432 192.578 133.766C193.547 134.099 194.38 134.573 195.078 135.188C195.776 135.802 196.318 136.547 196.703 137.422C197.089 138.297 197.281 139.281 197.281 140.375C197.281 141.427 197.089 142.38 196.703 143.234C196.318 144.078 195.776 144.802 195.078 145.406C194.38 146.021 193.547 146.495 192.578 146.828C191.62 147.161 190.568 147.328 189.422 147.328H185.562ZM185.562 144.266H189.422C190.057 144.255 190.625 144.156 191.125 143.969C191.635 143.771 192.068 143.5 192.422 143.156C192.776 142.812 193.042 142.406 193.219 141.938C193.406 141.469 193.5 140.958 193.5 140.406C193.5 139.802 193.406 139.255 193.219 138.766C193.042 138.266 192.776 137.833 192.422 137.469C192.068 137.104 191.635 136.823 191.125 136.625C190.625 136.427 190.057 136.323 189.422 136.312H185.562V144.266ZM204.844 152.906H215.703V156H201.078V133.25H204.844V152.906ZM234.656 156H230.891L223.5 140.344L223.484 156H219.688V133.25H223.5L230.844 148.844L230.875 133.25H234.656V156Z" fill="#F4FFF5"/>
<line x1="24.5" y1="144" x2="39.5" y2="144" stroke="#F4FFF5" stroke-width="5" stroke-linecap="round"/>
<line x1="32" y1="136.5" x2="32" y2="151.5" stroke="#F4FFF5" stroke-width="5" stroke-linecap="round"/>
<rect x="15" y="210" width="147" height="36" rx="18" fill="#74CE79"/>
<path d="M31.9162 233V231.903L37.6531 223.508H31.8683V222.091H39.6665V223.188L33.9297 231.583H39.7145V233H31.9162ZM44.0318 233.181C43.5133 233.181 43.0446 233.085 42.6255 232.893C42.2065 232.698 41.8745 232.416 41.6294 232.047C41.388 231.677 41.2672 231.224 41.2672 230.688C41.2672 230.227 41.356 229.847 41.5336 229.548C41.7111 229.25 41.9508 229.014 42.2527 228.84C42.5545 228.666 42.8919 228.534 43.2647 228.446C43.6376 228.357 44.0176 228.289 44.4047 228.243C44.8947 228.186 45.2924 228.14 45.5978 228.105C45.9032 228.066 46.1252 228.004 46.2637 227.918C46.4022 227.833 46.4714 227.695 46.4714 227.503V227.466C46.4714 227 46.34 226.64 46.0772 226.384C45.818 226.129 45.4309 226.001 44.916 226.001C44.3798 226.001 43.9572 226.12 43.6483 226.358C43.3429 226.592 43.1316 226.853 43.0144 227.141L41.5176 226.8C41.6951 226.303 41.9544 225.901 42.2953 225.596C42.6397 225.287 43.0357 225.063 43.4831 224.925C43.9306 224.783 44.4011 224.712 44.8947 224.712C45.2214 224.712 45.5676 224.751 45.9334 224.829C46.3027 224.903 46.6472 225.042 46.9668 225.244C47.29 225.447 47.5545 225.736 47.7605 226.113C47.9664 226.485 48.0694 226.97 48.0694 227.567V233H46.514V231.881H46.4501C46.3471 232.087 46.1926 232.29 45.9867 232.489C45.7807 232.687 45.5162 232.853 45.193 232.984C44.8699 233.115 44.4828 233.181 44.0318 233.181ZM44.378 231.903C44.8184 231.903 45.1948 231.816 45.5073 231.642C45.8233 231.468 46.063 231.24 46.2264 230.96C46.3933 230.676 46.4767 230.372 46.4767 230.049V228.994C46.4199 229.051 46.3098 229.104 46.1465 229.154C45.9867 229.2 45.8038 229.241 45.5978 229.277C45.3919 229.309 45.1912 229.339 44.9959 229.367C44.8006 229.392 44.6373 229.413 44.5059 229.431C44.1969 229.47 43.9146 229.536 43.6589 229.628C43.4068 229.721 43.2044 229.854 43.0517 230.028C42.9025 230.198 42.8279 230.425 42.8279 230.71C42.8279 231.104 42.9735 231.402 43.2647 231.604C43.5559 231.803 43.927 231.903 44.378 231.903ZM52.5718 233.181C52.0534 233.181 51.5846 233.085 51.1656 232.893C50.7465 232.698 50.4145 232.416 50.1695 232.047C49.928 231.677 49.8073 231.224 49.8073 230.688C49.8073 230.227 49.896 229.847 50.0736 229.548C50.2512 229.25 50.4909 229.014 50.7927 228.84C51.0945 228.666 51.4319 228.534 51.8048 228.446C52.1776 228.357 52.5576 228.289 52.9447 228.243C53.4347 228.186 53.8325 228.14 54.1379 228.105C54.4433 228.066 54.6652 228.004 54.8037 227.918C54.9422 227.833 55.0115 227.695 55.0115 227.503V227.466C55.0115 227 54.8801 226.64 54.6173 226.384C54.358 226.129 53.971 226.001 53.4561 226.001C52.9198 226.001 52.4972 226.12 52.1883 226.358C51.8829 226.592 51.6716 226.853 51.5544 227.141L50.0576 226.8C50.2352 226.303 50.4944 225.901 50.8353 225.596C51.1798 225.287 51.5757 225.063 52.0232 224.925C52.4706 224.783 52.9411 224.712 53.4347 224.712C53.7615 224.712 54.1077 224.751 54.4735 224.829C54.8428 224.903 55.1872 225.042 55.5068 225.244C55.83 225.447 56.0945 225.736 56.3005 226.113C56.5065 226.485 56.6095 226.97 56.6095 227.567V233H55.0541V231.881H54.9901C54.8872 232.087 54.7327 232.29 54.5267 232.489C54.3208 232.687 54.0562 232.853 53.733 232.984C53.4099 233.115 53.0228 233.181 52.5718 233.181ZM52.9181 231.903C53.3584 231.903 53.7348 231.816 54.0473 231.642C54.3634 231.468 54.6031 231.24 54.7664 230.96C54.9333 230.676 55.0168 230.372 55.0168 230.049V228.994C54.96 229.051 54.8499 229.104 54.6865 229.154C54.5267 229.2 54.3438 229.241 54.1379 229.277C53.9319 229.309 53.7313 229.339 53.536 229.367C53.3406 229.392 53.1773 229.413 53.0459 229.431C52.7369 229.47 52.4546 229.536 52.199 229.628C51.9468 229.721 51.7444 229.854 51.5917 230.028C51.4426 230.198 51.368 230.425 51.368 230.71C51.368 231.104 51.5136 231.402 51.8048 231.604C52.096 231.803 52.4671 231.903 52.9181 231.903ZM60.1957 230.225L60.185 228.281H60.462L63.7219 224.818H65.6289L61.9109 228.76H61.6605L60.1957 230.225ZM58.7308 233V222.091H60.3235V233H58.7308ZM63.8977 233L60.968 229.112L62.0653 227.998L65.8526 233H63.8977ZM70.1899 233.165C69.398 233.165 68.7162 232.986 68.1444 232.627C67.5763 232.265 67.1395 231.766 66.8341 231.13C66.5287 230.495 66.376 229.767 66.376 228.946C66.376 228.115 66.5322 227.382 66.8447 226.746C67.1572 226.107 67.5976 225.608 68.1657 225.25C68.7339 224.891 69.4033 224.712 70.1739 224.712C70.7954 224.712 71.3493 224.827 71.8358 225.058C72.3224 225.285 72.7148 225.605 73.0131 226.017C73.3149 226.429 73.4942 226.91 73.551 227.46H72.001C71.9157 227.077 71.7204 226.746 71.415 226.469C71.1132 226.192 70.7084 226.054 70.2006 226.054C69.7567 226.054 69.3678 226.171 69.034 226.406C68.7037 226.636 68.4463 226.967 68.2616 227.396C68.077 227.822 67.9846 228.327 67.9846 228.909C67.9846 229.506 68.0752 230.021 68.2563 230.454C68.4374 230.887 68.6931 231.223 69.0233 231.461C69.3572 231.699 69.7496 231.817 70.2006 231.817C70.5024 231.817 70.7758 231.762 71.0209 231.652C71.2694 231.539 71.4772 231.377 71.6441 231.168C71.8145 230.958 71.9335 230.706 72.001 230.411H73.551C73.4942 230.94 73.322 231.413 73.0344 231.828C72.7467 232.244 72.3614 232.57 71.8785 232.808C71.3991 233.046 70.8362 233.165 70.1899 233.165ZM78.7805 233.165C77.9744 233.165 77.2802 232.993 76.6978 232.648C76.119 232.3 75.6715 231.812 75.3555 231.184C75.043 230.551 74.8867 229.811 74.8867 228.962C74.8867 228.124 75.043 227.386 75.3555 226.746C75.6715 226.107 76.1119 225.608 76.6765 225.25C77.2447 224.891 77.9087 224.712 78.6687 224.712C79.1303 224.712 79.5778 224.788 80.011 224.941C80.4442 225.093 80.8331 225.333 81.1776 225.66C81.522 225.987 81.7937 226.411 81.9925 226.933C82.1914 227.451 82.2908 228.082 82.2908 228.824V229.388H75.7869V228.195H80.7301C80.7301 227.776 80.6449 227.405 80.4744 227.082C80.304 226.755 80.0643 226.498 79.7553 226.31C79.4499 226.121 79.0913 226.027 78.6793 226.027C78.2319 226.027 77.8413 226.137 77.5075 226.358C77.1772 226.574 76.9215 226.858 76.7404 227.21C76.5629 227.558 76.4741 227.936 76.4741 228.344V229.277C76.4741 229.824 76.57 230.289 76.7617 230.672C76.957 231.056 77.2287 231.349 77.5767 231.551C77.9247 231.75 78.3313 231.849 78.7965 231.849C79.0984 231.849 79.3736 231.807 79.6222 231.722C79.8707 231.633 80.0856 231.501 80.2667 231.327C80.4478 231.153 80.5863 230.939 80.6822 230.683L82.1896 230.955C82.0689 231.398 81.8523 231.787 81.5398 232.121C81.2308 232.451 80.842 232.709 80.3732 232.893C79.908 233.075 79.3771 233.165 78.7805 233.165ZM84.058 236.068V224.818H85.6134V226.145H85.7465C85.8389 225.974 85.972 225.777 86.146 225.553C86.32 225.33 86.5615 225.134 86.8705 224.967C87.1794 224.797 87.5878 224.712 88.0956 224.712C88.7561 224.712 89.3456 224.879 89.8641 225.212C90.3825 225.546 90.7892 226.027 91.0839 226.656C91.3822 227.284 91.5313 228.041 91.5313 228.925C91.5313 229.809 91.384 230.567 91.0892 231.2C90.7945 231.828 90.3896 232.313 89.8747 232.654C89.3598 232.991 88.7721 233.16 88.1116 233.16C87.6144 233.16 87.2078 233.076 86.8918 232.909C86.5793 232.743 86.3343 232.547 86.1567 232.324C85.9791 232.1 85.8424 231.901 85.7465 231.727H85.6507V236.068H84.058ZM85.6187 228.909C85.6187 229.484 85.7021 229.989 85.8691 230.422C86.036 230.855 86.2774 231.194 86.5935 231.439C86.9095 231.681 87.2966 231.801 87.7547 231.801C88.2306 231.801 88.6283 231.675 88.9479 231.423C89.2675 231.168 89.509 230.821 89.6723 230.385C89.8392 229.948 89.9227 229.456 89.9227 228.909C89.9227 228.369 89.841 227.885 89.6776 227.455C89.5178 227.025 89.2764 226.686 88.9532 226.438C88.6336 226.189 88.2341 226.065 87.7547 226.065C87.2931 226.065 86.9024 226.184 86.5828 226.422C86.2668 226.659 86.0271 226.991 85.8637 227.418C85.7004 227.844 85.6187 228.341 85.6187 228.909ZM97.135 224.818V226.097H92.6659V224.818H97.135ZM93.8644 222.858H95.4571V230.598C95.4571 230.907 95.5033 231.139 95.5956 231.295C95.6879 231.448 95.8069 231.553 95.9525 231.61C96.1017 231.663 96.2632 231.69 96.4372 231.69C96.5651 231.69 96.6769 231.681 96.7728 231.663C96.8687 231.645 96.9433 231.631 96.9965 231.62L97.2842 232.936C97.1919 232.972 97.0605 233.007 96.89 233.043C96.7195 233.082 96.5065 233.103 96.2508 233.107C95.8318 233.114 95.4411 233.039 95.0789 232.883C94.7167 232.727 94.4237 232.485 94.2 232.158C93.9763 231.832 93.8644 231.422 93.8644 230.928V222.858ZM102.255 233.165C101.488 233.165 100.819 232.989 100.247 232.638C99.6754 232.286 99.2315 231.794 98.9155 231.162C98.5994 230.53 98.4414 229.792 98.4414 228.946C98.4414 228.098 98.5994 227.355 98.9155 226.72C99.2315 226.084 99.6754 225.591 100.247 225.239C100.819 224.887 101.488 224.712 102.255 224.712C103.022 224.712 103.692 224.887 104.263 225.239C104.835 225.591 105.279 226.084 105.595 226.72C105.911 227.355 106.069 228.098 106.069 228.946C106.069 229.792 105.911 230.53 105.595 231.162C105.279 231.794 104.835 232.286 104.263 232.638C103.692 232.989 103.022 233.165 102.255 233.165ZM102.261 231.828C102.758 231.828 103.17 231.697 103.496 231.434C103.823 231.171 104.065 230.821 104.221 230.385C104.381 229.948 104.461 229.467 104.461 228.941C104.461 228.419 104.381 227.94 104.221 227.503C104.065 227.062 103.823 226.709 103.496 226.443C103.17 226.176 102.758 226.043 102.261 226.043C101.76 226.043 101.344 226.176 101.014 226.443C100.688 226.709 100.444 227.062 100.284 227.503C100.128 227.94 100.05 228.419 100.05 228.941C100.05 229.467 100.128 229.948 100.284 230.385C100.444 230.821 100.688 231.171 101.014 231.434C101.344 231.697 101.76 231.828 102.261 231.828ZM109.372 233L106.964 224.818H108.61L110.213 230.827H110.293L111.902 224.818H113.548L115.146 230.8H115.226L116.819 224.818H118.464L116.062 233H114.438L112.776 227.093H112.653L110.991 233H109.372ZM122.357 233.181C121.839 233.181 121.37 233.085 120.951 232.893C120.532 232.698 120.2 232.416 119.955 232.047C119.713 231.677 119.592 231.224 119.592 230.688C119.592 230.227 119.681 229.847 119.859 229.548C120.036 229.25 120.276 229.014 120.578 228.84C120.88 228.666 121.217 228.534 121.59 228.446C121.963 228.357 122.343 228.289 122.73 228.243C123.22 228.186 123.618 228.14 123.923 228.105C124.228 228.066 124.45 228.004 124.589 227.918C124.727 227.833 124.797 227.695 124.797 227.503V227.466C124.797 227 124.665 226.64 124.402 226.384C124.143 226.129 123.756 226.001 123.241 226.001C122.705 226.001 122.282 226.12 121.973 226.358C121.668 226.592 121.457 226.853 121.34 227.141L119.843 226.8C120.02 226.303 120.28 225.901 120.62 225.596C120.965 225.287 121.361 225.063 121.808 224.925C122.256 224.783 122.726 224.712 123.22 224.712C123.547 224.712 123.893 224.751 124.259 224.829C124.628 224.903 124.972 225.042 125.292 225.244C125.615 225.447 125.88 225.736 126.086 226.113C126.292 226.485 126.395 226.97 126.395 227.567V233H124.839V231.881H124.775C124.672 232.087 124.518 232.29 124.312 232.489C124.106 232.687 123.841 232.853 123.518 232.984C123.195 233.115 122.808 233.181 122.357 233.181ZM122.703 231.903C123.144 231.903 123.52 231.816 123.832 231.642C124.149 231.468 124.388 231.24 124.552 230.96C124.718 230.676 124.802 230.372 124.802 230.049V228.994C124.745 229.051 124.635 229.104 124.472 229.154C124.312 229.2 124.129 229.241 123.923 229.277C123.717 229.309 123.516 229.339 123.321 229.367C123.126 229.392 122.962 229.413 122.831 229.431C122.522 229.47 122.24 229.536 121.984 229.628C121.732 229.721 121.53 229.854 121.377 230.028C121.228 230.198 121.153 230.425 121.153 230.71C121.153 231.104 121.299 231.402 121.59 231.604C121.881 231.803 122.252 231.903 122.703 231.903ZM130.109 228.142V233H128.516V224.818H130.045V226.15H130.146C130.334 225.717 130.629 225.369 131.03 225.106C131.435 224.843 131.945 224.712 132.559 224.712C133.116 224.712 133.605 224.829 134.024 225.063C134.443 225.294 134.768 225.638 134.999 226.097C135.229 226.555 135.345 227.121 135.345 227.796V233H133.752V227.988C133.752 227.395 133.598 226.931 133.289 226.597C132.98 226.26 132.555 226.091 132.016 226.091C131.646 226.091 131.318 226.171 131.03 226.331C130.746 226.491 130.521 226.725 130.354 227.034C130.19 227.339 130.109 227.709 130.109 228.142ZM140.927 233.165C140.16 233.165 139.491 232.989 138.919 232.638C138.347 232.286 137.903 231.794 137.587 231.162C137.271 230.53 137.113 229.792 137.113 228.946C137.113 228.098 137.271 227.355 137.587 226.72C137.903 226.084 138.347 225.591 138.919 225.239C139.491 224.887 140.16 224.712 140.927 224.712C141.694 224.712 142.364 224.887 142.935 225.239C143.507 225.591 143.951 226.084 144.267 226.72C144.583 227.355 144.741 228.098 144.741 228.946C144.741 229.792 144.583 230.53 144.267 231.162C143.951 231.794 143.507 232.286 142.935 232.638C142.364 232.989 141.694 233.165 140.927 233.165ZM140.933 231.828C141.43 231.828 141.842 231.697 142.168 231.434C142.495 231.171 142.737 230.821 142.893 230.385C143.053 229.948 143.132 229.467 143.132 228.941C143.132 228.419 143.053 227.94 142.893 227.503C142.737 227.062 142.495 226.709 142.168 226.443C141.842 226.176 141.43 226.043 140.933 226.043C140.432 226.043 140.016 226.176 139.686 226.443C139.359 226.709 139.116 227.062 138.956 227.503C138.8 227.94 138.722 228.419 138.722 228.941C138.722 229.467 138.8 229.948 138.956 230.385C139.116 230.821 139.359 231.171 139.686 231.434C140.016 231.697 140.432 231.828 140.933 231.828Z" fill="#F4FFF5"/>
</svg>
