<svg width="254" height="261" viewBox="0 0 254 261" fill="none" xmlns="http://www.w3.org/2000/svg">
<rect width="254" height="261" rx="35" fill="#F5F5F7"/>
<path d="M29.8445 42L25.8104 27.4545H28.1186L30.9524 38.7188H31.0874L34.0348 27.4545H36.3217L39.2692 38.7259H39.4041L42.2308 27.4545H44.5462L40.505 42H38.2962L35.2351 31.1051H35.1214L32.0604 42H29.8445ZM47.7191 46.0909C47.4019 46.0909 47.113 46.0649 46.8526 46.0128C46.5922 45.9654 46.3981 45.9134 46.2702 45.8565L46.7816 44.1165C47.1699 44.2206 47.5155 44.2656 47.8185 44.2514C48.1216 44.2372 48.3891 44.1236 48.6211 43.9105C48.8578 43.6974 49.0662 43.3494 49.2461 42.8665L49.5089 42.142L45.5174 31.0909H47.7901L50.5529 39.5568H50.6665L53.4293 31.0909H55.7092L51.2134 43.456C51.0051 44.0241 50.7399 44.5047 50.418 44.8977C50.096 45.2955 49.7125 45.5938 49.2674 45.7926C48.8223 45.9915 48.3062 46.0909 47.7191 46.0909ZM61.4176 42.2131C60.5369 42.2131 59.7509 41.9882 59.0597 41.5384C58.3731 41.0838 57.8333 40.4375 57.4403 39.5994C57.0521 38.7566 56.858 37.7457 56.858 36.5668C56.858 35.3878 57.0545 34.3793 57.4474 33.5412C57.8452 32.7031 58.3897 32.0616 59.081 31.6165C59.7723 31.1714 60.5559 30.9489 61.4318 30.9489C62.1089 30.9489 62.6534 31.0625 63.0653 31.2898C63.482 31.5123 63.804 31.7727 64.0312 32.071C64.2633 32.3693 64.4432 32.6321 64.571 32.8594H64.6989V27.4545H66.8224V42H64.7486V40.3026H64.571C64.4432 40.5346 64.2585 40.7997 64.017 41.098C63.7803 41.3963 63.4536 41.6567 63.0369 41.8793C62.6203 42.1018 62.0805 42.2131 61.4176 42.2131ZM61.8864 40.402C62.4972 40.402 63.0133 40.241 63.4347 39.919C63.8608 39.5923 64.1828 39.1402 64.4006 38.5625C64.6231 37.9848 64.7344 37.3125 64.7344 36.5455C64.7344 35.7879 64.6255 35.125 64.4077 34.5568C64.1899 33.9886 63.8703 33.5459 63.4489 33.2287C63.0275 32.9115 62.5066 32.7528 61.8864 32.7528C61.2472 32.7528 60.7145 32.9186 60.2884 33.25C59.8622 33.5814 59.5402 34.0336 59.3224 34.6065C59.1094 35.1795 59.0028 35.8258 59.0028 36.5455C59.0028 37.2746 59.1117 37.9304 59.3295 38.5128C59.5473 39.0952 59.8693 39.5568 60.2955 39.8977C60.7263 40.2339 61.2566 40.402 61.8864 40.402ZM73.0281 42.2415C72.3368 42.2415 71.7118 42.1136 71.1531 41.858C70.5943 41.5975 70.1516 41.2211 69.8249 40.7287C69.503 40.2363 69.342 39.6326 69.342 38.9176C69.342 38.3021 69.4603 37.7955 69.6971 37.3977C69.9338 37 70.2534 36.6851 70.6559 36.4531C71.0584 36.2211 71.5082 36.0459 72.0053 35.9276C72.5025 35.8092 73.0091 35.7192 73.5252 35.6577C74.1786 35.5819 74.7089 35.5204 75.1161 35.473C75.5233 35.4209 75.8192 35.3381 76.0039 35.2244C76.1886 35.1108 76.2809 34.9261 76.2809 34.6705V34.6207C76.2809 34.0005 76.1057 33.5199 75.7553 33.179C75.4097 32.8381 74.8936 32.6676 74.207 32.6676C73.4921 32.6676 72.9286 32.8262 72.5167 33.1435C72.1095 33.456 71.8278 33.804 71.6715 34.1875L69.6758 33.733C69.9125 33.0701 70.2582 32.535 70.7127 32.1278C71.172 31.7159 71.6999 31.4176 72.2965 31.233C72.8931 31.0436 73.5205 30.9489 74.1786 30.9489C74.6142 30.9489 75.0759 31.0009 75.5636 31.1051C76.056 31.2045 76.5153 31.3892 76.9414 31.6591C77.3723 31.929 77.725 32.3149 77.9996 32.8168C78.2743 33.3139 78.4116 33.9602 78.4116 34.7557V42H76.3377V40.5085H76.2525C76.1152 40.7831 75.9092 41.053 75.6346 41.3182C75.36 41.5833 75.0072 41.8035 74.5763 41.9787C74.1455 42.1539 73.6294 42.2415 73.0281 42.2415ZM73.4897 40.5369C74.0768 40.5369 74.5787 40.4209 74.9954 40.1889C75.4168 39.9569 75.7364 39.6539 75.9542 39.2798C76.1767 38.901 76.288 38.4962 76.288 38.0653V36.6591C76.2122 36.7348 76.0655 36.8059 75.8477 36.8722C75.6346 36.9337 75.3907 36.9882 75.1161 37.0355C74.8415 37.0781 74.574 37.1184 74.3136 37.1562C74.0531 37.1894 73.8353 37.2178 73.6602 37.2415C73.2482 37.2936 72.8718 37.3812 72.5309 37.5043C72.1947 37.6274 71.9248 37.8049 71.7212 38.0369C71.5224 38.2642 71.4229 38.5672 71.4229 38.946C71.4229 39.4716 71.6171 39.8693 72.0053 40.1392C72.3936 40.4044 72.8884 40.5369 73.4897 40.5369ZM86.3324 31.0909V32.7955H80.3736V31.0909H86.3324ZM81.9716 28.4773H84.0952V38.7969C84.0952 39.2088 84.1567 39.5189 84.2798 39.7273C84.4029 39.9309 84.5616 40.0705 84.7557 40.1463C84.9545 40.2173 85.17 40.2528 85.402 40.2528C85.5724 40.2528 85.7216 40.241 85.8494 40.2173C85.9773 40.1937 86.0767 40.1747 86.1477 40.1605L86.5312 41.9148C86.4081 41.9621 86.233 42.0095 86.0057 42.0568C85.7784 42.1089 85.4943 42.1373 85.1534 42.142C84.5947 42.1515 84.0739 42.0521 83.5909 41.8438C83.108 41.6354 82.7173 41.3134 82.419 40.8778C82.1207 40.4422 81.9716 39.8954 81.9716 39.2372V28.4773ZM90.869 38.2997L90.8548 35.7074H91.2241L95.5707 31.0909H98.1133L93.1559 36.3466H92.8221L90.869 38.2997ZM88.9158 42V27.4545H91.0394V42H88.9158ZM95.805 42L91.8988 36.8153L93.3619 35.331L98.4116 42H95.805ZM100.049 42V31.0909H102.172V42H100.049ZM101.121 29.4077C100.752 29.4077 100.435 29.2846 100.169 29.0384C99.909 28.7874 99.7788 28.4891 99.7788 28.1435C99.7788 27.7931 99.909 27.4948 100.169 27.2486C100.435 26.9976 100.752 26.8722 101.121 26.8722C101.49 26.8722 101.805 26.9976 102.066 27.2486C102.331 27.4948 102.463 27.7931 102.463 28.1435C102.463 28.4891 102.331 28.7874 102.066 29.0384C101.805 29.2846 101.49 29.4077 101.121 29.4077Z" fill="black"/>
<path d="M26.4066 62V61.0412L30.0075 57.0994C30.43 56.6378 30.7781 56.2365 31.0515 55.8956C31.3249 55.5511 31.5273 55.228 31.6587 54.9261C31.7937 54.6207 31.8612 54.3011 31.8612 53.9673C31.8612 53.5838 31.7688 53.2518 31.5842 52.9712C31.4031 52.6907 31.1545 52.4741 30.8384 52.3214C30.5224 52.1687 30.1673 52.0923 29.7731 52.0923C29.354 52.0923 28.9883 52.1793 28.6758 52.3533C28.3668 52.5238 28.1271 52.7635 27.9567 53.0724C27.7898 53.3814 27.7063 53.7436 27.7063 54.1591H26.4492C26.4492 53.5199 26.5966 52.9588 26.8913 52.4759C27.1861 51.9929 27.5874 51.6165 28.0952 51.3466C28.6065 51.0767 29.18 50.9418 29.8157 50.9418C30.4549 50.9418 31.0213 51.0767 31.5149 51.3466C32.0085 51.6165 32.3956 51.9805 32.6761 52.4386C32.9567 52.8967 33.0969 53.4062 33.0969 53.9673C33.0969 54.3686 33.0241 54.761 32.8786 55.1445C32.7365 55.5245 32.4879 55.9489 32.1328 56.4176C31.7812 56.8828 31.293 57.451 30.668 58.1222L28.2177 60.7429V60.8281H33.2887V62H26.4066ZM39.3239 51.0909V62H38.0028V52.4759H37.9389L35.2756 54.2443V52.902L38.0028 51.0909H39.3239ZM46.1474 62.1491C45.4442 62.1491 44.8175 62.0284 44.267 61.7869C43.7202 61.5455 43.2852 61.2099 42.962 60.7802C42.6424 60.3469 42.4684 59.8445 42.44 59.2727H43.7823C43.8107 59.6243 43.9315 59.9279 44.1445 60.1836C44.3576 60.4357 44.6364 60.631 44.9808 60.7695C45.3253 60.908 45.707 60.9773 46.1261 60.9773C46.5948 60.9773 47.0103 60.8956 47.3725 60.7322C47.7347 60.5689 48.0188 60.3416 48.2248 60.0504C48.4308 59.7592 48.5337 59.4219 48.5337 59.0384C48.5337 58.6371 48.4343 58.2837 48.2354 57.9783C48.0366 57.6694 47.7454 57.4279 47.3619 57.2539C46.9783 57.0799 46.5096 56.9929 45.9556 56.9929H45.082V55.821H45.9556C46.3888 55.821 46.7688 55.7429 47.0955 55.5866C47.4258 55.4304 47.6832 55.2102 47.8679 54.9261C48.0561 54.642 48.1502 54.3082 48.1502 53.9247C48.1502 53.5554 48.0685 53.234 47.9052 52.9606C47.7418 52.6871 47.511 52.4741 47.2127 52.3214C46.918 52.1687 46.57 52.0923 46.1687 52.0923C45.7923 52.0923 45.4371 52.1616 45.1033 52.3001C44.7731 52.435 44.5032 52.6321 44.2937 52.8913C44.0842 53.147 43.9705 53.456 43.9528 53.8182H42.6744C42.6957 53.2464 42.8679 52.7457 43.1911 52.3161C43.5142 51.8828 43.9368 51.5455 44.4588 51.304C44.9844 51.0625 45.5614 50.9418 46.19 50.9418C46.8647 50.9418 47.4435 51.0785 47.9265 51.3519C48.4094 51.6218 48.7805 51.9787 49.0398 52.4226C49.299 52.8665 49.4286 53.3459 49.4286 53.8608C49.4286 54.4751 49.267 54.9989 48.9439 55.4322C48.6243 55.8654 48.1893 56.1655 47.6388 56.3324V56.4176C48.3278 56.5312 48.8658 56.8242 49.2528 57.2965C49.6399 57.7653 49.8335 58.3459 49.8335 59.0384C49.8335 59.6314 49.6719 60.1641 49.3487 60.6364C49.0291 61.1051 48.5923 61.4744 48.0384 61.7443C47.4844 62.0142 46.854 62.1491 46.1474 62.1491ZM52.353 62L57.2322 52.348V52.2628H51.6072V51.0909H58.5959V52.3267L53.7379 62H52.353ZM59.6439 62.0852C59.3811 62.0852 59.1556 61.9911 58.9674 61.8029C58.7792 61.6147 58.6851 61.3892 58.6851 61.1264C58.6851 60.8636 58.7792 60.6381 58.9674 60.4499C59.1556 60.2617 59.3811 60.1676 59.6439 60.1676C59.9067 60.1676 60.1322 60.2617 60.3204 60.4499C60.5086 60.6381 60.6027 60.8636 60.6027 61.1264C60.6027 61.3004 60.5583 61.4602 60.4695 61.6058C60.3843 61.7514 60.2689 61.8686 60.1233 61.9574C59.9813 62.0426 59.8215 62.0852 59.6439 62.0852ZM66.0786 62.1491C65.6311 62.142 65.1837 62.0568 64.7362 61.8935C64.2888 61.7301 63.8804 61.4549 63.5111 61.0678C63.1418 60.6772 62.8453 60.1499 62.6215 59.4858C62.3978 58.8182 62.286 57.9801 62.286 56.9716C62.286 56.0057 62.3765 55.1499 62.5576 54.4041C62.7387 53.6548 63.0015 53.0245 63.346 52.5131C63.6904 51.9982 64.1059 51.6076 64.5924 51.3413C65.0825 51.0749 65.6347 50.9418 66.249 50.9418C66.8598 50.9418 67.4031 51.0643 67.879 51.3093C68.3584 51.5508 68.749 51.8881 69.0509 52.3214C69.3527 52.7546 69.548 53.2536 69.6368 53.8182H68.3371C68.2164 53.3281 67.982 52.9215 67.634 52.5984C67.286 52.2752 66.8243 52.1136 66.249 52.1136C65.4039 52.1136 64.738 52.4812 64.2515 53.2163C63.7686 53.9513 63.5253 54.983 63.5218 56.3111H63.607C63.8058 56.0092 64.042 55.7518 64.3154 55.5387C64.5924 55.3221 64.8978 55.1552 65.2316 55.038C65.5654 54.9208 65.9188 54.8622 66.2916 54.8622C66.9166 54.8622 67.4884 55.0185 68.0068 55.331C68.5253 55.6399 68.9408 56.0678 69.2533 56.6147C69.5658 57.158 69.722 57.7812 69.722 58.4844C69.722 59.1591 69.5711 59.777 69.2693 60.3381C68.9674 60.8956 68.5431 61.3395 67.9962 61.6697C67.4529 61.9964 66.8137 62.1562 66.0786 62.1491ZM66.0786 60.9773C66.526 60.9773 66.9273 60.8654 67.2824 60.6417C67.6411 60.418 67.9234 60.1179 68.1294 59.7415C68.3389 59.3651 68.4436 58.946 68.4436 58.4844C68.4436 58.0334 68.3424 57.6232 68.14 57.2539C67.9411 56.881 67.6659 56.5845 67.3144 56.3643C66.9664 56.1442 66.5686 56.0341 66.1212 56.0341C65.7838 56.0341 65.4695 56.1016 65.1784 56.2365C64.8872 56.3679 64.6315 56.549 64.4113 56.7798C64.1947 57.0107 64.0242 57.2752 63.8999 57.5735C63.7757 57.8683 63.7135 58.179 63.7135 58.5057C63.7135 58.9389 63.8147 59.3437 64.0171 59.7202C64.2231 60.0966 64.5036 60.4002 64.8588 60.631C65.2174 60.8619 65.624 60.9773 66.0786 60.9773ZM75.2898 50.9418C75.7372 50.9453 76.1847 51.0305 76.6321 51.1974C77.0795 51.3643 77.4879 51.6413 77.8572 52.0284C78.2266 52.4119 78.5231 52.9357 78.7468 53.5998C78.9705 54.2638 79.0824 55.0966 79.0824 56.098C79.0824 57.0675 78.9901 57.9286 78.8054 58.6815C78.6243 59.4308 78.3615 60.0629 78.017 60.5778C77.6761 61.0927 77.2607 61.4833 76.7706 61.7496C76.2841 62.016 75.7337 62.1491 75.1193 62.1491C74.5085 62.1491 73.9634 62.0284 73.484 61.7869C73.0082 61.5419 72.6175 61.2028 72.3121 60.7695C72.0103 60.3327 71.8168 59.8267 71.7315 59.2514H73.0312C73.1484 59.7521 73.381 60.1658 73.729 60.4925C74.0806 60.8157 74.544 60.9773 75.1193 60.9773C75.9609 60.9773 76.625 60.6097 77.1115 59.8746C77.6016 59.1396 77.8466 58.1009 77.8466 56.7585H77.7614C77.5625 57.0568 77.3263 57.3143 77.0529 57.5309C76.7795 57.7475 76.4759 57.9144 76.142 58.0316C75.8082 58.1488 75.4531 58.2074 75.0767 58.2074C74.4517 58.2074 73.8782 58.0529 73.3562 57.744C72.8377 57.4315 72.4222 57.0036 72.1097 56.4602C71.8008 55.9134 71.6463 55.2884 71.6463 54.5852C71.6463 53.9176 71.7955 53.3068 72.0938 52.7528C72.3956 52.1953 72.8182 51.7514 73.3615 51.4212C73.9084 51.0909 74.5511 50.9311 75.2898 50.9418ZM75.2898 52.1136C74.8423 52.1136 74.4393 52.2255 74.0806 52.4492C73.7255 52.6694 73.4432 52.9677 73.2337 53.3441C73.0277 53.717 72.9247 54.1307 72.9247 54.5852C72.9247 55.0398 73.0241 55.4535 73.223 55.8263C73.4254 56.1957 73.7006 56.4904 74.0487 56.7106C74.4002 56.9272 74.7997 57.0355 75.2472 57.0355C75.5845 57.0355 75.8988 56.9698 76.19 56.8384C76.4812 56.7035 76.7351 56.5206 76.9517 56.2898C77.1719 56.0554 77.3441 55.7908 77.4684 55.4961C77.5927 55.1978 77.6548 54.8871 77.6548 54.5639C77.6548 54.1378 77.5518 53.7383 77.3459 53.3654C77.1435 52.9925 76.8629 52.6907 76.5043 52.4599C76.1491 52.229 75.7443 52.1136 75.2898 52.1136ZM80.964 62V61.0412L85.6089 55.0753V54.9901H81.1132V53.8182H87.2282V54.8196L82.7112 60.7429V60.8281H87.3774V62H80.964ZM91.7426 55.1818V56.1193L88.1418 57.483V56.5455L91.7426 55.1818ZM90.5708 51.0909V62H89.3137V51.0909H90.5708Z" fill="#ACACAC"/>
<rect x="59" y="175" width="15" height="56" rx="2" fill="#428D31"/>
<rect x="59" y="118" width="15" height="55" rx="2" fill="#66D849"/>
<rect x="59" y="91" width="15" height="25" rx="2" fill="#ADE49E"/>
<rect x="89" y="197" width="15" height="34" rx="2" fill="#428D31"/>
<rect x="89" y="151" width="15" height="44" rx="2" fill="#66D849"/>
<rect x="89" y="116" width="15" height="33" rx="2" fill="#ADE49E"/>
<rect x="119" y="157" width="15" height="74" rx="2" fill="#428D31"/>
<rect x="119" y="134" width="15" height="21" rx="2" fill="#66D849"/>
<rect x="119" y="91" width="15" height="41" rx="2" fill="#ADE49E"/>
<rect x="149" y="217" width="15" height="14" rx="2" fill="#428D31"/>
<rect x="149" y="155" width="15" height="59" rx="2" fill="#66D849"/>
<rect x="149" y="91" width="15" height="61" rx="2" fill="#ADE49E"/>
<rect x="179" y="197" width="15" height="34" rx="2" fill="#428D31"/>
<rect x="179" y="146" width="15" height="49" rx="2" fill="#66D849"/>
<rect x="179" y="91" width="15" height="52" rx="2" fill="#ADE49E"/>
<path d="M63.6699 237.174C63.6358 236.871 63.4952 236.637 63.248 236.471C63.0009 236.303 62.6898 236.218 62.3148 236.218C62.0463 236.218 61.8141 236.261 61.6181 236.346C61.4221 236.429 61.2697 236.544 61.161 236.691C61.0545 236.836 61.0012 237.001 61.0012 237.187C61.0012 237.342 61.0375 237.477 61.1099 237.589C61.1845 237.702 61.2814 237.797 61.4007 237.874C61.5222 237.949 61.6522 238.011 61.7907 238.062C61.9292 238.112 62.0623 238.152 62.1902 238.184L62.8294 238.35C63.0382 238.401 63.2523 238.471 63.4718 238.558C63.6912 238.645 63.8947 238.76 64.0822 238.903C64.2697 239.046 64.421 239.223 64.536 239.434C64.6532 239.645 64.7118 239.897 64.7118 240.191C64.7118 240.562 64.6159 240.891 64.4242 241.179C64.2346 241.466 63.9586 241.693 63.5964 241.859C63.2363 242.026 62.8006 242.109 62.2892 242.109C61.7992 242.109 61.3752 242.031 61.0172 241.875C60.6593 241.72 60.3791 241.499 60.1767 241.214C59.9743 240.926 59.8624 240.585 59.8411 240.191H60.8319C60.851 240.428 60.9277 240.625 61.062 240.782C61.1983 240.938 61.372 241.054 61.5829 241.131C61.796 241.205 62.0293 241.243 62.2828 241.243C62.562 241.243 62.8102 241.199 63.0275 241.112C63.247 241.022 63.4196 240.898 63.5453 240.741C63.671 240.581 63.7338 240.395 63.7338 240.181C63.7338 239.988 63.6784 239.829 63.5676 239.705C63.459 239.582 63.3109 239.479 63.1234 239.398C62.938 239.317 62.7282 239.246 62.4938 239.184L61.7203 238.973C61.1962 238.831 60.7807 238.621 60.4739 238.344C60.1692 238.067 60.0169 237.7 60.0169 237.244C60.0169 236.867 60.1191 236.538 60.3237 236.257C60.5282 235.975 60.8052 235.757 61.1547 235.602C61.5041 235.444 61.8983 235.365 62.3372 235.365C62.7804 235.365 63.1713 235.443 63.5101 235.598C63.851 235.754 64.1195 235.968 64.3155 236.241C64.5115 236.511 64.6138 236.822 64.6223 237.174H63.6699ZM68.1068 237.091V237.858H65.4253V237.091H68.1068ZM66.1444 235.915H67.1001V240.559C67.1001 240.744 67.1278 240.884 67.1831 240.977C67.2385 241.069 67.3099 241.132 67.3973 241.166C67.4868 241.198 67.5837 241.214 67.6881 241.214C67.7648 241.214 67.8319 241.208 67.8895 241.198C67.947 241.187 67.9917 241.179 68.0237 241.172L68.1963 241.962C68.1409 241.983 68.0621 242.004 67.9598 242.026C67.8575 242.049 67.7297 242.062 67.5763 242.064C67.3248 242.068 67.0905 242.023 66.8731 241.93C66.6558 241.836 66.48 241.691 66.3458 241.495C66.2116 241.299 66.1444 241.053 66.1444 240.757V235.915ZM69.7679 243.841C69.6252 243.841 69.4952 243.829 69.378 243.806C69.2608 243.784 69.1735 243.761 69.1159 243.735L69.3461 242.952C69.5208 242.999 69.6763 243.02 69.8127 243.013C69.949 243.007 70.0694 242.956 70.1738 242.86C70.2804 242.764 70.3741 242.607 70.4551 242.39L70.5733 242.064L68.7772 237.091H69.7999L71.0431 240.901H71.0943L72.3375 237.091H73.3635L71.3404 242.655C71.2466 242.911 71.1273 243.127 70.9824 243.304C70.8375 243.483 70.665 243.617 70.4647 243.707C70.2644 243.796 70.0321 243.841 69.7679 243.841Z" fill="#ABABAB"/>
<path d="M90.3285 242V235.455H91.3161V241.15H94.282V242H90.3285ZM98.4416 239.964V237.091H99.4004V242H98.4608V241.15H98.4096C98.2967 241.412 98.1156 241.63 97.8663 241.805C97.6191 241.978 97.3113 242.064 96.9426 242.064C96.6273 242.064 96.3482 241.995 96.1053 241.856C95.8645 241.716 95.6749 241.508 95.5364 241.233C95.4 240.958 95.3319 240.618 95.3319 240.213V237.091H96.2875V240.098C96.2875 240.433 96.3801 240.699 96.5655 240.897C96.7509 241.096 96.9917 241.195 97.2878 241.195C97.4668 241.195 97.6447 241.15 97.8216 241.06C98.0005 240.971 98.1486 240.836 98.2658 240.654C98.3851 240.473 98.4437 240.243 98.4416 239.964ZM102.976 237.091V237.858H100.294V237.091H102.976ZM101.014 235.915H101.969V240.559C101.969 240.744 101.997 240.884 102.052 240.977C102.108 241.069 102.179 241.132 102.266 241.166C102.356 241.198 102.453 241.214 102.557 241.214C102.634 241.214 102.701 241.208 102.759 241.198C102.816 241.187 102.861 241.179 102.893 241.172L103.065 241.962C103.01 241.983 102.931 242.004 102.829 242.026C102.727 242.049 102.599 242.062 102.445 242.064C102.194 242.068 101.96 242.023 101.742 241.93C101.525 241.836 101.349 241.691 101.215 241.495C101.081 241.299 101.014 241.053 101.014 240.757V235.915Z" fill="#ABABAB"/>
<path d="M118.891 235.455H120.09L122.174 240.543H122.25L124.334 235.455H125.533V242H124.593V237.263H124.532L122.602 241.99H121.822L119.892 237.26H119.831V242H118.891V235.455ZM128.321 242.109C128.009 242.109 127.728 242.051 127.477 241.936C127.225 241.819 127.026 241.65 126.879 241.428C126.734 241.206 126.662 240.935 126.662 240.613C126.662 240.336 126.715 240.108 126.822 239.929C126.928 239.75 127.072 239.608 127.253 239.504C127.434 239.4 127.637 239.321 127.86 239.267C128.084 239.214 128.312 239.174 128.544 239.146C128.838 239.112 129.077 239.084 129.26 239.063C129.443 239.039 129.577 239.002 129.66 238.951C129.743 238.9 129.784 238.817 129.784 238.702V238.679C129.784 238.4 129.705 238.184 129.548 238.031C129.392 237.877 129.16 237.8 128.851 237.8C128.529 237.8 128.276 237.872 128.09 238.015C127.907 238.155 127.78 238.312 127.71 238.484L126.812 238.28C126.919 237.982 127.074 237.741 127.279 237.558C127.485 237.372 127.723 237.238 127.991 237.155C128.26 237.07 128.542 237.027 128.838 237.027C129.034 237.027 129.242 237.05 129.462 237.097C129.683 237.142 129.89 237.225 130.082 237.347C130.275 237.468 130.434 237.642 130.558 237.868C130.681 238.091 130.743 238.382 130.743 238.74V242H129.81V241.329H129.772C129.71 241.452 129.617 241.574 129.493 241.693C129.37 241.812 129.211 241.912 129.017 241.99C128.823 242.069 128.591 242.109 128.321 242.109ZM128.528 241.342C128.792 241.342 129.018 241.289 129.206 241.185C129.395 241.081 129.539 240.944 129.637 240.776C129.737 240.605 129.788 240.423 129.788 240.229V239.597C129.753 239.631 129.687 239.663 129.589 239.692C129.493 239.72 129.384 239.745 129.26 239.766C129.137 239.785 129.016 239.803 128.899 239.82C128.782 239.835 128.684 239.848 128.605 239.859C128.42 239.882 128.25 239.922 128.097 239.977C127.946 240.032 127.824 240.112 127.732 240.217C127.643 240.319 127.598 240.455 127.598 240.626C127.598 240.862 127.686 241.041 127.86 241.163C128.035 241.282 128.258 241.342 128.528 241.342ZM132.016 242V237.091H132.94V237.871H132.991C133.08 237.607 133.238 237.399 133.464 237.248C133.692 237.094 133.95 237.017 134.237 237.017C134.297 237.017 134.367 237.02 134.448 237.024C134.531 237.028 134.596 237.033 134.643 237.04V237.954C134.605 237.943 134.537 237.931 134.439 237.919C134.341 237.904 134.242 237.896 134.144 237.896C133.919 237.896 133.717 237.944 133.54 238.04C133.366 238.134 133.227 238.265 133.125 238.433C133.023 238.599 132.972 238.789 132.972 239.002V242H132.016Z" fill="#ABABAB"/>
<path d="M149.678 242V235.455H150.666V238.58H150.746L153.491 235.455H154.734L152.094 238.401L154.744 242H153.555L151.439 239.076L150.666 239.964V242H149.678ZM156.08 242L154.635 237.091H155.623L156.585 240.696H156.633L157.598 237.091H158.585L159.544 240.68H159.592L160.548 237.091H161.535L160.094 242H159.119L158.122 238.456H158.048L157.051 242H156.08ZM162.442 242V237.091H163.398V242H162.442ZM162.925 236.333C162.759 236.333 162.616 236.278 162.497 236.167C162.379 236.054 162.321 235.92 162.321 235.765C162.321 235.607 162.379 235.473 162.497 235.362C162.616 235.249 162.759 235.192 162.925 235.192C163.091 235.192 163.233 235.249 163.35 235.362C163.469 235.473 163.529 235.607 163.529 235.765C163.529 235.92 163.469 236.054 163.35 236.167C163.233 236.278 163.091 236.333 162.925 236.333Z" fill="#ABABAB"/>
<path d="M179.498 235.455H180.696L182.78 240.543H182.857L184.941 235.455H186.139V242H185.2V237.263H185.139L183.208 241.99H182.429L180.498 237.26H180.438V242H179.498V235.455ZM188.927 242.109C188.616 242.109 188.335 242.051 188.083 241.936C187.832 241.819 187.633 241.65 187.486 241.428C187.341 241.206 187.268 240.935 187.268 240.613C187.268 240.336 187.322 240.108 187.428 239.929C187.535 239.75 187.678 239.608 187.86 239.504C188.041 239.4 188.243 239.321 188.467 239.267C188.69 239.214 188.918 239.174 189.151 239.146C189.445 239.112 189.683 239.084 189.867 239.063C190.05 239.039 190.183 239.002 190.266 238.951C190.349 238.9 190.391 238.817 190.391 238.702V238.679C190.391 238.4 190.312 238.184 190.154 238.031C189.999 237.877 189.766 237.8 189.458 237.8C189.136 237.8 188.882 237.872 188.697 238.015C188.514 238.155 188.387 238.312 188.317 238.484L187.418 238.28C187.525 237.982 187.681 237.741 187.885 237.558C188.092 237.372 188.329 237.238 188.598 237.155C188.866 237.07 189.149 237.027 189.445 237.027C189.641 237.027 189.848 237.05 190.068 237.097C190.29 237.142 190.496 237.225 190.688 237.347C190.882 237.468 191.041 237.642 191.164 237.868C191.288 238.091 191.35 238.382 191.35 238.74V242H190.416V241.329H190.378C190.316 241.452 190.223 241.574 190.1 241.693C189.976 241.812 189.818 241.912 189.624 241.99C189.43 242.069 189.198 242.109 188.927 242.109ZM189.135 241.342C189.399 241.342 189.625 241.289 189.812 241.185C190.002 241.081 190.146 240.944 190.244 240.776C190.344 240.605 190.394 240.423 190.394 240.229V239.597C190.36 239.631 190.294 239.663 190.196 239.692C190.1 239.72 189.99 239.745 189.867 239.766C189.743 239.785 189.623 239.803 189.505 239.82C189.388 239.835 189.29 239.848 189.211 239.859C189.026 239.882 188.857 239.922 188.703 239.977C188.552 240.032 188.431 240.112 188.339 240.217C188.249 240.319 188.205 240.455 188.205 240.626C188.205 240.862 188.292 241.041 188.467 241.163C188.641 241.282 188.864 241.342 189.135 241.342ZM192.622 237.091H193.578V242.32C193.578 242.648 193.518 242.925 193.399 243.151C193.282 243.376 193.107 243.548 192.875 243.665C192.645 243.782 192.36 243.841 192.022 243.841C191.987 243.841 191.955 243.841 191.926 243.841C191.894 243.841 191.861 243.84 191.827 243.838V243.016C191.856 243.016 191.883 243.016 191.906 243.016C191.928 243.016 191.952 243.016 191.98 243.016C192.206 243.016 192.369 242.956 192.469 242.834C192.571 242.715 192.622 242.541 192.622 242.313V237.091ZM193.095 236.333C192.929 236.333 192.786 236.278 192.667 236.167C192.55 236.054 192.491 235.92 192.491 235.765C192.491 235.607 192.55 235.473 192.667 235.362C192.786 235.249 192.929 235.192 193.095 235.192C193.262 235.192 193.403 235.249 193.52 235.362C193.64 235.473 193.699 235.607 193.699 235.765C193.699 235.92 193.64 236.054 193.52 236.167C193.403 236.278 193.262 236.333 193.095 236.333Z" fill="#ABABAB"/>
</svg>
