<?xml version="1.0" encoding="UTF-8" standalone="no"?>
<svg
   width="254"
   height="261"
   viewBox="0 0 254 261"
   fill="none"
   version="1.1"
   id="svg6"
   sodipodi:docname="card-wyslij.svg"
   inkscape:version="1.4.2 (f4327f4, 2025-05-13)"
   xmlns:inkscape="http://www.inkscape.org/namespaces/inkscape"
   xmlns:sodipodi="http://sodipodi.sourceforge.net/DTD/sodipodi-0.dtd"
   xmlns="http://www.w3.org/2000/svg"
   xmlns:svg="http://www.w3.org/2000/svg">
  <defs
     id="defs6" />
  <sodipodi:namedview
     id="namedview6"
     pagecolor="#ffffff"
     bordercolor="#000000"
     borderopacity="0.25"
     inkscape:showpageshadow="2"
     inkscape:pageopacity="0.0"
     inkscape:pagecheckerboard="0"
     inkscape:deskcolor="#d1d1d1"
     inkscape:zoom="2.816092"
     inkscape:cx="127.12653"
     inkscape:cy="130.32245"
     inkscape:window-width="1920"
     inkscape:window-height="974"
     inkscape:window-x="-11"
     inkscape:window-y="-11"
     inkscape:window-maximized="1"
     inkscape:current-layer="svg6" />
  <rect
     width="254"
     height="261"
     rx="35"
     fill="#519CE3"
     fill-opacity="0.62"
     id="rect1"
     style="fill:#519ce3;fill-opacity:1" />
  <rect
     x="15"
     y="206"
     width="224"
     height="40"
     rx="20"
     fill="#F5F5F7"
     id="rect2" />
  <path
     d="M108.631 231L105.605 220.091H107.337L109.462 228.539H109.563L111.774 220.091H113.489L115.699 228.544H115.801L117.921 220.091H119.657L116.626 231H114.97L112.674 222.829H112.589L110.293 231H108.631ZM122.037 234.068C121.799 234.068 121.582 234.049 121.387 234.01C121.192 233.974 121.046 233.935 120.95 233.892L121.334 232.587C121.625 232.665 121.884 232.699 122.111 232.689C122.339 232.678 122.539 232.593 122.713 232.433C122.891 232.273 123.047 232.012 123.182 231.65L123.379 231.107L120.386 222.818H122.09L124.162 229.168H124.247L126.32 222.818H128.029L124.658 232.092C124.501 232.518 124.303 232.879 124.061 233.173C123.82 233.472 123.532 233.695 123.198 233.844C122.864 233.994 122.477 234.068 122.037 234.068ZM135.657 224.816L134.214 225.071C134.153 224.887 134.057 224.711 133.926 224.544C133.798 224.377 133.624 224.24 133.404 224.134C133.184 224.027 132.909 223.974 132.578 223.974C132.127 223.974 131.751 224.075 131.449 224.278C131.147 224.477 130.996 224.734 130.996 225.05C130.996 225.324 131.098 225.544 131.3 225.711C131.502 225.877 131.829 226.014 132.28 226.121L133.58 226.419C134.333 226.593 134.894 226.861 135.263 227.223C135.632 227.586 135.817 228.056 135.817 228.635C135.817 229.125 135.675 229.562 135.391 229.945C135.11 230.325 134.718 230.624 134.214 230.84C133.713 231.057 133.132 231.165 132.472 231.165C131.556 231.165 130.808 230.97 130.229 230.579C129.651 230.185 129.295 229.626 129.164 228.901L130.703 228.667C130.799 229.068 130.996 229.372 131.295 229.578C131.593 229.78 131.982 229.881 132.461 229.881C132.983 229.881 133.401 229.773 133.713 229.556C134.026 229.336 134.182 229.068 134.182 228.752C134.182 228.496 134.086 228.282 133.894 228.108C133.706 227.934 133.417 227.802 133.026 227.713L131.641 227.41C130.877 227.236 130.313 226.959 129.947 226.579C129.585 226.199 129.404 225.718 129.404 225.135C129.404 224.652 129.539 224.23 129.809 223.868C130.078 223.505 130.451 223.223 130.927 223.021C131.403 222.815 131.948 222.712 132.562 222.712C133.447 222.712 134.143 222.903 134.651 223.287C135.158 223.667 135.494 224.176 135.657 224.816ZM131.923 221.726L133.17 219.271H134.848L133.196 221.726H131.923ZM139.161 220.091V231H137.568V220.091H139.161ZM141.304 231V222.818H142.896V231H141.304ZM142.108 221.556C141.831 221.556 141.593 221.463 141.394 221.279C141.199 221.091 141.101 220.867 141.101 220.608C141.101 220.345 141.199 220.121 141.394 219.936C141.593 219.748 141.831 219.654 142.108 219.654C142.385 219.654 142.621 219.748 142.816 219.936C143.015 220.121 143.115 220.345 143.115 220.608C143.115 220.867 143.015 221.091 142.816 221.279C142.621 221.463 142.385 221.556 142.108 221.556ZM145.039 222.818H146.632V231.533C146.632 232.08 146.532 232.541 146.333 232.918C146.138 233.294 145.847 233.58 145.46 233.775C145.076 233.971 144.602 234.068 144.038 234.068C143.981 234.068 143.927 234.068 143.878 234.068C143.824 234.068 143.769 234.066 143.713 234.063V232.694C143.762 232.694 143.807 232.694 143.846 232.694C143.881 232.694 143.922 232.694 143.968 232.694C144.345 232.694 144.616 232.593 144.783 232.39C144.954 232.191 145.039 231.902 145.039 231.522V222.818ZM145.827 221.556C145.55 221.556 145.312 221.463 145.114 221.279C144.918 221.091 144.821 220.867 144.821 220.608C144.821 220.345 144.918 220.121 145.114 219.936C145.312 219.748 145.55 219.654 145.827 219.654C146.104 219.654 146.34 219.748 146.536 219.936C146.735 220.121 146.834 220.345 146.834 220.608C146.834 220.867 146.735 221.091 146.536 221.279C146.34 221.463 146.104 221.556 145.827 221.556Z"
     fill="#1D1D1F"
     id="path2" />
  <rect
     x="15"
     y="15"
     width="224"
     height="173"
     rx="25"
     fill="#F5F5F7"
     id="rect3" />
  <circle
     cx="50"
     cy="50"
     r="20"
     fill="#D9D9D9"
     id="circle3" />
  <path
     d="M79.457 52.5801V58H77.1133V43.7812H81.8691C82.5853 43.7878 83.2428 43.8952 83.8418 44.1035C84.4473 44.3118 84.9681 44.6081 85.4043 44.9922C85.8405 45.3763 86.179 45.8418 86.4199 46.3887C86.6608 46.9355 86.7812 47.5508 86.7812 48.2344C86.7812 48.8919 86.6608 49.4876 86.4199 50.0215C86.179 50.5488 85.8405 51.0013 85.4043 51.3789C84.9681 51.763 84.4473 52.0592 83.8418 52.2676C83.2428 52.4759 82.5853 52.5801 81.8691 52.5801H79.457ZM79.457 50.666H81.8691C82.2663 50.6595 82.6211 50.5977 82.9336 50.4805C83.2526 50.3568 83.5228 50.1875 83.7441 49.9727C83.9655 49.7578 84.1315 49.5039 84.2422 49.2109C84.3594 48.918 84.418 48.599 84.418 48.2539C84.418 47.8763 84.3594 47.5345 84.2422 47.2285C84.1315 46.916 83.9655 46.6458 83.7441 46.418C83.5228 46.1901 83.2526 46.0143 82.9336 45.8906C82.6211 45.7669 82.2663 45.7018 81.8691 45.6953H79.457V50.666ZM91.5078 56.0664H98.2949V58H89.1543V43.7812H91.5078V56.0664ZM110.141 58H107.787L103.168 48.2148L103.158 58H100.785V43.7812H103.168L107.758 53.5273L107.777 43.7812H110.141V58Z"
     fill="black"
     id="path3" />
  <circle
     cx="127"
     cy="51"
     r="7"
     fill="#F73B20"
     fill-opacity="0.4"
     id="circle4" />
  <path
     d="M124 50L127 53L128.5 51.5L130 50"
     stroke="#F73B20"
     stroke-width="1.5"
     stroke-linecap="round"
     stroke-linejoin="round"
     id="path4" />
  <rect
     x="31"
     y="100"
     width="61"
     height="29"
     fill="#F73B20"
     fill-opacity="0.4"
     id="rect4" />
  <path
     d="M42.5795 101.545V127H38.7265V105.398H38.5773L32.4871 109.376V105.697L38.8383 101.545H42.5795ZM58.327 127.423C56.3632 127.414 54.6853 126.896 53.2932 125.869C51.9012 124.842 50.8364 123.346 50.099 121.382C49.3615 119.418 48.9928 117.053 48.9928 114.285C48.9928 111.526 49.3615 109.169 50.099 107.213C50.8447 105.258 51.9136 103.766 53.3057 102.739C54.706 101.711 56.3798 101.197 58.327 101.197C60.2742 101.197 61.9438 101.715 63.3358 102.751C64.7279 103.779 65.7926 105.27 66.5301 107.225C67.2758 109.173 67.6487 111.526 67.6487 114.285C67.6487 117.061 67.28 119.431 66.5425 121.395C65.8051 123.35 64.7403 124.846 63.3483 125.881C61.9562 126.909 60.2825 127.423 58.327 127.423ZM58.327 124.104C60.0505 124.104 61.3969 123.263 62.3664 121.581C63.3441 119.899 63.833 117.467 63.833 114.285C63.833 112.172 63.6093 110.387 63.1618 108.928C62.7227 107.462 62.0888 106.351 61.2602 105.597C60.4399 104.835 59.4622 104.454 58.327 104.454C56.6118 104.454 55.2653 105.299 54.2876 106.989C53.3098 108.68 52.8168 111.112 52.8085 114.285C52.8085 116.406 53.0281 118.2 53.4672 119.667C53.9147 121.125 54.5486 122.231 55.3689 122.985C56.1892 123.731 57.1752 124.104 58.327 124.104ZM80.9197 127.423C78.956 127.414 77.2781 126.896 75.886 125.869C74.494 124.842 73.4292 123.346 72.6918 121.382C71.9543 119.418 71.5856 117.053 71.5856 114.285C71.5856 111.526 71.9543 109.169 72.6918 107.213C73.4375 105.258 74.5064 103.766 75.8984 102.739C77.2988 101.711 78.9725 101.197 80.9197 101.197C82.867 101.197 84.5366 101.715 85.9286 102.751C87.3207 103.779 88.3854 105.27 89.1229 107.225C89.8686 109.173 90.2415 111.526 90.2415 114.285C90.2415 117.061 89.8728 119.431 89.1353 121.395C88.3978 123.35 87.3331 124.846 85.9411 125.881C84.549 126.909 82.8752 127.423 80.9197 127.423ZM80.9197 124.104C82.6432 124.104 83.9897 123.263 84.9592 121.581C85.9369 119.899 86.4258 117.467 86.4258 114.285C86.4258 112.172 86.2021 110.387 85.7546 108.928C85.3155 107.462 84.6816 106.351 83.853 105.597C83.0327 104.835 82.0549 104.454 80.9197 104.454C79.2045 104.454 77.8581 105.299 76.8803 106.989C75.9026 108.68 75.4096 111.112 75.4013 114.285C75.4013 116.406 75.6209 118.2 76.06 119.667C76.5075 121.125 77.1413 122.231 77.9616 122.985C78.782 123.731 79.768 124.104 80.9197 124.104ZM108.42 117.515V127H104.319V102.117H112.642C113.895 102.129 115.046 102.317 116.094 102.681C117.153 103.046 118.065 103.564 118.828 104.236C119.591 104.909 120.184 105.723 120.605 106.68C121.027 107.637 121.238 108.714 121.238 109.91C121.238 111.061 121.027 112.103 120.605 113.038C120.184 113.96 119.591 114.752 118.828 115.413C118.065 116.085 117.153 116.604 116.094 116.968C115.046 117.333 113.895 117.515 112.642 117.515H108.42ZM108.42 114.166H112.642C113.337 114.154 113.958 114.046 114.504 113.841C115.063 113.624 115.535 113.328 115.923 112.952C116.31 112.576 116.601 112.132 116.794 111.619C117 111.106 117.102 110.548 117.102 109.944C117.102 109.284 117 108.685 116.794 108.15C116.601 107.603 116.31 107.13 115.923 106.731C115.535 106.333 115.063 106.025 114.504 105.809C113.958 105.592 113.337 105.478 112.642 105.467H108.42V114.166ZM129.509 123.616H141.387V127H125.391V102.117H129.509V123.616ZM162.117 127H157.998L149.915 109.876L149.897 127H145.745V102.117H149.915L157.947 119.173L157.981 102.117H162.117V127Z"
     fill="black"
     id="path5" />
  <line
     x1="92.5"
     y1="131"
     x2="92.5"
     y2="98"
     stroke="#F73B20"
     stroke-opacity="0.6"
     id="line5" />
  <path
     d="M37.1484 162.957C37.0916 162.452 36.8572 162.062 36.4453 161.785C36.0334 161.504 35.5149 161.364 34.8899 161.364C34.4425 161.364 34.0554 161.435 33.7287 161.577C33.402 161.716 33.1481 161.907 32.967 162.152C32.7894 162.394 32.7006 162.669 32.7006 162.978C32.7006 163.237 32.761 163.461 32.8817 163.649C33.006 163.837 33.1676 163.995 33.3665 164.123C33.5689 164.248 33.7855 164.352 34.0163 164.438C34.2472 164.519 34.4691 164.587 34.6822 164.64L35.7475 164.917C36.0955 165.002 36.4524 165.118 36.8182 165.263C37.1839 165.409 37.5231 165.6 37.8356 165.838C38.1481 166.076 38.4002 166.371 38.592 166.723C38.7873 167.074 38.8849 167.495 38.8849 167.985C38.8849 168.603 38.7251 169.152 38.4055 169.631C38.0895 170.11 37.6296 170.489 37.0259 170.766C36.4258 171.043 35.6996 171.181 34.8473 171.181C34.0305 171.181 33.3239 171.051 32.7273 170.792C32.1307 170.533 31.6637 170.165 31.3263 169.69C30.989 169.21 30.8026 168.642 30.767 167.985H32.4183C32.4503 168.379 32.5781 168.708 32.8018 168.971C33.0291 169.23 33.3185 169.423 33.6701 169.551C34.0252 169.675 34.4141 169.738 34.8366 169.738C35.3018 169.738 35.7156 169.665 36.0778 169.519C36.4435 169.37 36.7312 169.164 36.9407 168.901C37.1502 168.635 37.255 168.324 37.255 167.969C37.255 167.646 37.1626 167.381 36.978 167.175C36.7969 166.969 36.5501 166.799 36.2376 166.664C35.9286 166.529 35.5788 166.41 35.1882 166.307L33.8991 165.956C33.0256 165.718 32.3331 165.368 31.8217 164.906C31.3139 164.445 31.06 163.834 31.06 163.074C31.06 162.445 31.2305 161.897 31.5714 161.428C31.9123 160.959 32.3739 160.595 32.9563 160.336C33.5387 160.073 34.1957 159.942 34.9272 159.942C35.6658 159.942 36.3175 160.071 36.8821 160.331C37.4503 160.59 37.8977 160.947 38.2244 161.401C38.5511 161.852 38.7216 162.371 38.7358 162.957H37.1484ZM43.105 171.181C42.5866 171.181 42.1178 171.085 41.6988 170.893C41.2797 170.698 40.9477 170.416 40.7027 170.047C40.4612 169.677 40.3405 169.224 40.3405 168.688C40.3405 168.227 40.4292 167.847 40.6068 167.548C40.7844 167.25 41.0241 167.014 41.3259 166.84C41.6278 166.666 41.9651 166.534 42.338 166.446C42.7108 166.357 43.0908 166.289 43.4779 166.243C43.968 166.186 44.3657 166.14 44.6711 166.105C44.9765 166.066 45.1984 166.004 45.3369 165.918C45.4754 165.833 45.5447 165.695 45.5447 165.503V165.466C45.5447 165 45.4133 164.64 45.1505 164.384C44.8912 164.129 44.5042 164.001 43.9893 164.001C43.453 164.001 43.0305 164.12 42.7215 164.358C42.4161 164.592 42.2048 164.853 42.0876 165.141L40.5908 164.8C40.7684 164.303 41.0276 163.901 41.3685 163.596C41.713 163.287 42.1089 163.063 42.5564 162.925C43.0038 162.783 43.4743 162.712 43.968 162.712C44.2947 162.712 44.6409 162.751 45.0067 162.829C45.376 162.903 45.7204 163.042 46.04 163.244C46.3632 163.447 46.6278 163.736 46.8337 164.113C47.0397 164.485 47.1427 164.97 47.1427 165.567V171H45.5873V169.881H45.5233C45.4204 170.087 45.2659 170.29 45.0599 170.489C44.854 170.687 44.5894 170.853 44.2662 170.984C43.9431 171.115 43.556 171.181 43.105 171.181ZM43.4513 169.903C43.8916 169.903 44.268 169.816 44.5805 169.642C44.8966 169.468 45.1363 169.24 45.2996 168.96C45.4665 168.676 45.55 168.372 45.55 168.049V166.994C45.4932 167.051 45.3831 167.104 45.2197 167.154C45.0599 167.2 44.877 167.241 44.6711 167.277C44.4651 167.309 44.2645 167.339 44.0692 167.367C43.8738 167.392 43.7105 167.413 43.5791 167.431C43.2702 167.47 42.9878 167.536 42.7322 167.628C42.48 167.721 42.2776 167.854 42.1249 168.028C41.9758 168.198 41.9012 168.425 41.9012 168.71C41.9012 169.104 42.0468 169.402 42.338 169.604C42.6292 169.803 43.0003 169.903 43.4513 169.903ZM50.8567 160.091V171H49.264V160.091H50.8567ZM56.0622 171.16C55.4017 171.16 54.8122 170.991 54.2938 170.654C53.7789 170.313 53.374 169.828 53.0793 169.2C52.7881 168.567 52.6425 167.809 52.6425 166.925C52.6425 166.041 52.7899 165.284 53.0846 164.656C53.3829 164.027 53.7913 163.546 54.3097 163.212C54.8282 162.879 55.4159 162.712 56.0729 162.712C56.5807 162.712 56.9891 162.797 57.298 162.967C57.6105 163.134 57.852 163.33 58.0225 163.553C58.1965 163.777 58.3314 163.974 58.4273 164.145H58.5232V160.091H60.1159V171H58.5605V169.727H58.4273C58.3314 169.901 58.1929 170.1 58.0118 170.324C57.8343 170.547 57.5892 170.743 57.2767 170.909C56.9642 171.076 56.5594 171.16 56.0622 171.16ZM56.4138 169.801C56.8719 169.801 57.259 169.681 57.575 169.439C57.8946 169.194 58.1361 168.855 58.2994 168.422C58.4664 167.989 58.5498 167.484 58.5498 166.909C58.5498 166.341 58.4681 165.844 58.3048 165.418C58.1414 164.991 57.9017 164.659 57.5857 164.422C57.2696 164.184 56.879 164.065 56.4138 164.065C55.9344 164.065 55.5349 164.189 55.2153 164.438C54.8957 164.686 54.6542 165.025 54.4909 165.455C54.3311 165.885 54.2512 166.369 54.2512 166.909C54.2512 167.456 54.3328 167.948 54.4962 168.385C54.6595 168.821 54.901 169.168 55.2206 169.423C55.5438 169.675 55.9415 169.801 56.4138 169.801ZM65.8354 171.165C65.0684 171.165 64.399 170.989 63.8272 170.638C63.2555 170.286 62.8116 169.794 62.4956 169.162C62.1795 168.53 62.0215 167.792 62.0215 166.946C62.0215 166.098 62.1795 165.355 62.4956 164.72C62.8116 164.084 63.2555 163.591 63.8272 163.239C64.399 162.887 65.0684 162.712 65.8354 162.712C66.6025 162.712 67.2718 162.887 67.8436 163.239C68.4153 163.591 68.8592 164.084 69.1752 164.72C69.4913 165.355 69.6493 166.098 69.6493 166.946C69.6493 167.792 69.4913 168.53 69.1752 169.162C68.8592 169.794 68.4153 170.286 67.8436 170.638C67.2718 170.989 66.6025 171.165 65.8354 171.165ZM65.8407 169.828C66.3379 169.828 66.7498 169.697 67.0765 169.434C67.4032 169.171 67.6447 168.821 67.801 168.385C67.9608 167.948 68.0407 167.467 68.0407 166.941C68.0407 166.419 67.9608 165.94 67.801 165.503C67.6447 165.062 67.4032 164.709 67.0765 164.443C66.7498 164.176 66.3379 164.043 65.8407 164.043C65.34 164.043 64.9245 164.176 64.5943 164.443C64.2676 164.709 64.0243 165.062 63.8645 165.503C63.7083 165.94 63.6301 166.419 63.6301 166.941C63.6301 167.467 63.7083 167.948 63.8645 168.385C64.0243 168.821 64.2676 169.171 64.5943 169.434C64.9245 169.697 65.34 169.828 65.8407 169.828ZM72.5883 171.138C72.2368 171.138 71.9349 171.014 71.6828 170.766C71.4342 170.513 71.3099 170.212 71.3099 169.86C71.3099 169.512 71.4342 169.214 71.6828 168.965C71.9349 168.717 72.2368 168.592 72.5883 168.592C72.9292 168.592 73.2275 168.717 73.4832 168.965C73.7389 169.214 73.8667 169.512 73.8667 169.86C73.8667 170.094 73.8064 170.309 73.6856 170.505C73.5684 170.696 73.414 170.851 73.2222 170.968C73.0305 171.082 72.8192 171.138 72.5883 171.138ZM72.5883 165.407C72.2368 165.407 71.9349 165.283 71.6828 165.034C71.4342 164.786 71.3099 164.484 71.3099 164.129C71.3099 163.781 71.4342 163.484 71.6828 163.239C71.9349 162.99 72.2368 162.866 72.5883 162.866C72.9292 162.866 73.2275 162.99 73.4832 163.239C73.7389 163.484 73.8667 163.781 73.8667 164.129C73.8667 164.366 73.8064 164.583 73.6856 164.778C73.5684 164.97 73.414 165.123 73.2222 165.237C73.0305 165.35 72.8192 165.407 72.5883 165.407ZM79.4252 171V170.041L83.026 166.099C83.4486 165.638 83.7966 165.237 84.07 164.896C84.3435 164.551 84.5459 164.228 84.6773 163.926C84.8122 163.621 84.8797 163.301 84.8797 162.967C84.8797 162.584 84.7874 162.252 84.6027 161.971C84.4216 161.691 84.173 161.474 83.857 161.321C83.5409 161.169 83.1858 161.092 82.7916 161.092C82.3726 161.092 82.0068 161.179 81.6943 161.353C81.3854 161.524 81.1457 161.763 80.9752 162.072C80.8083 162.381 80.7249 162.744 80.7249 163.159H79.4678C79.4678 162.52 79.6151 161.959 79.9099 161.476C80.2046 160.993 80.6059 160.616 81.1137 160.347C81.6251 160.077 82.1986 159.942 82.8343 159.942C83.4735 159.942 84.0399 160.077 84.5335 160.347C85.0271 160.616 85.4142 160.98 85.6947 161.439C85.9752 161.897 86.1155 162.406 86.1155 162.967C86.1155 163.369 86.0427 163.761 85.8971 164.145C85.7551 164.525 85.5065 164.949 85.1514 165.418C84.7998 165.883 84.3115 166.451 83.6865 167.122L81.2362 169.743V169.828H86.3073V171H79.4252ZM96.5612 160.091V171H95.2401V161.476H95.1762L92.5129 163.244V161.902L95.2401 160.091H96.5612ZM103.385 171.149C102.682 171.149 102.055 171.028 101.504 170.787C100.957 170.545 100.522 170.21 100.199 169.78C99.8797 169.347 99.7057 168.844 99.6773 168.273H101.02C101.048 168.624 101.169 168.928 101.382 169.184C101.595 169.436 101.874 169.631 102.218 169.77C102.563 169.908 102.944 169.977 103.363 169.977C103.832 169.977 104.248 169.896 104.61 169.732C104.972 169.569 105.256 169.342 105.462 169.05C105.668 168.759 105.771 168.422 105.771 168.038C105.771 167.637 105.672 167.284 105.473 166.978C105.274 166.669 104.983 166.428 104.599 166.254C104.216 166.08 103.747 165.993 103.193 165.993H102.319V164.821H103.193C103.626 164.821 104.006 164.743 104.333 164.587C104.663 164.43 104.921 164.21 105.105 163.926C105.293 163.642 105.388 163.308 105.388 162.925C105.388 162.555 105.306 162.234 105.142 161.961C104.979 161.687 104.748 161.474 104.45 161.321C104.155 161.169 103.807 161.092 103.406 161.092C103.03 161.092 102.674 161.162 102.341 161.3C102.01 161.435 101.741 161.632 101.531 161.891C101.321 162.147 101.208 162.456 101.19 162.818H99.9117C99.933 162.246 100.105 161.746 100.428 161.316C100.752 160.883 101.174 160.545 101.696 160.304C102.222 160.062 102.799 159.942 103.427 159.942C104.102 159.942 104.681 160.078 105.164 160.352C105.647 160.622 106.018 160.979 106.277 161.423C106.536 161.866 106.666 162.346 106.666 162.861C106.666 163.475 106.504 163.999 106.181 164.432C105.862 164.865 105.427 165.165 104.876 165.332V165.418C105.565 165.531 106.103 165.824 106.49 166.297C106.877 166.765 107.071 167.346 107.071 168.038C107.071 168.631 106.909 169.164 106.586 169.636C106.266 170.105 105.83 170.474 105.276 170.744C104.722 171.014 104.091 171.149 103.385 171.149ZM109.59 171L114.47 161.348V161.263H108.845V160.091H115.833V161.327L110.975 171H109.59ZM116.881 171.085C116.618 171.085 116.393 170.991 116.205 170.803C116.017 170.615 115.922 170.389 115.922 170.126C115.922 169.864 116.017 169.638 116.205 169.45C116.393 169.262 116.618 169.168 116.881 169.168C117.144 169.168 117.369 169.262 117.558 169.45C117.746 169.638 117.84 169.864 117.84 170.126C117.84 170.3 117.796 170.46 117.707 170.606C117.622 170.751 117.506 170.869 117.361 170.957C117.219 171.043 117.059 171.085 116.881 171.085ZM123.316 171.149C122.868 171.142 122.421 171.057 121.974 170.893C121.526 170.73 121.118 170.455 120.748 170.068C120.379 169.677 120.083 169.15 119.859 168.486C119.635 167.818 119.523 166.98 119.523 165.972C119.523 165.006 119.614 164.15 119.795 163.404C119.976 162.655 120.239 162.025 120.583 161.513C120.928 160.998 121.343 160.608 121.83 160.341C122.32 160.075 122.872 159.942 123.486 159.942C124.097 159.942 124.64 160.064 125.116 160.309C125.596 160.551 125.986 160.888 126.288 161.321C126.59 161.755 126.785 162.254 126.874 162.818H125.574C125.454 162.328 125.219 161.922 124.871 161.598C124.523 161.275 124.062 161.114 123.486 161.114C122.641 161.114 121.975 161.481 121.489 162.216C121.006 162.951 120.763 163.983 120.759 165.311H120.844C121.043 165.009 121.279 164.752 121.553 164.539C121.83 164.322 122.135 164.155 122.469 164.038C122.803 163.921 123.156 163.862 123.529 163.862C124.154 163.862 124.726 164.018 125.244 164.331C125.763 164.64 126.178 165.068 126.491 165.615C126.803 166.158 126.959 166.781 126.959 167.484C126.959 168.159 126.808 168.777 126.507 169.338C126.205 169.896 125.78 170.339 125.233 170.67C124.69 170.996 124.051 171.156 123.316 171.149ZM123.316 169.977C123.763 169.977 124.165 169.865 124.52 169.642C124.878 169.418 125.161 169.118 125.367 168.741C125.576 168.365 125.681 167.946 125.681 167.484C125.681 167.033 125.58 166.623 125.377 166.254C125.178 165.881 124.903 165.585 124.552 165.364C124.204 165.144 123.806 165.034 123.358 165.034C123.021 165.034 122.707 165.102 122.416 165.237C122.124 165.368 121.869 165.549 121.649 165.78C121.432 166.011 121.262 166.275 121.137 166.574C121.013 166.868 120.951 167.179 120.951 167.506C120.951 167.939 121.052 168.344 121.254 168.72C121.46 169.097 121.741 169.4 122.096 169.631C122.455 169.862 122.861 169.977 123.316 169.977ZM132.527 159.942C132.975 159.945 133.422 160.031 133.869 160.197C134.317 160.364 134.725 160.641 135.095 161.028C135.464 161.412 135.76 161.936 135.984 162.6C136.208 163.264 136.32 164.097 136.32 165.098C136.32 166.067 136.227 166.929 136.043 167.681C135.862 168.431 135.599 169.063 135.254 169.578C134.913 170.093 134.498 170.483 134.008 170.75C133.521 171.016 132.971 171.149 132.357 171.149C131.746 171.149 131.201 171.028 130.721 170.787C130.245 170.542 129.855 170.203 129.549 169.77C129.248 169.333 129.054 168.827 128.969 168.251H130.269C130.386 168.752 130.618 169.166 130.966 169.493C131.318 169.816 131.781 169.977 132.357 169.977C133.198 169.977 133.862 169.61 134.349 168.875C134.839 168.14 135.084 167.101 135.084 165.759H134.999C134.8 166.057 134.564 166.314 134.29 166.531C134.017 166.748 133.713 166.914 133.379 167.032C133.046 167.149 132.69 167.207 132.314 167.207C131.689 167.207 131.116 167.053 130.593 166.744C130.075 166.431 129.66 166.004 129.347 165.46C129.038 164.913 128.884 164.288 128.884 163.585C128.884 162.918 129.033 162.307 129.331 161.753C129.633 161.195 130.055 160.751 130.599 160.421C131.146 160.091 131.788 159.931 132.527 159.942ZM132.527 161.114C132.08 161.114 131.677 161.225 131.318 161.449C130.963 161.669 130.68 161.968 130.471 162.344C130.265 162.717 130.162 163.131 130.162 163.585C130.162 164.04 130.261 164.453 130.46 164.826C130.663 165.196 130.938 165.49 131.286 165.711C131.638 165.927 132.037 166.036 132.484 166.036C132.822 166.036 133.136 165.97 133.427 165.838C133.718 165.703 133.972 165.521 134.189 165.29C134.409 165.055 134.581 164.791 134.706 164.496C134.83 164.198 134.892 163.887 134.892 163.564C134.892 163.138 134.789 162.738 134.583 162.365C134.381 161.993 134.1 161.691 133.742 161.46C133.386 161.229 132.982 161.114 132.527 161.114ZM142.825 171V160.091H146.511C147.367 160.091 148.066 160.245 148.61 160.554C149.157 160.86 149.561 161.273 149.824 161.795C150.087 162.317 150.218 162.9 150.218 163.543C150.218 164.185 150.087 164.77 149.824 165.295C149.565 165.821 149.164 166.24 148.62 166.552C148.077 166.861 147.381 167.016 146.532 167.016H143.89V165.844H146.49C147.076 165.844 147.546 165.743 147.901 165.54C148.256 165.338 148.514 165.064 148.674 164.72C148.837 164.372 148.919 163.979 148.919 163.543C148.919 163.106 148.837 162.715 148.674 162.371C148.514 162.026 148.255 161.756 147.896 161.561C147.537 161.362 147.061 161.263 146.468 161.263H144.146V171H142.825ZM152.346 171V160.091H153.667V169.828H158.738V171H152.346ZM169.434 160.091V171H168.156L162.211 162.435H162.105V171H160.784V160.091H162.062L168.028 168.678H168.135V160.091H169.434Z"
     fill="black"
     id="path6" />
</svg>
