<svg width="380" height="360" viewBox="0 0 380 360" fill="none" xmlns="http://www.w3.org/2000/svg">
<rect width="380" height="360" rx="24" fill="white"/>
<path d="M41.6619 31.4347H38.4744C38.3835 30.9119 38.2159 30.4489 37.9716 30.0455C37.7273 29.6364 37.4233 29.2898 37.0597 29.0057C36.696 28.7216 36.2813 28.5085 35.8153 28.3665C35.3551 28.2188 34.858 28.1449 34.3239 28.1449C33.375 28.1449 32.5341 28.3835 31.8011 28.8608C31.0682 29.3324 30.4943 30.0256 30.0795 30.9403C29.6648 31.8494 29.4574 32.9602 29.4574 34.2727C29.4574 35.608 29.6648 36.733 30.0795 37.6477C30.5 38.5568 31.0739 39.2443 31.8011 39.7102C32.5341 40.1705 33.3722 40.4006 34.3153 40.4006C34.8381 40.4006 35.3267 40.3324 35.7812 40.196C36.2415 40.054 36.6534 39.8466 37.017 39.5739C37.3864 39.3011 37.696 38.9659 37.946 38.5682C38.2017 38.1705 38.3778 37.7159 38.4744 37.2045L41.6619 37.2216C41.5426 38.0511 41.2841 38.8295 40.8864 39.5568C40.4943 40.2841 39.9801 40.9261 39.3438 41.483C38.7074 42.0341 37.9631 42.4659 37.1108 42.7784C36.2585 43.0852 35.3125 43.2386 34.2727 43.2386C32.7386 43.2386 31.3693 42.8835 30.1648 42.1733C28.9602 41.4631 28.0114 40.4375 27.3182 39.0966C26.625 37.7557 26.2784 36.1477 26.2784 34.2727C26.2784 32.392 26.6278 30.7841 27.3267 29.4489C28.0256 28.108 28.9773 27.0824 30.1818 26.3722C31.3864 25.6619 32.75 25.3068 34.2727 25.3068C35.2443 25.3068 36.1477 25.4432 36.983 25.7159C37.8182 25.9886 38.5625 26.3892 39.2159 26.9176C39.8693 27.4403 40.4063 28.0824 40.8267 28.8438C41.2528 29.5994 41.5313 30.4631 41.6619 31.4347ZM49.4966 43.2557C48.1841 43.2557 47.0506 42.983 46.0961 42.4375C45.1472 41.8864 44.4171 41.108 43.9057 40.1023C43.3943 39.0909 43.1387 37.9006 43.1387 36.5312C43.1387 35.1847 43.3943 34.0028 43.9057 32.9858C44.4228 31.9631 45.1443 31.1676 46.0705 30.5994C46.9966 30.0256 48.0847 29.7386 49.3347 29.7386C50.1415 29.7386 50.9029 29.8693 51.6188 30.1307C52.3404 30.3864 52.9767 30.7841 53.5279 31.3239C54.0847 31.8636 54.5222 32.5511 54.8404 33.3864C55.1586 34.2159 55.3176 35.2045 55.3176 36.3523V37.2983H44.5875V35.2188H52.3603C52.3546 34.6278 52.2267 34.1023 51.9767 33.642C51.7267 33.1761 51.3773 32.8097 50.9284 32.5426C50.4853 32.2756 49.9682 32.142 49.3773 32.142C48.7466 32.142 48.1926 32.2955 47.7154 32.6023C47.2381 32.9034 46.8659 33.3011 46.5989 33.7955C46.3375 34.2841 46.204 34.821 46.1983 35.4062V37.2216C46.1983 37.983 46.3375 38.6364 46.6159 39.1818C46.8943 39.7216 47.2836 40.1364 47.7836 40.4261C48.2836 40.7102 48.8688 40.8523 49.5392 40.8523C49.9881 40.8523 50.3943 40.7898 50.758 40.6648C51.1216 40.5341 51.437 40.3438 51.704 40.0938C51.9711 39.8438 52.1728 39.5341 52.3091 39.1648L55.1898 39.4886C55.008 40.25 54.6614 40.9148 54.15 41.483C53.6443 42.0455 52.9966 42.483 52.2068 42.7955C51.4171 43.1023 50.5137 43.2557 49.4966 43.2557ZM60.293 25.5455V43H57.2077V25.5455H60.293ZM68.541 43.2557C67.2285 43.2557 66.095 42.983 65.1404 42.4375C64.1916 41.8864 63.4614 41.108 62.9501 40.1023C62.4387 39.0909 62.183 37.9006 62.183 36.5312C62.183 35.1847 62.4387 34.0028 62.9501 32.9858C63.4671 31.9631 64.1887 31.1676 65.1149 30.5994C66.041 30.0256 67.1291 29.7386 68.3791 29.7386C69.1859 29.7386 69.9472 29.8693 70.6632 30.1307C71.3847 30.3864 72.0211 30.7841 72.5722 31.3239C73.1291 31.8636 73.5666 32.5511 73.8847 33.3864C74.2029 34.2159 74.362 35.2045 74.362 36.3523V37.2983H63.6319V35.2188H71.4046C71.3989 34.6278 71.2711 34.1023 71.0211 33.642C70.7711 33.1761 70.4217 32.8097 69.9728 32.5426C69.5296 32.2756 69.0126 32.142 68.4217 32.142C67.791 32.142 67.237 32.2955 66.7597 32.6023C66.2825 32.9034 65.9103 33.3011 65.6433 33.7955C65.3819 34.2841 65.2484 34.821 65.2427 35.4062V37.2216C65.2427 37.983 65.3819 38.6364 65.6603 39.1818C65.9387 39.7216 66.3279 40.1364 66.8279 40.4261C67.3279 40.7102 67.9132 40.8523 68.5836 40.8523C69.0325 40.8523 69.4387 40.7898 69.8024 40.6648C70.166 40.5341 70.4813 40.3438 70.7484 40.0938C71.0154 39.8438 71.2171 39.5341 71.3535 39.1648L74.2342 39.4886C74.0524 40.25 73.7058 40.9148 73.1944 41.483C72.6887 42.0455 72.041 42.483 71.2512 42.7955C70.4614 43.1023 69.558 43.2557 68.541 43.2557Z" fill="#1D1D1F"/>
<rect x="25" y="136" width="331" height="57" rx="10" fill="#D9D9D9"/>
<rect x="35" y="146" width="38" height="38" rx="5" fill="#B2B2B2"/>
<rect x="25" y="202" width="331" height="58" rx="10" fill="#D9D9D9"/>
<rect x="35" y="212" width="38" height="38" rx="5" fill="#B2B2B2"/>
<rect x="25" y="69" width="331" height="58" rx="15" fill="#D9D9D9"/>
<rect x="35" y="79" width="38" height="38" rx="5" fill="#B2B2B2"/>
<rect x="102" y="285" width="175" height="50" rx="18" fill="#F39CA2" fill-opacity="0.15"/>
<path d="M126.099 317V315.683L132.984 305.609H126.042V303.909H135.4V305.226L128.516 315.3H135.457V317H126.099ZM140.638 317.217C140.016 317.217 139.453 317.102 138.951 316.872C138.448 316.638 138.049 316.299 137.755 315.856C137.466 315.413 137.321 314.869 137.321 314.226C137.321 313.672 137.427 313.216 137.64 312.858C137.853 312.5 138.141 312.217 138.503 312.008C138.865 311.799 139.27 311.641 139.718 311.535C140.165 311.428 140.621 311.347 141.086 311.292C141.674 311.224 142.151 311.168 142.517 311.126C142.884 311.079 143.15 311.004 143.316 310.902C143.483 310.8 143.566 310.634 143.566 310.403V310.359C143.566 309.8 143.408 309.368 143.093 309.061C142.782 308.754 142.317 308.601 141.699 308.601C141.056 308.601 140.549 308.744 140.178 309.029C139.811 309.31 139.558 309.624 139.417 309.969L137.621 309.56C137.834 308.963 138.145 308.482 138.554 308.115C138.968 307.744 139.443 307.476 139.98 307.31C140.517 307.139 141.081 307.054 141.674 307.054C142.066 307.054 142.481 307.101 142.92 307.195C143.363 307.284 143.777 307.45 144.16 307.693C144.548 307.936 144.865 308.283 145.113 308.735C145.36 309.183 145.483 309.764 145.483 310.48V317H143.617V315.658H143.54C143.417 315.905 143.231 316.148 142.984 316.386C142.737 316.625 142.419 316.823 142.032 316.981C141.644 317.138 141.179 317.217 140.638 317.217ZM141.054 315.683C141.582 315.683 142.034 315.579 142.409 315.37C142.788 315.161 143.076 314.888 143.272 314.552C143.472 314.211 143.572 313.847 143.572 313.459V312.193C143.504 312.261 143.372 312.325 143.176 312.385C142.984 312.44 142.765 312.489 142.517 312.532C142.27 312.57 142.029 312.607 141.795 312.641C141.561 312.67 141.365 312.696 141.207 312.717C140.836 312.764 140.498 312.843 140.191 312.954C139.888 313.065 139.645 313.224 139.462 313.433C139.283 313.638 139.194 313.911 139.194 314.251C139.194 314.724 139.368 315.082 139.718 315.325C140.067 315.564 140.512 315.683 141.054 315.683ZM151.282 308.703V309.956L146.68 311.599V310.346L151.282 308.703ZM149.94 303.909V317H148.029V303.909H149.94ZM156.647 317.198C155.727 317.198 154.923 316.987 154.237 316.565C153.551 316.143 153.018 315.553 152.639 314.795C152.26 314.036 152.07 313.15 152.07 312.136C152.07 311.117 152.26 310.227 152.639 309.464C153.018 308.701 153.551 308.109 154.237 307.687C154.923 307.265 155.727 307.054 156.647 307.054C157.567 307.054 158.371 307.265 159.057 307.687C159.743 308.109 160.276 308.701 160.655 309.464C161.034 310.227 161.224 311.117 161.224 312.136C161.224 313.15 161.034 314.036 160.655 314.795C160.276 315.553 159.743 316.143 159.057 316.565C158.371 316.987 157.567 317.198 156.647 317.198ZM156.653 315.594C157.25 315.594 157.744 315.436 158.136 315.121C158.528 314.805 158.818 314.386 159.006 313.862C159.197 313.337 159.293 312.76 159.293 312.129C159.293 311.503 159.197 310.928 159.006 310.403C158.818 309.875 158.528 309.451 158.136 309.131C157.744 308.812 157.25 308.652 156.653 308.652C156.053 308.652 155.554 308.812 155.158 309.131C154.766 309.451 154.474 309.875 154.282 310.403C154.094 310.928 154.001 311.503 154.001 312.129C154.001 312.76 154.094 313.337 154.282 313.862C154.474 314.386 154.766 314.805 155.158 315.121C155.554 315.436 156.053 315.594 156.653 315.594ZM155.861 305.871L157.357 302.925H159.37L157.388 305.871H155.861ZM163.153 317V315.69L168.471 308.933V308.844H163.325V307.182H170.855V308.575L165.741 315.249V315.338H171.034V317H163.153ZM167.026 305.667C166.694 305.667 166.408 305.556 166.17 305.335C165.935 305.109 165.818 304.84 165.818 304.529C165.818 304.214 165.935 303.945 166.17 303.724C166.408 303.498 166.694 303.385 167.026 303.385C167.358 303.385 167.642 303.498 167.876 303.724C168.115 303.945 168.234 304.214 168.234 304.529C168.234 304.84 168.115 305.109 167.876 305.335C167.642 305.556 167.358 305.667 167.026 305.667ZM179.964 311.17V317H178.052V307.182H179.887V308.78H180.008C180.234 308.26 180.588 307.842 181.069 307.527C181.555 307.212 182.167 307.054 182.904 307.054C183.573 307.054 184.159 307.195 184.662 307.476C185.165 307.753 185.555 308.166 185.831 308.716C186.108 309.266 186.247 309.945 186.247 310.755V317H184.336V310.985C184.336 310.273 184.15 309.717 183.78 309.317C183.409 308.912 182.9 308.71 182.252 308.71C181.809 308.71 181.415 308.805 181.069 308.997C180.729 309.189 180.458 309.47 180.258 309.841C180.062 310.207 179.964 310.651 179.964 311.17ZM192.946 317.198C192.025 317.198 191.222 316.987 190.536 316.565C189.85 316.143 189.317 315.553 188.938 314.795C188.559 314.036 188.369 313.15 188.369 312.136C188.369 311.117 188.559 310.227 188.938 309.464C189.317 308.701 189.85 308.109 190.536 307.687C191.222 307.265 192.025 307.054 192.946 307.054C193.866 307.054 194.67 307.265 195.356 307.687C196.042 308.109 196.574 308.701 196.954 309.464C197.333 310.227 197.523 311.117 197.523 312.136C197.523 313.15 197.333 314.036 196.954 314.795C196.574 315.553 196.042 316.143 195.356 316.565C194.67 316.987 193.866 317.198 192.946 317.198ZM192.952 315.594C193.549 315.594 194.043 315.436 194.435 315.121C194.827 314.805 195.117 314.386 195.305 313.862C195.496 313.337 195.592 312.76 195.592 312.129C195.592 311.503 195.496 310.928 195.305 310.403C195.117 309.875 194.827 309.451 194.435 309.131C194.043 308.812 193.549 308.652 192.952 308.652C192.351 308.652 191.853 308.812 191.456 309.131C191.064 309.451 190.773 309.875 190.581 310.403C190.393 310.928 190.3 311.503 190.3 312.129C190.3 312.76 190.393 313.337 190.581 313.862C190.773 314.386 191.064 314.805 191.456 315.121C191.853 315.436 192.351 315.594 192.952 315.594ZM201.486 317L198.596 307.182H200.572L202.496 314.392H202.591L204.522 307.182H206.497L208.415 314.36H208.51L210.422 307.182H212.397L209.514 317H207.564L205.57 309.911H205.423L203.429 317H201.486ZM215.419 320.682C215.133 320.682 214.873 320.658 214.639 320.612C214.404 320.569 214.23 320.522 214.115 320.471L214.575 318.905C214.924 318.999 215.235 319.039 215.508 319.026C215.781 319.013 216.022 318.911 216.23 318.719C216.444 318.528 216.631 318.214 216.793 317.78L217.029 317.128L213.437 307.182H215.483L217.969 314.801H218.071L220.558 307.182H222.61L218.564 318.31C218.376 318.822 218.137 319.254 217.848 319.608C217.558 319.966 217.213 320.234 216.812 320.413C216.412 320.592 215.947 320.682 215.419 320.682ZM233.305 317.198C232.355 317.198 231.537 316.983 230.851 316.553C230.169 316.118 229.645 315.519 229.278 314.756C228.912 313.994 228.729 313.12 228.729 312.136C228.729 311.138 228.916 310.259 229.291 309.496C229.666 308.729 230.194 308.13 230.876 307.7C231.558 307.269 232.361 307.054 233.286 307.054C234.032 307.054 234.697 307.192 235.28 307.469C235.864 307.742 236.335 308.126 236.693 308.62C237.055 309.114 237.27 309.692 237.339 310.352H235.479C235.376 309.892 235.142 309.496 234.775 309.163C234.413 308.831 233.927 308.665 233.318 308.665C232.785 308.665 232.319 308.805 231.918 309.087C231.522 309.364 231.213 309.76 230.991 310.276C230.77 310.787 230.659 311.392 230.659 312.091C230.659 312.807 230.768 313.425 230.985 313.945C231.202 314.464 231.509 314.867 231.905 315.153C232.306 315.438 232.777 315.581 233.318 315.581C233.68 315.581 234.008 315.515 234.302 315.383C234.601 315.246 234.85 315.053 235.05 314.801C235.255 314.55 235.398 314.247 235.479 313.893H237.339C237.27 314.528 237.064 315.095 236.719 315.594C236.373 316.092 235.911 316.484 235.331 316.77C234.756 317.055 234.081 317.198 233.305 317.198ZM243.614 317.198C242.647 317.198 241.814 316.991 241.115 316.578C240.42 316.161 239.883 315.575 239.504 314.82C239.129 314.062 238.941 313.173 238.941 312.155C238.941 311.149 239.129 310.263 239.504 309.496C239.883 308.729 240.412 308.13 241.089 307.7C241.771 307.269 242.568 307.054 243.48 307.054C244.034 307.054 244.571 307.146 245.091 307.329C245.61 307.512 246.077 307.8 246.49 308.192C246.904 308.584 247.23 309.093 247.468 309.719C247.707 310.342 247.826 311.098 247.826 311.989V312.666H240.022V311.234H245.953C245.953 310.732 245.851 310.286 245.647 309.898C245.442 309.506 245.154 309.197 244.784 308.972C244.417 308.746 243.987 308.633 243.493 308.633C242.956 308.633 242.487 308.765 242.086 309.029C241.69 309.289 241.383 309.63 241.166 310.052C240.953 310.469 240.846 310.923 240.846 311.413V312.532C240.846 313.188 240.961 313.746 241.191 314.207C241.426 314.667 241.752 315.018 242.169 315.261C242.587 315.5 243.075 315.619 243.633 315.619C243.995 315.619 244.326 315.568 244.624 315.466C244.922 315.359 245.18 315.202 245.397 314.993C245.615 314.784 245.781 314.526 245.896 314.219L247.705 314.545C247.56 315.078 247.3 315.545 246.925 315.945C246.554 316.342 246.088 316.651 245.525 316.872C244.967 317.089 244.33 317.198 243.614 317.198ZM251.858 303.909V317H249.947V303.909H251.858Z" fill="#F73B20"/>
<line x1="195.5" y1="360" x2="195.5" y2="335" stroke="white"/>
</svg>
