<?xml version="1.0" encoding="UTF-8" standalone="no"?>
<svg
   width="623"
   height="637"
   viewBox="0 0 623 637"
   fill="none"
   version="1.1"
   id="svg74"
   sodipodi:docname="Login-Register-illustration.svg"
   inkscape:export-filename="Login-Register-illustration.svg"
   inkscape:export-xdpi="96"
   inkscape:export-ydpi="96"
   inkscape:version="1.4.2 (f4327f4, 2025-05-13)"
   xmlns:inkscape="http://www.inkscape.org/namespaces/inkscape"
   xmlns:sodipodi="http://sodipodi.sourceforge.net/DTD/sodipodi-0.dtd"
   xmlns="http://www.w3.org/2000/svg"
   xmlns:svg="http://www.w3.org/2000/svg">
  <sodipodi:namedview
     id="namedview74"
     pagecolor="#ffffff"
     bordercolor="#000000"
     borderopacity="0.25"
     inkscape:showpageshadow="2"
     inkscape:pageopacity="0.0"
     inkscape:pagecheckerboard="0"
     inkscape:deskcolor="#d1d1d1"
     inkscape:zoom="0.70710678"
     inkscape:cx="304.05591"
     inkscape:cy="382.54477"
     inkscape:window-width="1920"
     inkscape:window-height="974"
     inkscape:window-x="-11"
     inkscape:window-y="-11"
     inkscape:window-maximized="1"
     inkscape:current-layer="g23" />
  <g
     id="g74"
     transform="translate(-126.46234,-177.00099)">
    <rect
       x="126.461"
       y="177.008"
       width="623"
       height="637"
       rx="32"
       fill="url(#paint0_linear_188_539)"
       id="rect1"
       style="fill:url(#paint0_linear_188_539)" />
    <g
       opacity="0.53"
       filter="url(#filter0_d_188_539)"
       id="g23">
      <path
         d="m 90.1919,365.935 v 0 c 40.6301,-10.887 82.3941,13.225 93.2811,53.855 l 38.342,143.095 v 0 c -40.631,10.887 -82.394,-13.225 -93.281,-53.856 z"
         fill="url(#paint1_linear_188_539)"
         id="path1"
         style="fill:url(#paint1_linear_188_539)" />
      <path
         d="m 353.841,759.726 v 0 c 40.631,-10.887 82.394,13.225 93.281,53.856 l 38.342,143.094 v 0 C 444.833,967.563 403.07,943.451 392.183,902.82 Z"
         fill="url(#paint2_linear_188_539)"
         id="path2"
         style="fill:url(#paint2_linear_188_539)" />
      <path
         d="m 148.627,225.07 v 0 c 40.854,-10.947 82.847,13.298 93.794,54.152 l 38.233,142.69 v 0 c -40.853,10.946 -82.846,-13.298 -93.793,-54.152 z"
         fill="url(#paint3_linear_188_539)"
         id="path3"
         style="fill:url(#paint3_linear_188_539)" />
      <path
         d="m 128.88645,197.3845 v 0 c 6.10842,-1.6636 12.38714,2.02089 14.02384,8.22958 l 5.71671,21.68499 v 0 c -6.10846,1.66364 -12.38714,-2.02093 -14.02388,-8.22964 z"
         fill="url(#paint4_linear_188_539)"
         id="path4"
         style="fill:url(#paint4_linear_188_539);stroke-width:0.150741" />
      <path
         d="m 280.654,421.912 v 0 c 40.631,-10.887 82.394,13.225 93.281,53.855 l 38.342,143.094 v 0 c -40.631,10.887 -82.394,-13.225 -93.281,-53.855 z"
         fill="url(#paint5_linear_188_539)"
         id="path5"
         style="fill:url(#paint5_linear_188_539)" />
      <path
         d="m 412.277,618.861 v 0 c 40.63,-10.887 82.394,13.225 93.281,53.856 L 543.9,815.811 v 0 c -40.631,10.887 -82.394,-13.225 -93.281,-53.855 z"
         fill="url(#paint6_linear_188_539)"
         id="path6"
         style="fill:url(#paint6_linear_188_539)" />
      <path
         d="m 607.288,691.815 v 0 c 40.631,-10.886 82.394,13.225 93.281,53.856 l 38.342,143.094 v 0 C 698.28,899.652 656.517,875.54 645.63,834.91 Z"
         fill="url(#paint7_linear_188_539)"
         id="path7"
         style="fill:url(#paint7_linear_188_539)" />
      <path
         d="m 155.192,687.747 v 0 c 40.631,-10.887 82.394,13.225 93.281,53.855 l 38.342,143.095 v 0 c -40.631,10.887 -82.394,-13.225 -93.281,-53.856 z"
         fill="url(#paint8_linear_188_539)"
         id="path8"
         style="fill:url(#paint8_linear_188_539)" />
      <path
         d="m 23.5698,490.797 v 0 c 40.6306,-10.887 82.3942,13.225 93.2812,53.856 l 38.342,143.094 v 0 C 114.562,698.634 72.7987,674.522 61.9118,633.891 Z"
         fill="url(#paint9_linear_188_539)"
         id="path9"
         style="fill:url(#paint9_linear_188_539)" />
      <path
         d="m 343.638,298.024 v 0 c 40.631,-10.887 82.394,13.225 93.281,53.856 l 38.342,143.094 v 0 C 434.63,505.861 392.867,481.749 381.98,441.118 Z"
         fill="url(#paint10_linear_188_539)"
         id="path10"
         style="fill:url(#paint10_linear_188_539)" />
      <path
         d="m 212.016,101.074 v 0 c 40.63,-10.8867 82.393,13.225 93.28,53.856 l 38.342,143.094 v 0 c -40.63,10.887 -82.393,-13.225 -93.28,-53.856 z"
         fill="url(#paint11_linear_188_539)"
         id="path11"
         style="fill:url(#paint11_linear_188_539)" />
      <path
         d="m 475.261,494.974 v 0 c 40.854,-10.947 82.847,13.298 93.793,54.151 l 38.234,142.69 v 0 c -40.854,10.947 -82.846,-13.297 -93.793,-54.151 z"
         fill="url(#paint12_linear_188_539)"
         id="path12"
         style="fill:url(#paint12_linear_188_539)" />
      <path
         d="m 402.074,157.159 v 0 c 40.854,-10.946 82.846,13.298 93.793,54.152 l 38.234,142.69 v 0 c -40.854,10.947 -82.847,-13.298 -93.794,-54.152 z"
         fill="url(#paint13_linear_188_539)"
         id="path13"
         style="fill:url(#paint13_linear_188_539)" />
      <path
         d="m 534.101,354.001 v 0 c 40.63,-10.887 82.393,13.225 93.28,53.855 l 38.342,143.095 v 0 c -40.63,10.886 -82.394,-13.226 -93.28,-53.856 z"
         fill="url(#paint14_linear_188_539)"
         id="path14"
         style="fill:url(#paint14_linear_188_539)" />
      <path
         d="m 665.723,550.951 v 0 c 40.631,-10.887 82.394,13.225 93.281,53.855 L 797.346,747.9 v 0 c -40.631,10.887 -82.394,-13.225 -93.281,-53.855 z"
         fill="url(#paint15_linear_188_539)"
         id="path15"
         style="fill:url(#paint15_linear_188_539)" />
      <path
         d="m 597.085,230.113 v 0 c 40.631,-10.887 82.394,13.225 93.281,53.856 l 38.342,143.094 v 0 c -40.631,10.887 -82.394,-13.225 -93.281,-53.856 z"
         fill="url(#paint16_linear_188_539)"
         id="path16"
         style="fill:url(#paint16_linear_188_539)" />
      <path
         d="m 465.812,33.2493 v 0 c 40.631,-10.887 82.394,13.225 93.281,53.8556 l 38.342,143.0941 v 0 c -40.63,10.887 -82.394,-13.225 -93.281,-53.856 z"
         fill="url(#paint17_linear_188_539)"
         id="path17"
         style="fill:url(#paint17_linear_188_539)" />
      <path
         d="m 728.708,427.063 v 0 c 40.853,-10.947 82.846,13.298 93.793,54.152 l 38.233,142.69 v 0 c -40.853,10.946 -82.846,-13.298 -93.793,-54.152 z"
         fill="url(#paint18_linear_188_539)"
         id="path18"
         style="fill:url(#paint18_linear_188_539)" />
      <path
         d="m 860.734,623.905 v 0 c 40.631,-10.887 82.394,13.225 93.281,53.855 l 38.342,143.094 v 0 c -40.631,10.887 -82.394,-13.225 -93.281,-53.855 z"
         fill="url(#paint19_linear_188_539)"
         id="path19"
         style="fill:url(#paint19_linear_188_539)" />
      <path
         d="m 655.52,89.2485 v 0 c 40.854,-10.9467 50.49931,97.3372 94.8561,122.10452 L 787.547,286.09 v 0 C 746.693,297.037 704.7,272.792 693.754,231.938 Z"
         fill="url(#paint20_linear_188_539)"
         id="path20"
         style="fill:url(#paint20_linear_188_539)"
         sodipodi:nodetypes="csccscc" />
      <path
         d="m 787.547,286.09 v 0 c 40.63,-10.887 82.394,13.225 93.281,53.856 L 919.17,483.04 v 0 c -40.631,10.887 -82.394,-13.225 -93.281,-53.856 z"
         fill="url(#paint21_linear_188_539)"
         id="path21"
         style="fill:url(#paint21_linear_188_539)" />
      <path
         d="m 850.531,162.203 v 0 c 40.631,-10.887 82.394,13.225 93.281,53.855 l 38.342,143.094 v 0 c -40.631,10.887 -82.394,-13.225 -93.281,-53.855 z"
         fill="url(#paint22_linear_188_539)"
         id="path22"
         style="fill:url(#paint22_linear_188_539)" />
      <path
         d="m 221.815,562.885 v 0 c 40.854,-10.947 82.846,13.297 93.793,54.151 l 38.234,142.69 v 0 c -40.854,10.947 -82.847,-13.297 -93.793,-54.151 z"
         fill="url(#paint23_linear_188_539)"
         id="path23"
         style="fill:url(#paint23_linear_188_539)" />
    </g>
    <line
       opacity="0.21"
       x1="171.461"
       y1="372.008"
       x2="704.461"
       y2="372.008"
       stroke="#ffffff"
       stroke-width="2"
       id="line23" />
    <path
       d="m 194.061,250.488 c 0,3.44 -1,6 -3,7.68 -2,1.653 -4.666,2.48 -8,2.48 -3.146,0 -5.693,-0.84 -7.64,-2.52 -1.946,-1.68 -3.093,-4.16 -3.44,-7.44 -0.053,-0.747 -0.066,-1.227 -0.04,-1.44 l 5.76,-0.52 v 0.64 c 0,0.32 0.014,0.56 0.04,0.72 0.214,1.947 0.76,3.373 1.64,4.28 0.907,0.907 2.134,1.36 3.68,1.36 1.627,0 2.854,-0.453 3.68,-1.36 0.827,-0.907 1.24,-2.333 1.24,-4.28 v -18.64 h 6.08 z m 22.942,3.24 c -0.507,1.84 -1.6,3.427 -3.28,4.76 -1.68,1.333 -4.04,2 -7.08,2 -2.16,0 -4.04,-0.44 -5.64,-1.32 -1.6,-0.907 -2.827,-2.187 -3.68,-3.84 -0.853,-1.68 -1.28,-3.64 -1.28,-5.88 0,-2.267 0.413,-4.227 1.24,-5.88 0.853,-1.68 2.067,-2.973 3.64,-3.88 1.6,-0.907 3.493,-1.36 5.68,-1.36 2.107,0 3.96,0.427 5.56,1.28 1.6,0.853 2.84,2.12 3.72,3.8 0.88,1.653 1.32,3.64 1.32,5.96 0,0.533 -0.013,0.947 -0.04,1.24 h -15.44 c 0.053,1.787 0.52,3.227 1.4,4.32 0.88,1.067 2.053,1.6 3.52,1.6 1.387,0 2.44,-0.32 3.16,-0.96 0.72,-0.667 1.213,-1.44 1.48,-2.32 z m -10.4,-11.48 c -1.413,0 -2.547,0.453 -3.4,1.36 -0.827,0.907 -1.293,2.04 -1.4,3.4 h 9.64 c -0.107,-1.387 -0.587,-2.52 -1.44,-3.4 -0.827,-0.907 -1.96,-1.36 -3.4,-1.36 z m 21.17,-3.92 c 1.466,0 2.733,0.267 3.8,0.8 1.093,0.507 1.946,1.227 2.56,2.16 h 0.16 v -10.24 h 5.6 v 28.96 h -5.36 v -2.76 h -0.16 c -0.614,1.093 -1.494,1.907 -2.64,2.44 -1.12,0.533 -2.4,0.8 -3.84,0.8 -1.787,0 -3.387,-0.453 -4.8,-1.36 -1.414,-0.907 -2.52,-2.187 -3.32,-3.84 -0.8,-1.68 -1.2,-3.627 -1.2,-5.84 0,-2.213 0.386,-4.16 1.16,-5.84 0.8,-1.707 1.893,-3.013 3.28,-3.92 1.413,-0.907 3,-1.36 4.76,-1.36 z m 1.68,17.88 c 1.6,0 2.853,-0.573 3.76,-1.72 0.933,-1.173 1.4,-2.853 1.4,-5.04 0,-2.187 -0.467,-3.867 -1.4,-5.04 -0.907,-1.2 -2.16,-1.8 -3.76,-1.8 -1.6,0 -2.867,0.587 -3.8,1.76 -0.934,1.173 -1.4,2.867 -1.4,5.08 0,2.187 0.466,3.867 1.4,5.04 0.933,1.147 2.2,1.72 3.8,1.72 z m 18.276,-14.56 c 1.574,-2.213 3.8,-3.32 6.68,-3.32 2.16,0 3.934,0.653 5.32,1.96 1.414,1.307 2.12,3.227 2.12,5.76 v 13.96 h -5.6 v -12.52 c 0,-1.653 -0.333,-2.84 -1,-3.56 -0.64,-0.72 -1.626,-1.08 -2.96,-1.08 -1.253,0 -2.32,0.493 -3.2,1.48 -0.853,0.96 -1.28,2.347 -1.28,4.16 v 11.52 h -5.6 v -21.16 h 5.36 v 2.8 z m 30.384,18.36 c -0.187,-0.213 -0.333,-0.573 -0.44,-1.08 -0.107,-0.533 -0.16,-1.16 -0.16,-1.88 -0.587,1.093 -1.533,1.947 -2.84,2.56 -1.28,0.587 -2.667,0.88 -4.16,0.88 -1.253,0 -2.427,-0.253 -3.52,-0.76 -1.067,-0.507 -1.933,-1.227 -2.6,-2.16 -0.64,-0.96 -0.96,-2.08 -0.96,-3.36 0,-2.16 0.733,-3.76 2.2,-4.8 1.467,-1.04 3.667,-1.733 6.6,-2.08 2.027,-0.267 3.4,-0.56 4.12,-0.88 0.747,-0.347 1.12,-0.853 1.12,-1.52 0,-0.8 -0.307,-1.427 -0.92,-1.88 -0.613,-0.48 -1.533,-0.72 -2.76,-0.72 -1.013,0 -1.92,0.267 -2.72,0.8 -0.773,0.533 -1.32,1.32 -1.64,2.36 l -5.16,-0.8 c 0.453,-1.973 1.547,-3.52 3.28,-4.64 1.733,-1.147 3.853,-1.72 6.36,-1.72 3.067,0 5.36,0.613 6.88,1.84 1.52,1.227 2.28,2.893 2.28,5 v 10.6 c 0,1.227 0.027,2.147 0.08,2.76 0.08,0.587 0.24,1.08 0.48,1.48 z m -0.64,-10.44 c -0.32,0.267 -0.867,0.493 -1.64,0.68 -0.747,0.16 -1.733,0.32 -2.96,0.48 -1.12,0.187 -2.027,0.547 -2.72,1.08 -0.667,0.507 -1,1.227 -1,2.16 0,0.853 0.267,1.52 0.8,2 0.56,0.453 1.32,0.68 2.28,0.68 0.827,0 1.64,-0.173 2.44,-0.52 0.8,-0.347 1.467,-0.88 2,-1.6 0.533,-0.747 0.8,-1.667 0.8,-2.76 z m 29.098,10.44 c -0.187,-0.213 -0.334,-0.573 -0.44,-1.08 -0.107,-0.533 -0.16,-1.16 -0.16,-1.88 -0.587,1.093 -1.534,1.947 -2.84,2.56 -1.28,0.587 -2.667,0.88 -4.16,0.88 -1.254,0 -2.427,-0.253 -3.52,-0.76 -1.067,-0.507 -1.934,-1.227 -2.6,-2.16 -0.64,-0.96 -0.96,-2.08 -0.96,-3.36 0,-2.16 0.733,-3.76 2.2,-4.8 1.466,-1.04 3.666,-1.733 6.6,-2.08 2.026,-0.267 3.4,-0.56 4.12,-0.88 0.746,-0.347 1.12,-0.853 1.12,-1.52 0,-0.8 -0.307,-1.427 -0.92,-1.88 -0.614,-0.48 -1.534,-0.72 -2.76,-0.72 -1.014,0 -1.92,0.267 -2.72,0.8 -0.774,0.533 -1.32,1.32 -1.64,2.36 l -5.16,-0.8 c 0.453,-1.973 1.546,-3.52 3.28,-4.64 1.733,-1.147 3.853,-1.72 6.36,-1.72 3.066,0 5.36,0.613 6.88,1.84 1.52,1.227 2.28,2.893 2.28,5 v 10.6 c 0,1.227 0.026,2.147 0.08,2.76 0.08,0.587 0.24,1.08 0.48,1.48 z m -0.64,-10.44 c -0.32,0.267 -0.867,0.493 -1.64,0.68 -0.747,0.16 -1.734,0.32 -2.96,0.48 -1.12,0.187 -2.027,0.547 -2.72,1.08 -0.667,0.507 -1,1.227 -1,2.16 0,0.853 0.266,1.52 0.8,2 0.56,0.453 1.32,0.68 2.28,0.68 0.826,0 1.64,-0.173 2.44,-0.52 0.8,-0.347 1.466,-0.88 2,-1.6 0.533,-0.747 0.8,-1.667 0.8,-2.76 z m 20,10.92 c -1.466,0 -2.733,-0.253 -3.8,-0.76 -1.066,-0.507 -1.906,-1.24 -2.52,-2.2 h -0.16 v 9.84 h -5.6 v -28.52 h 5.32 v 2.76 h 0.16 c 0.64,-1.12 1.52,-1.947 2.64,-2.48 1.12,-0.533 2.414,-0.8 3.88,-0.8 1.787,0 3.387,0.453 4.8,1.36 1.414,0.907 2.52,2.2 3.32,3.88 0.8,1.68 1.2,3.627 1.2,5.84 0,2.213 -0.4,4.16 -1.2,5.84 -0.8,1.68 -1.906,2.973 -3.32,3.88 -1.386,0.907 -2.96,1.36 -4.72,1.36 z m -1.64,-17.88 c -1.6,0 -2.866,0.587 -3.8,1.76 -0.906,1.173 -1.36,2.853 -1.36,5.04 0,2.187 0.454,3.867 1.36,5.04 0.934,1.173 2.2,1.76 3.8,1.76 1.6,0 2.854,-0.573 3.76,-1.72 0.934,-1.173 1.4,-2.867 1.4,-5.08 0,-2.187 -0.466,-3.867 -1.4,-5.04 -0.906,-1.173 -2.16,-1.76 -3.76,-1.76 z m 18.433,-11.56 v 28.96 h -5.6 v -28.96 z m 8.077,7.8 v 21.16 h -5.6 v -21.16 z m 0,-7.8 v 4.8 h -5.6 v -4.8 z m 8.036,28.96 h -5.6 v -28.96 h 5.6 v 16 l 7.64,-8.2 h 6.44 l -7.92,8.12 8.84,13.04 h -6.52 l -6.12,-9.32 -2.36,2.44 z m 29.249,0 c -0.186,-0.213 -0.333,-0.573 -0.44,-1.08 -0.106,-0.533 -0.16,-1.16 -0.16,-1.88 -0.586,1.093 -1.533,1.947 -2.84,2.56 -1.28,0.587 -2.666,0.88 -4.16,0.88 -1.253,0 -2.426,-0.253 -3.52,-0.76 -1.066,-0.507 -1.933,-1.227 -2.6,-2.16 -0.64,-0.96 -0.96,-2.08 -0.96,-3.36 0,-2.16 0.734,-3.76 2.2,-4.8 1.467,-1.04 3.667,-1.733 6.6,-2.08 2.027,-0.267 3.4,-0.56 4.12,-0.88 0.747,-0.347 1.12,-0.853 1.12,-1.52 0,-0.8 -0.306,-1.427 -0.92,-1.88 -0.613,-0.48 -1.533,-0.72 -2.76,-0.72 -1.013,0 -1.92,0.267 -2.72,0.8 -0.773,0.533 -1.32,1.32 -1.64,2.36 l -5.16,-0.8 c 0.454,-1.973 1.547,-3.52 3.28,-4.64 1.734,-1.147 3.854,-1.72 6.36,-1.72 3.067,0 5.36,0.613 6.88,1.84 1.52,1.227 2.28,2.893 2.28,5 v 10.6 c 0,1.227 0.027,2.147 0.08,2.76 0.08,0.587 0.24,1.08 0.48,1.48 z m -0.64,-10.44 c -0.32,0.267 -0.866,0.493 -1.64,0.68 -0.746,0.16 -1.733,0.32 -2.96,0.48 -1.12,0.187 -2.026,0.547 -2.72,1.08 -0.666,0.507 -1,1.227 -1,2.16 0,0.853 0.267,1.52 0.8,2 0.56,0.453 1.32,0.68 2.28,0.68 0.827,0 1.64,-0.173 2.44,-0.52 0.8,-0.347 1.467,-0.88 2,-1.6 0.534,-0.747 0.8,-1.667 0.8,-2.76 z m 17.961,6.76 c 2.4,0 3.947,-1.373 4.64,-4.12 l 5.64,0.64 c -0.533,2.107 -1.627,3.907 -3.28,5.4 -1.653,1.493 -3.987,2.24 -7,2.24 -2.16,0 -4.04,-0.44 -5.64,-1.32 -1.6,-0.907 -2.827,-2.187 -3.68,-3.84 -0.853,-1.68 -1.28,-3.64 -1.28,-5.88 0,-2.24 0.427,-4.2 1.28,-5.88 0.853,-1.68 2.08,-2.973 3.68,-3.88 1.6,-0.907 3.48,-1.36 5.64,-1.36 2.933,0 5.2,0.693 6.8,2.08 1.6,1.387 2.653,2.92 3.16,4.6 l -5.44,1.24 c -0.773,-2.48 -2.28,-3.72 -4.52,-3.72 -1.52,0 -2.72,0.6 -3.6,1.8 -0.88,1.173 -1.32,2.88 -1.32,5.12 0,2.213 0.44,3.92 1.32,5.12 0.88,1.173 2.08,1.76 3.6,1.76 z m 9.988,6.96 c 0.613,0 1.066,-0.107 1.36,-0.32 0.293,-0.213 0.44,-0.667 0.44,-1.36 v -22.76 h 5.6 v 23.76 c 0,1.413 -0.2,2.493 -0.6,3.24 -0.4,0.773 -1,1.293 -1.8,1.56 -0.774,0.293 -1.814,0.44 -3.12,0.44 -1.92,0 -3.054,-0.027 -3.4,-0.08 v -4.52 c 0.346,0.027 0.853,0.04 1.52,0.04 z m 7.4,-32.24 v 4.8 h -5.6 v -4.8 z m 16.396,28.96 c -0.187,-0.213 -0.333,-0.573 -0.44,-1.08 -0.107,-0.533 -0.16,-1.16 -0.16,-1.88 -0.587,1.093 -1.533,1.947 -2.84,2.56 -1.28,0.587 -2.667,0.88 -4.16,0.88 -1.253,0 -2.427,-0.253 -3.52,-0.76 -1.067,-0.507 -1.933,-1.227 -2.6,-2.16 -0.64,-0.96 -0.96,-2.08 -0.96,-3.36 0,-2.16 0.733,-3.76 2.2,-4.8 1.467,-1.04 3.667,-1.733 6.6,-2.08 2.027,-0.267 3.4,-0.56 4.12,-0.88 0.747,-0.347 1.12,-0.853 1.12,-1.52 0,-0.8 -0.307,-1.427 -0.92,-1.88 -0.613,-0.48 -1.533,-0.72 -2.76,-0.72 -1.013,0 -1.92,0.267 -2.72,0.8 -0.773,0.533 -1.32,1.32 -1.64,2.36 l -5.16,-0.8 c 0.453,-1.973 1.547,-3.52 3.28,-4.64 1.733,-1.147 3.853,-1.72 6.36,-1.72 3.067,0 5.36,0.613 6.88,1.84 1.52,1.227 2.28,2.893 2.28,5 v 10.6 c 0,1.227 0.027,2.147 0.08,2.76 0.08,0.587 0.24,1.08 0.48,1.48 z m -0.64,-10.44 c -0.32,0.267 -0.867,0.493 -1.64,0.68 -0.747,0.16 -1.733,0.32 -2.96,0.48 -1.12,0.187 -2.027,0.547 -2.72,1.08 -0.667,0.507 -1,1.227 -1,2.16 0,0.853 0.267,1.52 0.8,2 0.56,0.453 1.32,0.68 2.28,0.68 0.827,0 1.64,-0.173 2.44,-0.52 0.8,-0.347 1.467,-0.88 2,-1.6 0.533,-0.747 0.8,-1.667 0.8,-2.76 z m 23.778,-11.24 c 1.467,0 2.733,0.267 3.8,0.8 1.093,0.507 1.947,1.227 2.56,2.16 h 0.16 v -10.24 h 5.6 v 28.96 h -5.36 v -2.76 h -0.16 c -0.613,1.093 -1.493,1.907 -2.64,2.44 -1.12,0.533 -2.4,0.8 -3.84,0.8 -1.787,0 -3.387,-0.453 -4.8,-1.36 -1.413,-0.907 -2.52,-2.187 -3.32,-3.84 -0.8,-1.68 -1.2,-3.627 -1.2,-5.84 0,-2.213 0.387,-4.16 1.16,-5.84 0.8,-1.707 1.893,-3.013 3.28,-3.92 1.413,-0.907 3,-1.36 4.76,-1.36 z m 1.68,17.88 c 1.6,0 2.853,-0.573 3.76,-1.72 0.933,-1.173 1.4,-2.853 1.4,-5.04 0,-2.187 -0.467,-3.867 -1.4,-5.04 -0.907,-1.2 -2.16,-1.8 -3.76,-1.8 -1.6,0 -2.867,0.587 -3.8,1.76 -0.933,1.173 -1.4,2.867 -1.4,5.08 0,2.187 0.467,3.867 1.4,5.04 0.933,1.147 2.2,1.72 3.8,1.72 z m 23.037,-17.88 c 2.186,0 4.093,0.453 5.72,1.36 1.626,0.907 2.88,2.2 3.76,3.88 0.88,1.68 1.32,3.64 1.32,5.88 0,2.24 -0.44,4.2 -1.32,5.88 -0.88,1.653 -2.134,2.933 -3.76,3.84 -1.627,0.88 -3.534,1.32 -5.72,1.32 -2.214,0 -4.147,-0.44 -5.8,-1.32 -1.627,-0.907 -2.88,-2.187 -3.76,-3.84 -0.854,-1.68 -1.28,-3.64 -1.28,-5.88 0,-2.267 0.426,-4.227 1.28,-5.88 0.88,-1.68 2.133,-2.973 3.76,-3.88 1.653,-0.907 3.586,-1.36 5.8,-1.36 z m 0,17.96 c 1.573,0 2.813,-0.587 3.72,-1.76 0.906,-1.173 1.36,-2.867 1.36,-5.08 0,-2.24 -0.454,-3.947 -1.36,-5.12 -0.907,-1.2 -2.147,-1.8 -3.72,-1.8 -1.6,0 -2.867,0.6 -3.8,1.8 -0.907,1.173 -1.36,2.88 -1.36,5.12 0,2.213 0.453,3.907 1.36,5.08 0.933,1.173 2.2,1.76 3.8,1.76 z m -288.225,47.72 h -6.24 l -4.04,-14.48 h -0.16 l -4.08,14.48 h -6.08 l -6.88,-21.16 h 6.16 l 4,14.8 h 0.16 l 3.84,-14.8 h 6.24 l 3.84,14.8 h 0.16 l 4,-14.8 h 5.92 z m 20.309,-14.76 c -0.214,-1.013 -0.707,-1.8 -1.48,-2.36 -0.747,-0.56 -1.64,-0.84 -2.68,-0.84 -1.04,0 -1.88,0.227 -2.52,0.68 -0.64,0.427 -0.96,1.04 -0.96,1.84 0,0.693 0.306,1.2 0.92,1.52 0.613,0.32 1.546,0.587 2.8,0.8 l 2.16,0.32 c 2.346,0.4 4.173,1.053 5.48,1.96 1.333,0.907 2,2.427 2,4.56 0,2.24 -0.894,3.933 -2.68,5.08 -1.787,1.12 -4.134,1.68 -7.04,1.68 -2.774,0 -5.067,-0.587 -6.88,-1.76 -1.787,-1.2 -2.854,-2.827 -3.2,-4.88 l 5.24,-0.76 c 0.266,1.253 0.813,2.187 1.64,2.8 0.853,0.613 1.946,0.92 3.28,0.92 1.2,0 2.16,-0.253 2.88,-0.76 0.72,-0.507 1.08,-1.2 1.08,-2.08 0,-0.72 -0.334,-1.267 -1,-1.64 -0.667,-0.373 -1.667,-0.667 -3,-0.88 l -2.32,-0.36 c -2.107,-0.347 -3.8,-0.973 -5.08,-1.88 -1.254,-0.907 -1.88,-2.373 -1.88,-4.4 0,-1.307 0.4,-2.453 1.2,-3.44 0.826,-0.987 1.933,-1.733 3.32,-2.24 1.386,-0.533 2.906,-0.8 4.56,-0.8 2.453,0 4.533,0.573 6.24,1.72 1.733,1.147 2.76,2.64 3.08,4.48 z m 6.703,10.24 10.84,-12.2 h -10.28 v -4.44 h 17.36 v 4.48 l -10.84,12.24 h 10.84 v 4.44 h -17.92 z m 32.378,4.52 c -0.8,2.213 -1.64,3.893 -2.52,5.04 -0.853,1.147 -1.773,1.893 -2.76,2.24 -0.96,0.373 -2.12,0.56 -3.48,0.56 -1.44,0 -2.56,-0.04 -3.36,-0.12 v -4.64 c 0.747,0.107 1.574,0.16 2.48,0.16 0.96,0 1.68,-0.2 2.16,-0.6 0.507,-0.4 0.974,-1.12 1.4,-2.16 l 0.24,-0.68 -8.48,-20.96 h 6.08 l 5.16,14.48 h 0.16 l 4.68,-14.48 h 5.96 z m 21.086,-14.76 c -0.214,-1.013 -0.707,-1.8 -1.48,-2.36 -0.747,-0.56 -1.64,-0.84 -2.68,-0.84 -1.04,0 -1.88,0.227 -2.52,0.68 -0.64,0.427 -0.96,1.04 -0.96,1.84 0,0.693 0.306,1.2 0.92,1.52 0.613,0.32 1.546,0.587 2.8,0.8 l 2.16,0.32 c 2.346,0.4 4.173,1.053 5.48,1.96 1.333,0.907 2,2.427 2,4.56 0,2.24 -0.894,3.933 -2.68,5.08 -1.787,1.12 -4.134,1.68 -7.04,1.68 -2.774,0 -5.067,-0.587 -6.88,-1.76 -1.787,-1.2 -2.854,-2.827 -3.2,-4.88 l 5.24,-0.76 c 0.266,1.253 0.813,2.187 1.64,2.8 0.853,0.613 1.946,0.92 3.28,0.92 1.2,0 2.16,-0.253 2.88,-0.76 0.72,-0.507 1.08,-1.2 1.08,-2.08 0,-0.72 -0.334,-1.267 -1,-1.64 -0.667,-0.373 -1.667,-0.667 -3,-0.88 l -2.32,-0.36 c -2.107,-0.347 -3.8,-0.973 -5.08,-1.88 -1.254,-0.907 -1.88,-2.373 -1.88,-4.4 0,-1.307 0.4,-2.453 1.2,-3.44 0.826,-0.987 1.933,-1.733 3.32,-2.24 1.386,-0.533 2.906,-0.8 4.56,-0.8 2.453,0 4.533,0.573 6.24,1.72 1.733,1.147 2.76,2.64 3.08,4.48 z m 19.036,10.4 v 4.36 c -0.747,0.053 -1.973,0.08 -3.68,0.08 -1.52,0 -2.72,-0.133 -3.6,-0.4 -0.88,-0.293 -1.533,-0.8 -1.96,-1.52 -0.427,-0.747 -0.64,-1.813 -0.64,-3.2 v -12.36 h -3.36 v -3.76 h 3.36 v -5.92 h 5.6 v 5.92 h 4.44 v 3.76 h -4.44 v 10.96 c 0,0.88 0.173,1.453 0.52,1.72 0.373,0.24 1.027,0.36 1.96,0.36 z m 7.339,4.36 h -5.6 v -28.96 h 5.6 v 16 l 7.64,-8.2 h 6.44 l -7.92,8.12 8.84,13.04 h -6.52 l -6.12,-9.32 -2.36,2.44 z m 21.437,-21.16 v 21.16 h -5.6 v -21.16 z m 0,-7.8 v 4.8 h -5.6 v -4.8 z m 12.476,25.28 c 2.4,0 3.947,-1.373 4.64,-4.12 l 5.64,0.64 c -0.533,2.107 -1.626,3.907 -3.28,5.4 -1.653,1.493 -3.986,2.24 -7,2.24 -2.16,0 -4.04,-0.44 -5.64,-1.32 -1.6,-0.907 -2.826,-2.187 -3.68,-3.84 -0.853,-1.68 -1.28,-3.64 -1.28,-5.88 0,-2.24 0.427,-4.2 1.28,-5.88 0.854,-1.68 2.08,-2.973 3.68,-3.88 1.6,-0.907 3.48,-1.36 5.64,-1.36 2.934,0 5.2,0.693 6.8,2.08 1.6,1.387 2.654,2.92 3.16,4.6 l -5.44,1.24 c -0.773,-2.48 -2.28,-3.72 -4.52,-3.72 -1.52,0 -2.72,0.6 -3.6,1.8 -0.88,1.173 -1.32,2.88 -1.32,5.12 0,2.213 0.44,3.92 1.32,5.12 0.88,1.173 2.08,1.76 3.6,1.76 z m 17.508,-14.68 c 1.6,-2.213 3.786,-3.32 6.56,-3.32 2.106,0 3.853,0.653 5.24,1.96 1.386,1.307 2.08,3.227 2.08,5.76 v 13.96 h -5.6 v -12.52 c 0,-1.653 -0.334,-2.84 -1,-3.56 -0.64,-0.72 -1.627,-1.08 -2.96,-1.08 -0.774,0 -1.507,0.24 -2.2,0.72 -0.694,0.453 -1.254,1.133 -1.68,2.04 -0.4,0.88 -0.6,1.92 -0.6,3.12 v 11.28 h -5.6 v -28.96 h 5.6 v 10.6 z m 37.761,-5.16 v 23.52 h -6 v -23.52 h -9.24 v -5.04 h 24.48 v 5.04 z m 34.753,23.52 h -6.24 l -4.04,-14.48 h -0.16 l -4.08,14.48 h -6.08 l -6.88,-21.16 h 6.16 l 4,14.8 h 0.16 l 3.84,-14.8 h 6.24 l 3.84,14.8 h 0.16 l 4,-14.8 h 5.92 z m 16.812,-21.68 c 2.187,0 4.093,0.453 5.72,1.36 1.627,0.907 2.88,2.2 3.76,3.88 0.88,1.68 1.32,3.64 1.32,5.88 0,2.24 -0.44,4.2 -1.32,5.88 -0.88,1.653 -2.133,2.933 -3.76,3.84 -1.627,0.88 -3.533,1.32 -5.72,1.32 -2.213,0 -4.147,-0.44 -5.8,-1.32 -1.627,-0.907 -2.88,-2.187 -3.76,-3.84 -0.853,-1.68 -1.28,-3.64 -1.28,-5.88 0,-2.267 0.427,-4.227 1.28,-5.88 0.88,-1.68 2.133,-2.973 3.76,-3.88 1.653,-0.907 3.587,-1.36 5.8,-1.36 z m 0,17.96 c 1.573,0 2.813,-0.587 3.72,-1.76 0.907,-1.173 1.36,-2.867 1.36,-5.08 0,-2.24 -0.453,-3.947 -1.36,-5.12 -0.907,-1.2 -2.147,-1.8 -3.72,-1.8 -1.6,0 -2.867,0.6 -3.8,1.8 -0.907,1.173 -1.36,2.88 -1.36,5.12 0,2.213 0.453,3.907 1.36,5.08 0.933,1.173 2.2,1.76 3.8,1.76 z m 18.319,-17.44 v 21.16 h -5.6 v -21.16 z m 0,-7.8 v 4.8 h -5.6 v -4.8 z m 12.477,25.28 c 2.4,0 3.947,-1.373 4.64,-4.12 l 5.64,0.64 c -0.533,2.107 -1.627,3.907 -3.28,5.4 -1.653,1.493 -3.987,2.24 -7,2.24 -2.16,0 -4.04,-0.44 -5.64,-1.32 -1.6,-0.907 -2.827,-2.187 -3.68,-3.84 -0.853,-1.68 -1.28,-3.64 -1.28,-5.88 0,-2.24 0.427,-4.2 1.28,-5.88 0.853,-1.68 2.08,-2.973 3.68,-3.88 1.6,-0.907 3.48,-1.36 5.64,-1.36 2.933,0 5.2,0.693 6.8,2.08 1.6,1.387 2.653,2.92 3.16,4.6 l -5.44,1.24 c -0.773,-2.48 -2.28,-3.72 -4.52,-3.72 -1.52,0 -2.72,0.6 -3.6,1.8 -0.88,1.173 -1.32,2.88 -1.32,5.12 0,2.213 0.44,3.92 1.32,5.12 0.88,1.173 2.08,1.76 3.6,1.76 z m 17.507,-14.68 c 1.6,-2.213 3.787,-3.32 6.56,-3.32 2.107,0 3.854,0.653 5.24,1.96 1.387,1.307 2.08,3.227 2.08,5.76 v 13.96 h -5.6 v -12.52 c 0,-1.653 -0.333,-2.84 -1,-3.56 -0.64,-0.72 -1.626,-1.08 -2.96,-1.08 -0.773,0 -1.506,0.24 -2.2,0.72 -0.693,0.453 -1.253,1.133 -1.68,2.04 -0.4,0.88 -0.6,1.92 -0.6,3.12 v 11.28 h -5.6 v -28.96 h 5.6 v 10.6 z m 33.721,-6.88 c -0.826,0 -1.453,0.173 -1.88,0.52 -0.426,0.32 -0.64,0.907 -0.64,1.76 v 1.8 h 4.44 v 3.76 h -4.44 v 17.4 h -5.6 v -17.4 h -3.36 v -3.76 h 3.36 v -2.44 c 0,-2.16 0.614,-3.667 1.84,-4.52 1.254,-0.88 3.014,-1.32 5.28,-1.32 0.8,0 1.96,0.08 3.48,0.24 v 4.08 c -1.28,-0.08 -2.106,-0.12 -2.48,-0.12 z m 9.373,4.08 v 21.16 h -5.6 v -21.16 z m 0,-7.8 v 4.8 h -5.6 v -4.8 z m 7.957,10.6 c 1.573,-2.213 3.8,-3.32 6.68,-3.32 2.16,0 3.933,0.653 5.32,1.96 1.413,1.307 2.12,3.227 2.12,5.76 v 13.96 h -5.6 v -12.52 c 0,-1.653 -0.333,-2.84 -1,-3.56 -0.64,-0.72 -1.627,-1.08 -2.96,-1.08 -1.253,0 -2.32,0.493 -3.2,1.48 -0.853,0.96 -1.28,2.347 -1.28,4.16 v 11.52 h -5.6 v -21.16 h 5.36 v 2.8 z m 30.384,18.36 c -0.187,-0.213 -0.334,-0.573 -0.44,-1.08 -0.107,-0.533 -0.16,-1.16 -0.16,-1.88 -0.587,1.093 -1.534,1.947 -2.84,2.56 -1.28,0.587 -2.667,0.88 -4.16,0.88 -1.254,0 -2.427,-0.253 -3.52,-0.76 -1.067,-0.507 -1.934,-1.227 -2.6,-2.16 -0.64,-0.96 -0.96,-2.08 -0.96,-3.36 0,-2.16 0.733,-3.76 2.2,-4.8 1.466,-1.04 3.666,-1.733 6.6,-2.08 2.026,-0.267 3.4,-0.56 4.12,-0.88 0.746,-0.347 1.12,-0.853 1.12,-1.52 0,-0.8 -0.307,-1.427 -0.92,-1.88 -0.614,-0.48 -1.534,-0.72 -2.76,-0.72 -1.014,0 -1.92,0.267 -2.72,0.8 -0.774,0.533 -1.32,1.32 -1.64,2.36 l -5.16,-0.8 c 0.453,-1.973 1.546,-3.52 3.28,-4.64 1.733,-1.147 3.853,-1.72 6.36,-1.72 3.066,0 5.36,0.613 6.88,1.84 1.52,1.227 2.28,2.893 2.28,5 v 10.6 c 0,1.227 0.026,2.147 0.08,2.76 0.08,0.587 0.24,1.08 0.48,1.48 z m -0.64,-10.44 c -0.32,0.267 -0.867,0.493 -1.64,0.68 -0.747,0.16 -1.734,0.32 -2.96,0.48 -1.12,0.187 -2.027,0.547 -2.72,1.08 -0.667,0.507 -1,1.227 -1,2.16 0,0.853 0.266,1.52 0.8,2 0.56,0.453 1.32,0.68 2.28,0.68 0.826,0 1.64,-0.173 2.44,-0.52 0.8,-0.347 1.466,-0.88 2,-1.6 0.533,-0.747 0.8,-1.667 0.8,-2.76 z m 13.44,-7.92 c 1.574,-2.213 3.8,-3.32 6.68,-3.32 2.16,0 3.934,0.653 5.32,1.96 1.414,1.307 2.12,3.227 2.12,5.76 v 13.96 h -5.6 v -12.52 c 0,-1.653 -0.333,-2.84 -1,-3.56 -0.64,-0.72 -1.626,-1.08 -2.96,-1.08 -1.253,0 -2.32,0.493 -3.2,1.48 -0.853,0.96 -1.28,2.347 -1.28,4.16 v 11.52 h -5.6 v -21.16 h 5.36 v 2.8 z m 29.224,3.6 c -0.213,-1.013 -0.707,-1.8 -1.48,-2.36 -0.747,-0.56 -1.64,-0.84 -2.68,-0.84 -1.04,0 -1.88,0.227 -2.52,0.68 -0.64,0.427 -0.96,1.04 -0.96,1.84 0,0.693 0.307,1.2 0.92,1.52 0.613,0.32 1.547,0.587 2.8,0.8 l 2.16,0.32 c 2.347,0.4 4.173,1.053 5.48,1.96 1.333,0.907 2,2.427 2,4.56 0,2.24 -0.893,3.933 -2.68,5.08 -1.787,1.12 -4.133,1.68 -7.04,1.68 -2.773,0 -5.067,-0.587 -6.88,-1.76 -1.787,-1.2 -2.853,-2.827 -3.2,-4.88 l 5.24,-0.76 c 0.267,1.253 0.813,2.187 1.64,2.8 0.853,0.613 1.947,0.92 3.28,0.92 1.2,0 2.16,-0.253 2.88,-0.76 0.72,-0.507 1.08,-1.2 1.08,-2.08 0,-0.72 -0.333,-1.267 -1,-1.64 -0.667,-0.373 -1.667,-0.667 -3,-0.88 l -2.32,-0.36 c -2.107,-0.347 -3.8,-0.973 -5.08,-1.88 -1.253,-0.907 -1.88,-2.373 -1.88,-4.4 0,-1.307 0.4,-2.453 1.2,-3.44 0.827,-0.987 1.933,-1.733 3.32,-2.24 1.387,-0.533 2.907,-0.8 4.56,-0.8 2.453,0 4.533,0.573 6.24,1.72 1.733,1.147 2.76,2.64 3.08,4.48 z m 17.783,-6.92 c 2.187,0 4.094,0.453 5.72,1.36 1.627,0.907 2.88,2.2 3.76,3.88 0.88,1.68 1.32,3.64 1.32,5.88 0,2.24 -0.44,4.2 -1.32,5.88 -0.88,1.653 -2.133,2.933 -3.76,3.84 -1.626,0.88 -3.533,1.32 -5.72,1.32 -2.213,0 -4.146,-0.44 -5.8,-1.32 -1.626,-0.907 -2.88,-2.187 -3.76,-3.84 -0.853,-1.68 -1.28,-3.64 -1.28,-5.88 0,-2.267 0.427,-4.227 1.28,-5.88 0.88,-1.68 2.134,-2.973 3.76,-3.88 1.654,-0.907 3.587,-1.36 5.8,-1.36 z m 0,17.96 c 1.574,0 2.814,-0.587 3.72,-1.76 0.907,-1.173 1.36,-2.867 1.36,-5.08 0,-2.24 -0.453,-3.947 -1.36,-5.12 -0.906,-1.2 -2.146,-1.8 -3.72,-1.8 -1.6,0 -2.866,0.6 -3.8,1.8 -0.906,1.173 -1.36,2.88 -1.36,5.12 0,2.213 0.454,3.907 1.36,5.08 0.934,1.173 2.2,1.76 3.8,1.76 z m -2.08,-19.84 3.32,-6.44 h 5.88 l -5.08,6.44 z m 39.469,23.56 h -6.24 l -4.04,-14.48 h -0.16 l -4.08,14.48 h -6.08 l -6.88,-21.16 h 6.16 l 4,14.8 h 0.16 l 3.84,-14.8 h 6.24 l 3.84,14.8 h 0.16 l 4,-14.8 h 5.92 z"
       fill="#ffffff"
       id="path24" />
    <path
       d="m 178.713,329.463 h 2.187 v 10.312 c 0,0.933 -0.184,1.731 -0.554,2.394 -0.364,0.662 -0.878,1.169 -1.541,1.519 -0.663,0.346 -1.439,0.519 -2.329,0.519 -0.819,0 -1.556,-0.149 -2.209,-0.448 -0.649,-0.298 -1.163,-0.731 -1.541,-1.299 -0.374,-0.573 -0.561,-1.269 -0.561,-2.088 h 2.18 c 0,0.402 0.092,0.75 0.277,1.044 0.189,0.293 0.447,0.523 0.774,0.689 0.332,0.161 0.71,0.241 1.136,0.241 0.464,0 0.857,-0.097 1.179,-0.291 0.327,-0.199 0.576,-0.49 0.746,-0.874 0.171,-0.383 0.256,-0.852 0.256,-1.406 z m 9.713,14.765 c -1.075,0 -2.001,-0.229 -2.777,-0.689 -0.772,-0.464 -1.369,-1.115 -1.79,-1.953 -0.417,-0.843 -0.625,-1.83 -0.625,-2.961 0,-1.118 0.208,-2.103 0.625,-2.955 0.421,-0.852 1.009,-1.518 1.761,-1.996 0.758,-0.478 1.643,-0.717 2.657,-0.717 0.615,0 1.212,0.102 1.789,0.305 0.578,0.204 1.097,0.524 1.556,0.959 0.459,0.436 0.821,1.002 1.087,1.698 0.265,0.691 0.397,1.531 0.397,2.521 v 0.753 h -8.672 v -1.591 h 6.591 c 0,-0.559 -0.113,-1.054 -0.341,-1.485 -0.227,-0.435 -0.547,-0.778 -0.958,-1.029 -0.408,-0.251 -0.886,-0.377 -1.435,-0.377 -0.597,0 -1.118,0.147 -1.563,0.441 -0.44,0.288 -0.781,0.667 -1.022,1.136 -0.237,0.464 -0.355,0.968 -0.355,1.513 v 1.243 c 0,0.729 0.127,1.349 0.383,1.86 0.26,0.512 0.623,0.902 1.087,1.172 0.464,0.265 1.006,0.398 1.626,0.398 0.403,0 0.77,-0.057 1.101,-0.17 0.331,-0.119 0.618,-0.294 0.859,-0.526 0.242,-0.232 0.427,-0.519 0.554,-0.859 l 2.01,0.362 c -0.161,0.592 -0.45,1.11 -0.866,1.555 -0.412,0.441 -0.931,0.784 -1.556,1.03 -0.62,0.241 -1.328,0.362 -2.123,0.362 z m 10.92,-0.007 c -0.88,0 -1.666,-0.225 -2.358,-0.675 -0.686,-0.454 -1.226,-1.1 -1.619,-1.939 -0.388,-0.842 -0.582,-1.853 -0.582,-3.032 0,-1.179 0.196,-2.188 0.589,-3.026 0.398,-0.838 0.942,-1.479 1.634,-1.924 0.691,-0.446 1.474,-0.668 2.35,-0.668 0.678,0 1.222,0.114 1.634,0.341 0.417,0.222 0.739,0.483 0.966,0.781 0.232,0.298 0.412,0.561 0.54,0.788 h 0.127 v -5.404 h 2.124 v 14.545 h -2.074 v -1.697 H 202.5 c -0.128,0.232 -0.313,0.497 -0.554,0.795 -0.237,0.298 -0.564,0.559 -0.98,0.781 -0.417,0.223 -0.957,0.334 -1.62,0.334 z m 0.469,-1.811 c 0.611,0 1.127,-0.161 1.548,-0.483 0.426,-0.327 0.748,-0.779 0.966,-1.356 0.223,-0.578 0.334,-1.25 0.334,-2.017 0,-0.758 -0.109,-1.421 -0.327,-1.989 -0.218,-0.568 -0.537,-1.011 -0.959,-1.328 -0.421,-0.317 -0.942,-0.476 -1.562,-0.476 -0.639,0 -1.172,0.166 -1.598,0.497 -0.426,0.331 -0.748,0.784 -0.966,1.357 -0.213,0.573 -0.32,1.219 -0.32,1.939 0,0.729 0.109,1.384 0.327,1.967 0.218,0.582 0.54,1.044 0.966,1.385 0.431,0.336 0.961,0.504 1.591,0.504 z m 9.891,-4.879 v 6.477 h -2.124 v -10.909 h 2.038 v 1.776 h 0.135 c 0.251,-0.578 0.644,-1.042 1.179,-1.393 0.54,-0.35 1.219,-0.525 2.039,-0.525 0.743,0 1.394,0.156 1.953,0.469 0.558,0.307 0.992,0.767 1.299,1.378 0.308,0.61 0.462,1.366 0.462,2.265 v 6.939 h -2.124 v -6.683 c 0,-0.791 -0.205,-1.409 -0.617,-1.854 -0.412,-0.45 -0.978,-0.675 -1.698,-0.675 -0.492,0 -0.93,0.107 -1.314,0.32 -0.379,0.213 -0.679,0.526 -0.902,0.938 -0.218,0.407 -0.326,0.899 -0.326,1.477 z m 14.224,6.697 c -1.022,0 -1.915,-0.234 -2.677,-0.703 -0.763,-0.469 -1.354,-1.124 -1.776,-1.967 -0.421,-0.843 -0.632,-1.828 -0.632,-2.955 0,-1.131 0.211,-2.121 0.632,-2.969 0.422,-0.847 1.013,-1.505 1.776,-1.974 0.762,-0.469 1.655,-0.703 2.677,-0.703 1.023,0 1.915,0.234 2.678,0.703 0.762,0.469 1.354,1.127 1.775,1.974 0.422,0.848 0.632,1.838 0.632,2.969 0,1.127 -0.21,2.112 -0.632,2.955 -0.421,0.843 -1.013,1.498 -1.775,1.967 -0.763,0.469 -1.655,0.703 -2.678,0.703 z m 0.007,-1.782 c 0.663,0 1.212,-0.176 1.648,-0.526 0.436,-0.35 0.758,-0.817 0.966,-1.399 0.213,-0.583 0.32,-1.224 0.32,-1.925 0,-0.696 -0.107,-1.335 -0.32,-1.917 -0.208,-0.588 -0.53,-1.059 -0.966,-1.414 -0.436,-0.355 -0.985,-0.533 -1.648,-0.533 -0.667,0 -1.221,0.178 -1.662,0.533 -0.435,0.355 -0.76,0.826 -0.973,1.414 -0.208,0.582 -0.312,1.221 -0.312,1.917 0,0.701 0.104,1.342 0.312,1.925 0.213,0.582 0.538,1.049 0.973,1.399 0.441,0.35 0.995,0.526 1.662,0.526 z m 14.295,-2.138 -0.014,-2.593 h 0.369 l 4.347,-4.616 h 2.542 l -4.957,5.256 h -0.334 z m -1.953,3.7 v -14.545 h 2.123 v 14.545 z m 6.889,0 -3.906,-5.185 1.463,-1.484 5.05,6.669 z m 8.19,0.22 c -1.023,0 -1.916,-0.234 -2.678,-0.703 -0.762,-0.469 -1.354,-1.124 -1.776,-1.967 -0.421,-0.843 -0.632,-1.828 -0.632,-2.955 0,-1.131 0.211,-2.121 0.632,-2.969 0.422,-0.847 1.014,-1.505 1.776,-1.974 0.762,-0.469 1.655,-0.703 2.678,-0.703 1.022,0 1.915,0.234 2.677,0.703 0.762,0.469 1.354,1.127 1.776,1.974 0.421,0.848 0.632,1.838 0.632,2.969 0,1.127 -0.211,2.112 -0.632,2.955 -0.422,0.843 -1.014,1.498 -1.776,1.967 -0.762,0.469 -1.655,0.703 -2.677,0.703 z m 0.007,-1.782 c 0.663,0 1.212,-0.176 1.647,-0.526 0.436,-0.35 0.758,-0.817 0.966,-1.399 0.213,-0.583 0.32,-1.224 0.32,-1.925 0,-0.696 -0.107,-1.335 -0.32,-1.917 -0.208,-0.588 -0.53,-1.059 -0.966,-1.414 -0.435,-0.355 -0.984,-0.533 -1.647,-0.533 -0.668,0 -1.222,0.178 -1.662,0.533 -0.436,0.355 -0.76,0.826 -0.973,1.414 -0.209,0.582 -0.313,1.221 -0.313,1.917 0,0.701 0.104,1.342 0.313,1.925 0.213,0.582 0.537,1.049 0.973,1.399 0.44,0.35 0.994,0.526 1.662,0.526 z m 9.372,-4.915 v 6.477 h -2.124 v -10.909 h 2.039 v 1.776 h 0.134 c 0.251,-0.578 0.644,-1.042 1.179,-1.393 0.54,-0.35 1.22,-0.525 2.039,-0.525 0.743,0 1.394,0.156 1.953,0.469 0.559,0.307 0.992,0.767 1.3,1.378 0.307,0.61 0.461,1.366 0.461,2.265 v 6.939 h -2.123 v -6.683 c 0,-0.791 -0.206,-1.409 -0.618,-1.854 -0.412,-0.45 -0.978,-0.675 -1.698,-0.675 -0.492,0 -0.93,0.107 -1.314,0.32 -0.378,0.213 -0.679,0.526 -0.902,0.938 -0.217,0.407 -0.326,0.899 -0.326,1.477 z m 14.722,-4.432 v 1.705 H 269.5 v -1.705 z m -4.361,-2.614 h 2.123 v 10.32 c 0,0.412 0.062,0.722 0.185,0.93 0.123,0.204 0.282,0.344 0.476,0.419 0.199,0.071 0.414,0.107 0.646,0.107 0.171,0 0.32,-0.012 0.448,-0.036 0.128,-0.023 0.227,-0.042 0.298,-0.056 l 0.384,1.754 c -0.124,0.047 -0.299,0.095 -0.526,0.142 -0.227,0.052 -0.511,0.08 -0.852,0.085 -0.559,0.01 -1.08,-0.09 -1.563,-0.298 -0.483,-0.209 -0.873,-0.53 -1.172,-0.966 -0.298,-0.436 -0.447,-0.983 -0.447,-1.641 z m 10.988,13.743 c -1.023,0 -1.916,-0.234 -2.678,-0.703 -0.762,-0.469 -1.354,-1.124 -1.775,-1.967 -0.422,-0.843 -0.633,-1.828 -0.633,-2.955 0,-1.131 0.211,-2.121 0.633,-2.969 0.421,-0.847 1.013,-1.505 1.775,-1.974 0.762,-0.469 1.655,-0.703 2.678,-0.703 1.022,0 1.915,0.234 2.677,0.703 0.763,0.469 1.354,1.127 1.776,1.974 0.421,0.848 0.632,1.838 0.632,2.969 0,1.127 -0.211,2.112 -0.632,2.955 -0.422,0.843 -1.013,1.498 -1.776,1.967 -0.762,0.469 -1.655,0.703 -2.677,0.703 z m 0.007,-1.782 c 0.663,0 1.212,-0.176 1.648,-0.526 0.435,-0.35 0.757,-0.817 0.965,-1.399 0.214,-0.583 0.32,-1.224 0.32,-1.925 0,-0.696 -0.106,-1.335 -0.32,-1.917 -0.208,-0.588 -0.53,-1.059 -0.965,-1.414 -0.436,-0.355 -0.985,-0.533 -1.648,-0.533 -0.668,0 -1.222,0.178 -1.662,0.533 -0.436,0.355 -0.76,0.826 -0.973,1.414 -0.208,0.582 -0.313,1.221 -0.313,1.917 0,0.701 0.105,1.342 0.313,1.925 0.213,0.582 0.537,1.049 0.973,1.399 0.44,0.35 0.994,0.526 1.662,0.526 z m 10.011,-0.427 -0.106,0.775 c -0.071,0.568 -0.192,1.16 -0.363,1.775 -0.165,0.62 -0.338,1.196 -0.518,1.726 -0.175,0.53 -0.32,0.952 -0.433,1.264 h -1.506 c 0.062,-0.293 0.147,-0.691 0.256,-1.193 0.109,-0.497 0.215,-1.053 0.319,-1.669 0.104,-0.616 0.183,-1.243 0.235,-1.882 l 0.071,-0.796 z m 11.741,2.202 c -0.88,0 -1.666,-0.225 -2.358,-0.675 -0.686,-0.454 -1.226,-1.1 -1.619,-1.939 -0.388,-0.842 -0.582,-1.853 -0.582,-3.032 0,-1.179 0.196,-2.188 0.589,-3.026 0.398,-0.838 0.943,-1.479 1.634,-1.924 0.691,-0.446 1.475,-0.668 2.351,-0.668 0.677,0 1.221,0.114 1.633,0.341 0.417,0.222 0.739,0.483 0.966,0.781 0.232,0.298 0.412,0.561 0.54,0.788 h 0.128 v -5.404 h 2.123 v 14.545 h -2.074 v -1.697 h -0.177 c -0.128,0.232 -0.313,0.497 -0.554,0.795 -0.237,0.298 -0.564,0.559 -0.98,0.781 -0.417,0.223 -0.957,0.334 -1.62,0.334 z m 0.469,-1.811 c 0.611,0 1.127,-0.161 1.548,-0.483 0.427,-0.327 0.749,-0.779 0.966,-1.356 0.223,-0.578 0.334,-1.25 0.334,-2.017 0,-0.758 -0.109,-1.421 -0.326,-1.989 -0.218,-0.568 -0.538,-1.011 -0.959,-1.328 -0.422,-0.317 -0.943,-0.476 -1.563,-0.476 -0.639,0 -1.172,0.166 -1.598,0.497 -0.426,0.331 -0.748,0.784 -0.966,1.357 -0.213,0.573 -0.319,1.219 -0.319,1.939 0,0.729 0.109,1.384 0.326,1.967 0.218,0.582 0.54,1.044 0.966,1.385 0.431,0.336 0.961,0.504 1.591,0.504 z m 7.54,1.598 v -1.456 l 5.909,-7.507 v -0.099 h -5.717 v -1.847 h 8.366 v 1.548 l -5.682,7.415 v 0.099 h 5.881 v 1.847 z m 11.062,0 v -10.909 h 2.124 v 10.909 z m 1.073,-12.592 c -0.37,0 -0.687,-0.123 -0.952,-0.37 -0.26,-0.251 -0.391,-0.549 -0.391,-0.894 0,-0.351 0.131,-0.649 0.391,-0.895 0.265,-0.251 0.582,-0.377 0.952,-0.377 0.369,0 0.684,0.126 0.944,0.377 0.266,0.246 0.398,0.544 0.398,0.895 0,0.345 -0.132,0.643 -0.398,0.894 -0.26,0.247 -0.575,0.37 -0.944,0.37 z m 8.41,12.812 c -1.075,0 -2.001,-0.229 -2.777,-0.689 -0.772,-0.464 -1.369,-1.115 -1.79,-1.953 -0.417,-0.843 -0.625,-1.83 -0.625,-2.961 0,-1.118 0.208,-2.103 0.625,-2.955 0.421,-0.852 1.008,-1.518 1.761,-1.996 0.758,-0.478 1.643,-0.717 2.656,-0.717 0.616,0 1.212,0.102 1.79,0.305 0.578,0.204 1.096,0.524 1.556,0.959 0.459,0.436 0.821,1.002 1.086,1.698 0.265,0.691 0.398,1.531 0.398,2.521 v 0.753 h -8.672 v -1.591 h 6.591 c 0,-0.559 -0.114,-1.054 -0.341,-1.485 -0.227,-0.435 -0.547,-0.778 -0.959,-1.029 -0.407,-0.251 -0.885,-0.377 -1.434,-0.377 -0.597,0 -1.118,0.147 -1.563,0.441 -0.44,0.288 -0.781,0.667 -1.023,1.136 -0.236,0.464 -0.355,0.968 -0.355,1.513 v 1.243 c 0,0.729 0.128,1.349 0.384,1.86 0.26,0.512 0.622,0.902 1.086,1.172 0.464,0.265 1.007,0.398 1.627,0.398 0.402,0 0.769,-0.057 1.101,-0.17 0.331,-0.119 0.618,-0.294 0.859,-0.526 0.242,-0.232 0.426,-0.519 0.554,-0.859 l 2.01,0.362 c -0.161,0.592 -0.45,1.11 -0.867,1.555 -0.411,0.441 -0.93,0.784 -1.555,1.03 -0.62,0.241 -1.328,0.362 -2.123,0.362 z m 15.011,-8.466 -1.925,0.341 c -0.08,-0.246 -0.208,-0.48 -0.383,-0.703 -0.171,-0.222 -0.403,-0.405 -0.696,-0.547 -0.294,-0.142 -0.661,-0.213 -1.101,-0.213 -0.602,0 -1.104,0.135 -1.506,0.405 -0.402,0.265 -0.604,0.608 -0.604,1.03 0,0.364 0.135,0.658 0.405,0.88 0.27,0.223 0.706,0.405 1.307,0.547 l 1.733,0.398 c 1.004,0.232 1.752,0.59 2.244,1.073 0.493,0.482 0.739,1.11 0.739,1.882 0,0.653 -0.19,1.235 -0.568,1.747 -0.374,0.506 -0.898,0.904 -1.57,1.193 -0.668,0.289 -1.442,0.433 -2.322,0.433 -1.222,0 -2.219,-0.26 -2.99,-0.781 -0.772,-0.526 -1.246,-1.271 -1.421,-2.237 l 2.053,-0.313 c 0.128,0.535 0.39,0.94 0.788,1.215 0.398,0.27 0.916,0.405 1.555,0.405 0.696,0 1.253,-0.145 1.669,-0.434 0.417,-0.293 0.625,-0.651 0.625,-1.072 0,-0.341 -0.127,-0.627 -0.383,-0.859 -0.251,-0.232 -0.637,-0.408 -1.158,-0.526 l -1.846,-0.405 c -1.018,-0.232 -1.771,-0.601 -2.259,-1.108 -0.483,-0.506 -0.724,-1.148 -0.724,-1.925 0,-0.643 0.18,-1.207 0.54,-1.69 0.359,-0.483 0.857,-0.859 1.491,-1.129 0.634,-0.275 1.361,-0.412 2.18,-0.412 1.179,0 2.107,0.256 2.784,0.767 0.678,0.507 1.125,1.186 1.343,2.038 z m 2.348,8.246 v -10.909 h 2.123 v 10.909 z m 1.072,-12.592 c -0.369,0 -0.686,-0.123 -0.952,-0.37 -0.26,-0.251 -0.39,-0.549 -0.39,-0.894 0,-0.351 0.13,-0.649 0.39,-0.895 0.266,-0.251 0.583,-0.377 0.952,-0.377 0.369,0 0.684,0.126 0.945,0.377 0.265,0.246 0.397,0.544 0.397,0.895 0,0.345 -0.132,0.643 -0.397,0.894 -0.261,0.247 -0.576,0.37 -0.945,0.37 z m 6.883,12.834 c -0.691,0 -1.316,-0.128 -1.875,-0.384 -0.559,-0.26 -1.002,-0.637 -1.328,-1.129 -0.322,-0.493 -0.483,-1.096 -0.483,-1.811 0,-0.616 0.118,-1.122 0.355,-1.52 0.237,-0.398 0.556,-0.713 0.959,-0.945 0.402,-0.232 0.852,-0.407 1.349,-0.525 0.497,-0.119 1.004,-0.209 1.52,-0.27 0.653,-0.076 1.184,-0.138 1.591,-0.185 0.407,-0.052 0.703,-0.135 0.888,-0.249 0.184,-0.113 0.277,-0.298 0.277,-0.553 v -0.05 c 0,-0.62 -0.175,-1.101 -0.526,-1.442 -0.345,-0.341 -0.862,-0.511 -1.548,-0.511 -0.715,0 -1.279,0.158 -1.69,0.476 -0.408,0.312 -0.689,0.66 -0.846,1.044 l -1.995,-0.455 c 0.236,-0.663 0.582,-1.198 1.037,-1.605 0.459,-0.412 0.987,-0.71 1.583,-0.895 0.597,-0.189 1.224,-0.284 1.882,-0.284 0.436,0 0.898,0.052 1.385,0.156 0.493,0.1 0.952,0.284 1.378,0.554 0.431,0.27 0.784,0.656 1.059,1.158 0.274,0.497 0.411,1.143 0.411,1.939 v 7.244 h -2.073 v -1.491 h -0.086 c -0.137,0.274 -0.343,0.544 -0.618,0.809 -0.274,0.265 -0.627,0.486 -1.058,0.661 -0.431,0.175 -0.947,0.263 -1.548,0.263 z m 0.462,-1.705 c 0.587,0 1.089,-0.116 1.505,-0.348 0.422,-0.232 0.741,-0.535 0.959,-0.909 0.223,-0.379 0.334,-0.784 0.334,-1.215 v -1.406 c -0.076,0.076 -0.223,0.147 -0.44,0.213 -0.214,0.062 -0.457,0.116 -0.732,0.164 -0.275,0.042 -0.542,0.082 -0.803,0.12 -0.26,0.033 -0.478,0.062 -0.653,0.086 -0.412,0.052 -0.788,0.139 -1.129,0.262 -0.336,0.123 -0.606,0.301 -0.81,0.533 -0.199,0.227 -0.298,0.53 -0.298,0.909 0,0.526 0.194,0.923 0.582,1.193 0.388,0.265 0.883,0.398 1.485,0.398 z m 3.565,5.661 c -0.597,0 -1.094,-0.161 -1.492,-0.483 -0.393,-0.318 -0.608,-0.782 -0.646,-1.393 -0.024,-0.359 0.036,-0.722 0.178,-1.086 0.142,-0.365 0.381,-0.71 0.717,-1.037 0.336,-0.327 0.781,-0.616 1.335,-0.867 l 1.264,0.668 c -0.435,0.279 -0.812,0.575 -1.129,0.888 -0.317,0.312 -0.476,0.667 -0.476,1.065 0,0.218 0.055,0.388 0.164,0.512 0.109,0.123 0.296,0.184 0.561,0.184 0.194,0 0.367,-0.026 0.518,-0.078 0.152,-0.052 0.275,-0.102 0.37,-0.149 l 0.184,1.349 c -0.166,0.1 -0.379,0.194 -0.639,0.284 -0.256,0.095 -0.559,0.143 -0.909,0.143 z m 9.077,-15.107 v 1.705 h -5.959 v -1.705 z m -4.361,-2.614 h 2.124 v 10.32 c 0,0.412 0.062,0.722 0.185,0.93 0.123,0.204 0.281,0.344 0.476,0.419 0.198,0.071 0.414,0.107 0.646,0.107 0.17,0 0.319,-0.012 0.447,-0.036 0.128,-0.023 0.228,-0.042 0.299,-0.056 l 0.383,1.754 c -0.123,0.047 -0.298,0.095 -0.525,0.142 -0.228,0.052 -0.512,0.08 -0.853,0.085 -0.558,0.01 -1.079,-0.09 -1.562,-0.298 -0.483,-0.209 -0.874,-0.53 -1.172,-0.966 -0.298,-0.436 -0.448,-0.983 -0.448,-1.641 z m 8.698,9.823 -0.014,-2.593 h 0.369 l 4.347,-4.616 h 2.542 l -4.957,5.256 h -0.334 z m -1.953,3.7 v -14.545 h 2.123 v 14.545 z m 6.889,0 -3.906,-5.185 1.463,-1.484 5.049,6.669 z m 4.044,0 v -10.909 h 2.123 v 10.909 z m 1.072,-12.592 c -0.369,0 -0.687,-0.123 -0.952,-0.37 -0.26,-0.251 -0.39,-0.549 -0.39,-0.894 0,-0.351 0.13,-0.649 0.39,-0.895 0.265,-0.251 0.583,-0.377 0.952,-0.377 0.369,0 0.684,0.126 0.945,0.377 0.265,0.246 0.397,0.544 0.397,0.895 0,0.345 -0.132,0.643 -0.397,0.894 -0.261,0.247 -0.576,0.37 -0.945,0.37 z m 8.574,12.592 v -1.456 l 5.909,-7.507 v -0.099 h -5.718 v -1.847 h 8.367 v 1.548 l -5.682,7.415 v 0.099 h 5.881 v 1.847 z m 14.237,0.242 c -0.691,0 -1.316,-0.128 -1.875,-0.384 -0.559,-0.26 -1.002,-0.637 -1.328,-1.129 -0.322,-0.493 -0.483,-1.096 -0.483,-1.811 0,-0.616 0.118,-1.122 0.355,-1.52 0.237,-0.398 0.556,-0.713 0.959,-0.945 0.402,-0.232 0.852,-0.407 1.349,-0.525 0.497,-0.119 1.004,-0.209 1.52,-0.27 0.653,-0.076 1.184,-0.138 1.591,-0.185 0.407,-0.052 0.703,-0.135 0.888,-0.249 0.184,-0.113 0.277,-0.298 0.277,-0.553 v -0.05 c 0,-0.62 -0.176,-1.101 -0.526,-1.442 -0.346,-0.341 -0.862,-0.511 -1.548,-0.511 -0.715,0 -1.279,0.158 -1.691,0.476 -0.407,0.312 -0.688,0.66 -0.845,1.044 l -1.995,-0.455 c 0.236,-0.663 0.582,-1.198 1.036,-1.605 0.46,-0.412 0.988,-0.71 1.584,-0.895 0.597,-0.189 1.224,-0.284 1.882,-0.284 0.436,0 0.898,0.052 1.385,0.156 0.493,0.1 0.952,0.284 1.378,0.554 0.431,0.27 0.784,0.656 1.058,1.158 0.275,0.497 0.412,1.143 0.412,1.939 v 7.244 h -2.074 v -1.491 h -0.085 c -0.137,0.274 -0.343,0.544 -0.618,0.809 -0.274,0.265 -0.627,0.486 -1.058,0.661 -0.431,0.175 -0.947,0.263 -1.548,0.263 z m 0.461,-1.705 c 0.588,0 1.089,-0.116 1.506,-0.348 0.422,-0.232 0.741,-0.535 0.959,-0.909 0.222,-0.379 0.334,-0.784 0.334,-1.215 v -1.406 c -0.076,0.076 -0.223,0.147 -0.441,0.213 -0.213,0.062 -0.456,0.116 -0.731,0.164 -0.275,0.042 -0.542,0.082 -0.803,0.12 -0.26,0.033 -0.478,0.062 -0.653,0.086 -0.412,0.052 -0.788,0.139 -1.129,0.262 -0.337,0.123 -0.606,0.301 -0.81,0.533 -0.199,0.227 -0.298,0.53 -0.298,0.909 0,0.526 0.194,0.923 0.582,1.193 0.388,0.265 0.883,0.398 1.484,0.398 z m 15.726,-6.783 -1.925,0.341 c -0.081,-0.246 -0.209,-0.48 -0.384,-0.703 -0.17,-0.222 -0.402,-0.405 -0.696,-0.547 -0.293,-0.142 -0.66,-0.213 -1.101,-0.213 -0.601,0 -1.103,0.135 -1.505,0.405 -0.403,0.265 -0.604,0.608 -0.604,1.03 0,0.364 0.135,0.658 0.405,0.88 0.27,0.223 0.705,0.405 1.307,0.547 l 1.733,0.398 c 1.003,0.232 1.752,0.59 2.244,1.073 0.492,0.482 0.739,1.11 0.739,1.882 0,0.653 -0.19,1.235 -0.569,1.747 -0.374,0.506 -0.897,0.904 -1.569,1.193 -0.668,0.289 -1.442,0.433 -2.323,0.433 -1.221,0 -2.218,-0.26 -2.99,-0.781 -0.771,-0.526 -1.245,-1.271 -1.42,-2.237 l 2.052,-0.313 c 0.128,0.535 0.391,0.94 0.789,1.215 0.398,0.27 0.916,0.405 1.555,0.405 0.696,0 1.253,-0.145 1.669,-0.434 0.417,-0.293 0.625,-0.651 0.625,-1.072 0,-0.341 -0.128,-0.627 -0.383,-0.859 -0.251,-0.232 -0.637,-0.408 -1.158,-0.526 l -1.847,-0.405 c -1.018,-0.232 -1.77,-0.601 -2.258,-1.108 -0.483,-0.506 -0.725,-1.148 -0.725,-1.925 0,-0.643 0.18,-1.207 0.54,-1.69 0.36,-0.483 0.857,-0.859 1.492,-1.129 0.634,-0.275 1.361,-0.412 2.18,-0.412 1.179,0 2.107,0.256 2.784,0.767 0.677,0.507 1.125,1.186 1.343,2.038 z m 7.44,-2.663 v 1.705 h -5.959 v -1.705 z m -4.361,-2.614 h 2.124 v 10.32 c 0,0.412 0.061,0.722 0.184,0.93 0.123,0.204 0.282,0.344 0.476,0.419 0.199,0.071 0.414,0.107 0.646,0.107 0.171,0 0.32,-0.012 0.448,-0.036 0.128,-0.023 0.227,-0.042 0.298,-0.056 l 0.384,1.754 c -0.123,0.047 -0.299,0.095 -0.526,0.142 -0.227,0.052 -0.511,0.08 -0.852,0.085 -0.559,0.01 -1.08,-0.09 -1.563,-0.298 -0.483,-0.209 -0.873,-0.53 -1.172,-0.966 -0.298,-0.436 -0.447,-0.983 -0.447,-1.641 z m 10.988,13.743 c -1.023,0 -1.915,-0.234 -2.678,-0.703 -0.762,-0.469 -1.354,-1.124 -1.775,-1.967 -0.422,-0.843 -0.632,-1.828 -0.632,-2.955 0,-1.131 0.21,-2.121 0.632,-2.969 0.421,-0.847 1.013,-1.505 1.775,-1.974 0.763,-0.469 1.655,-0.703 2.678,-0.703 1.023,0 1.915,0.234 2.677,0.703 0.763,0.469 1.355,1.127 1.776,1.974 0.421,0.848 0.632,1.838 0.632,2.969 0,1.127 -0.211,2.112 -0.632,2.955 -0.421,0.843 -1.013,1.498 -1.776,1.967 -0.762,0.469 -1.654,0.703 -2.677,0.703 z m 0.007,-1.782 c 0.663,0 1.212,-0.176 1.648,-0.526 0.435,-0.35 0.757,-0.817 0.966,-1.399 0.213,-0.583 0.319,-1.224 0.319,-1.925 0,-0.696 -0.106,-1.335 -0.319,-1.917 -0.209,-0.588 -0.531,-1.059 -0.966,-1.414 -0.436,-0.355 -0.985,-0.533 -1.648,-0.533 -0.668,0 -1.222,0.178 -1.662,0.533 -0.436,0.355 -0.76,0.826 -0.973,1.414 -0.208,0.582 -0.312,1.221 -0.312,1.917 0,0.701 0.104,1.342 0.312,1.925 0.213,0.582 0.537,1.049 0.973,1.399 0.44,0.35 0.994,0.526 1.662,0.526 z m 15.423,-6.684 -1.925,0.341 c -0.08,-0.246 -0.208,-0.48 -0.383,-0.703 -0.17,-0.222 -0.402,-0.405 -0.696,-0.547 -0.294,-0.142 -0.661,-0.213 -1.101,-0.213 -0.601,0 -1.103,0.135 -1.506,0.405 -0.402,0.265 -0.603,0.608 -0.603,1.03 0,0.364 0.135,0.658 0.405,0.88 0.269,0.223 0.705,0.405 1.306,0.547 l 1.733,0.398 c 1.004,0.232 1.752,0.59 2.245,1.073 0.492,0.482 0.738,1.11 0.738,1.882 0,0.653 -0.189,1.235 -0.568,1.747 -0.374,0.506 -0.897,0.904 -1.57,1.193 -0.667,0.289 -1.441,0.433 -2.322,0.433 -1.222,0 -2.218,-0.26 -2.99,-0.781 -0.772,-0.526 -1.245,-1.271 -1.42,-2.237 l 2.052,-0.313 c 0.128,0.535 0.391,0.94 0.788,1.215 0.398,0.27 0.917,0.405 1.556,0.405 0.696,0 1.252,-0.145 1.669,-0.434 0.417,-0.293 0.625,-0.651 0.625,-1.072 0,-0.341 -0.128,-0.627 -0.384,-0.859 -0.251,-0.232 -0.636,-0.408 -1.157,-0.526 l -1.847,-0.405 c -1.018,-0.232 -1.771,-0.601 -2.258,-1.108 -0.483,-0.506 -0.725,-1.148 -0.725,-1.925 0,-0.643 0.18,-1.207 0.54,-1.69 0.36,-0.483 0.857,-0.859 1.491,-1.129 0.635,-0.275 1.362,-0.412 2.181,-0.412 1.179,0 2.107,0.256 2.784,0.767 0.677,0.507 1.124,1.186 1.342,2.038 z m 6.943,8.466 c -1.022,0 -1.915,-0.234 -2.677,-0.703 -0.763,-0.469 -1.354,-1.124 -1.776,-1.967 -0.421,-0.843 -0.632,-1.828 -0.632,-2.955 0,-1.131 0.211,-2.121 0.632,-2.969 0.422,-0.847 1.013,-1.505 1.776,-1.974 0.762,-0.469 1.655,-0.703 2.677,-0.703 1.023,0 1.916,0.234 2.678,0.703 0.762,0.469 1.354,1.127 1.775,1.974 0.422,0.848 0.633,1.838 0.633,2.969 0,1.127 -0.211,2.112 -0.633,2.955 -0.421,0.843 -1.013,1.498 -1.775,1.967 -0.762,0.469 -1.655,0.703 -2.678,0.703 z m 0.007,-1.782 c 0.663,0 1.213,-0.176 1.648,-0.526 0.436,-0.35 0.758,-0.817 0.966,-1.399 0.213,-0.583 0.32,-1.224 0.32,-1.925 0,-0.696 -0.107,-1.335 -0.32,-1.917 -0.208,-0.588 -0.53,-1.059 -0.966,-1.414 -0.435,-0.355 -0.985,-0.533 -1.648,-0.533 -0.667,0 -1.221,0.178 -1.662,0.533 -0.435,0.355 -0.759,0.826 -0.973,1.414 -0.208,0.582 -0.312,1.221 -0.312,1.917 0,0.701 0.104,1.342 0.312,1.925 0.214,0.582 0.538,1.049 0.973,1.399 0.441,0.35 0.995,0.526 1.662,0.526 z m 9.282,1.562 -3.21,-10.909 h 2.194 l 2.138,8.011 h 0.107 l 2.145,-8.011 h 2.194 l 2.131,7.976 h 0.106 l 2.124,-7.976 h 2.195 l -3.204,10.909 h -2.166 l -2.216,-7.876 h -0.163 l -2.216,7.876 z m 17.114,0.242 c -0.692,0 -1.317,-0.128 -1.875,-0.384 -0.559,-0.26 -1.002,-0.637 -1.329,-1.129 -0.322,-0.493 -0.483,-1.096 -0.483,-1.811 0,-0.616 0.119,-1.122 0.356,-1.52 0.236,-0.398 0.556,-0.713 0.958,-0.945 0.403,-0.232 0.853,-0.407 1.35,-0.525 0.497,-0.119 1.004,-0.209 1.52,-0.27 0.653,-0.076 1.183,-0.138 1.591,-0.185 0.407,-0.052 0.703,-0.135 0.887,-0.249 0.185,-0.113 0.277,-0.298 0.277,-0.553 v -0.05 c 0,-0.62 -0.175,-1.101 -0.525,-1.442 -0.346,-0.341 -0.862,-0.511 -1.549,-0.511 -0.714,0 -1.278,0.158 -1.69,0.476 -0.407,0.312 -0.689,0.66 -0.845,1.044 l -1.996,-0.455 c 0.237,-0.663 0.583,-1.198 1.037,-1.605 0.459,-0.412 0.987,-0.71 1.584,-0.895 0.597,-0.189 1.224,-0.284 1.882,-0.284 0.436,0 0.897,0.052 1.385,0.156 0.492,0.1 0.952,0.284 1.378,0.554 0.431,0.27 0.783,0.656 1.058,1.158 0.275,0.497 0.412,1.143 0.412,1.939 v 7.244 h -2.074 v -1.491 h -0.085 c -0.137,0.274 -0.343,0.544 -0.618,0.809 -0.275,0.265 -0.627,0.486 -1.058,0.661 -0.431,0.175 -0.947,0.263 -1.548,0.263 z m 0.461,-1.705 c 0.587,0 1.089,-0.116 1.506,-0.348 0.421,-0.232 0.741,-0.535 0.959,-0.909 0.222,-0.379 0.333,-0.784 0.333,-1.215 v -1.406 c -0.075,0.076 -0.222,0.147 -0.44,0.213 -0.213,0.062 -0.457,0.116 -0.731,0.164 -0.275,0.042 -0.543,0.082 -0.803,0.12 -0.26,0.033 -0.478,0.062 -0.653,0.086 -0.412,0.052 -0.789,0.139 -1.13,0.262 -0.336,0.123 -0.606,0.301 -0.809,0.533 -0.199,0.227 -0.299,0.53 -0.299,0.909 0,0.526 0.195,0.923 0.583,1.193 0.388,0.265 0.883,0.398 1.484,0.398 z m 9.674,-5.014 v 6.477 h -2.123 v -10.909 h 2.038 v 1.776 h 0.135 c 0.251,-0.578 0.644,-1.042 1.179,-1.393 0.54,-0.35 1.219,-0.525 2.038,-0.525 0.744,0 1.395,0.156 1.953,0.469 0.559,0.307 0.992,0.767 1.3,1.378 0.308,0.61 0.462,1.366 0.462,2.265 v 6.939 h -2.124 v -6.683 c 0,-0.791 -0.206,-1.409 -0.618,-1.854 -0.412,-0.45 -0.978,-0.675 -1.697,-0.675 -0.493,0 -0.931,0.107 -1.314,0.32 -0.379,0.213 -0.68,0.526 -0.902,0.938 -0.218,0.407 -0.327,0.899 -0.327,1.477 z m 1.548,-5.888 1.662,-3.274 h 2.238 l -2.202,3.274 z m 9.481,12.5 c -0.388,0 -0.722,-0.137 -1.002,-0.412 -0.279,-0.279 -0.419,-0.615 -0.419,-1.008 0,-0.389 0.14,-0.72 0.419,-0.995 0.28,-0.279 0.614,-0.419 1.002,-0.419 0.388,0 0.722,0.14 1.001,0.419 0.28,0.275 0.419,0.606 0.419,0.995 0,0.26 -0.066,0.499 -0.199,0.717 -0.127,0.213 -0.298,0.383 -0.511,0.511 -0.213,0.128 -0.45,0.192 -0.71,0.192 z"
       fill="#ffffff"
       id="path25" />
  </g>
  <defs
     id="defs74">
    <filter
       id="filter0_d_188_539"
       x="9.7274802e-05"
       y="9.7274802e-05"
       width="1026.96"
       height="984.89001"
       filterUnits="userSpaceOnUse"
       color-interpolation-filters="sRGB">
      <feFlood
         flood-opacity="0"
         result="BackgroundImageFix"
         id="feFlood25" />
      <feColorMatrix
         in="SourceAlpha"
         type="matrix"
         values="0 0 0 0 0 0 0 0 0 0 0 0 0 0 0 0 0 0 127 0"
         result="hardAlpha"
         id="feColorMatrix25" />
      <feOffset
         dx="9"
         id="feOffset25" />
      <feGaussianBlur
         stdDeviation="12.8"
         id="feGaussianBlur25" />
      <feComposite
         in2="hardAlpha"
         operator="out"
         id="feComposite25" />
      <feColorMatrix
         type="matrix"
         values="0 0 0 0 0 0 0 0 0 0 0 0 0 0 0 0 0 0 0.12 0"
         id="feColorMatrix26" />
      <feBlend
         mode="normal"
         in2="BackgroundImageFix"
         result="effect1_dropShadow_188_539"
         id="feBlend26" />
      <feBlend
         mode="normal"
         in="SourceGraphic"
         in2="effect1_dropShadow_188_539"
         result="shape"
         id="feBlend27" />
    </filter>
    <linearGradient
       id="paint0_linear_188_539"
       x1="126.461"
       y1="177.008"
       x2="749.461"
       y2="814.008"
       gradientUnits="userSpaceOnUse">
      <stop
         stop-color="#E75D77"
         id="stop27" />
      <stop
         offset="1"
         stop-color="#EE9D55"
         id="stop28" />
    </linearGradient>
    <linearGradient
       id="paint1_linear_188_539"
       x1="126.976"
       y1="356.07901"
       x2="185.03"
       y2="572.74103"
       gradientUnits="userSpaceOnUse">
      <stop
         stop-color="#FF0F7B"
         id="stop29" />
      <stop
         offset="1"
         stop-color="#F89B29"
         id="stop30" />
    </linearGradient>
    <linearGradient
       id="paint2_linear_188_539"
       x1="390.625"
       y1="749.87"
       x2="448.67999"
       y2="966.53198"
       gradientUnits="userSpaceOnUse">
      <stop
         stop-color="#FF0F7B"
         id="stop31" />
      <stop
         offset="1"
         stop-color="#F89B29"
         id="stop32" />
    </linearGradient>
    <linearGradient
       id="paint3_linear_188_539"
       x1="185.614"
       y1="215.16"
       x2="243.668"
       y2="431.82199"
       gradientUnits="userSpaceOnUse">
      <stop
         stop-color="#FF0F7B"
         id="stop33" />
      <stop
         offset="1"
         stop-color="#F89B29"
         id="stop34" />
    </linearGradient>
    <linearGradient
       id="paint4_linear_188_539"
       x1="53.5863"
       y1="18.3181"
       x2="111.641"
       y2="234.98"
       gradientUnits="userSpaceOnUse"
       gradientTransform="matrix(0.14951917,0,0,0.15197286,126.40441,193.09454)">
      <stop
         stop-color="#FF0F7B"
         id="stop35" />
      <stop
         offset="1"
         stop-color="#F89B29"
         id="stop36" />
    </linearGradient>
    <linearGradient
       id="paint5_linear_188_539"
       x1="317.43799"
       y1="412.05499"
       x2="375.49301"
       y2="628.71802"
       gradientUnits="userSpaceOnUse">
      <stop
         stop-color="#FF0F7B"
         id="stop37" />
      <stop
         offset="1"
         stop-color="#F89B29"
         id="stop38" />
    </linearGradient>
    <linearGradient
       id="paint6_linear_188_539"
       x1="449.061"
       y1="609.005"
       x2="507.11499"
       y2="825.66699"
       gradientUnits="userSpaceOnUse">
      <stop
         stop-color="#FF0F7B"
         id="stop39" />
      <stop
         offset="1"
         stop-color="#F89B29"
         id="stop40" />
    </linearGradient>
    <linearGradient
       id="paint7_linear_188_539"
       x1="644.07202"
       y1="681.95898"
       x2="702.12701"
       y2="898.62097"
       gradientUnits="userSpaceOnUse">
      <stop
         stop-color="#FF0F7B"
         id="stop41" />
      <stop
         offset="1"
         stop-color="#F89B29"
         id="stop42" />
    </linearGradient>
    <linearGradient
       id="paint8_linear_188_539"
       x1="191.976"
       y1="677.89099"
       x2="250.03101"
       y2="894.55298"
       gradientUnits="userSpaceOnUse">
      <stop
         stop-color="#FF0F7B"
         id="stop43" />
      <stop
         offset="1"
         stop-color="#F89B29"
         id="stop44" />
    </linearGradient>
    <linearGradient
       id="paint9_linear_188_539"
       x1="60.353901"
       y1="480.94101"
       x2="118.408"
       y2="697.60303"
       gradientUnits="userSpaceOnUse">
      <stop
         stop-color="#FF0F7B"
         id="stop45" />
      <stop
         offset="1"
         stop-color="#F89B29"
         id="stop46" />
    </linearGradient>
    <linearGradient
       id="paint10_linear_188_539"
       x1="380.422"
       y1="288.168"
       x2="438.47699"
       y2="504.82999"
       gradientUnits="userSpaceOnUse">
      <stop
         stop-color="#FF0F7B"
         id="stop47" />
      <stop
         offset="1"
         stop-color="#F89B29"
         id="stop48" />
    </linearGradient>
    <linearGradient
       id="paint11_linear_188_539"
       x1="248.8"
       y1="91.218002"
       x2="306.854"
       y2="307.88"
       gradientUnits="userSpaceOnUse">
      <stop
         stop-color="#FF0F7B"
         id="stop49" />
      <stop
         offset="1"
         stop-color="#F89B29"
         id="stop50" />
    </linearGradient>
    <linearGradient
       id="paint12_linear_188_539"
       x1="512.24701"
       y1="485.06299"
       x2="570.302"
       y2="701.72601"
       gradientUnits="userSpaceOnUse">
      <stop
         stop-color="#FF0F7B"
         id="stop51" />
      <stop
         offset="1"
         stop-color="#F89B29"
         id="stop52" />
    </linearGradient>
    <linearGradient
       id="paint13_linear_188_539"
       x1="439.06"
       y1="147.24899"
       x2="497.11401"
       y2="363.91101"
       gradientUnits="userSpaceOnUse">
      <stop
         stop-color="#FF0F7B"
         id="stop53" />
      <stop
         offset="1"
         stop-color="#F89B29"
         id="stop54" />
    </linearGradient>
    <linearGradient
       id="paint14_linear_188_539"
       x1="570.88501"
       y1="344.14401"
       x2="628.93903"
       y2="560.80701"
       gradientUnits="userSpaceOnUse">
      <stop
         stop-color="#FF0F7B"
         id="stop55" />
      <stop
         offset="1"
         stop-color="#F89B29"
         id="stop56" />
    </linearGradient>
    <linearGradient
       id="paint15_linear_188_539"
       x1="702.50702"
       y1="541.09399"
       x2="760.56201"
       y2="757.75702"
       gradientUnits="userSpaceOnUse">
      <stop
         stop-color="#FF0F7B"
         id="stop57" />
      <stop
         offset="1"
         stop-color="#F89B29"
         id="stop58" />
    </linearGradient>
    <linearGradient
       id="paint16_linear_188_539"
       x1="633.86902"
       y1="220.257"
       x2="691.92401"
       y2="436.91901"
       gradientUnits="userSpaceOnUse">
      <stop
         stop-color="#FF0F7B"
         id="stop59" />
      <stop
         offset="1"
         stop-color="#F89B29"
         id="stop60" />
    </linearGradient>
    <linearGradient
       id="paint17_linear_188_539"
       x1="502.59698"
       y1="23.393"
       x2="560.651"
       y2="240.05499"
       gradientUnits="userSpaceOnUse">
      <stop
         stop-color="#FF0F7B"
         id="stop61" />
      <stop
         offset="1"
         stop-color="#F89B29"
         id="stop62" />
    </linearGradient>
    <linearGradient
       id="paint18_linear_188_539"
       x1="765.69397"
       y1="417.15302"
       x2="823.74799"
       y2="633.815"
       gradientUnits="userSpaceOnUse">
      <stop
         stop-color="#FF0F7B"
         id="stop63" />
      <stop
         offset="1"
         stop-color="#F89B29"
         id="stop64" />
    </linearGradient>
    <linearGradient
       id="paint19_linear_188_539"
       x1="897.51801"
       y1="614.04797"
       x2="955.573"
       y2="830.711"
       gradientUnits="userSpaceOnUse">
      <stop
         stop-color="#FF0F7B"
         id="stop65" />
      <stop
         offset="1"
         stop-color="#F89B29"
         id="stop66" />
    </linearGradient>
    <linearGradient
       id="paint20_linear_188_539"
       x1="692.50598"
       y1="79.338097"
       x2="750.56097"
       y2="296"
       gradientUnits="userSpaceOnUse">
      <stop
         stop-color="#FF0F7B"
         id="stop67" />
      <stop
         offset="1"
         stop-color="#F89B29"
         id="stop68" />
    </linearGradient>
    <linearGradient
       id="paint21_linear_188_539"
       x1="824.33099"
       y1="276.23401"
       x2="882.38501"
       y2="492.896"
       gradientUnits="userSpaceOnUse">
      <stop
         stop-color="#FF0F7B"
         id="stop69" />
      <stop
         offset="1"
         stop-color="#F89B29"
         id="stop70" />
    </linearGradient>
    <linearGradient
       id="paint22_linear_188_539"
       x1="887.315"
       y1="152.34599"
       x2="945.37"
       y2="369.009"
       gradientUnits="userSpaceOnUse">
      <stop
         stop-color="#FF0F7B"
         id="stop71" />
      <stop
         offset="1"
         stop-color="#F89B29"
         id="stop72" />
    </linearGradient>
    <linearGradient
       id="paint23_linear_188_539"
       x1="258.80099"
       y1="552.974"
       x2="316.85599"
       y2="769.63702"
       gradientUnits="userSpaceOnUse">
      <stop
         stop-color="#FF0F7B"
         id="stop73" />
      <stop
         offset="1"
         stop-color="#F89B29"
         id="stop74" />
    </linearGradient>
  </defs>
</svg>
