<svg width="783" height="909" viewBox="0 0 783 909" fill="none" xmlns="http://www.w3.org/2000/svg">
<rect width="783" height="909" rx="32" fill="url(#paint0_linear_190_571)"/>
<line opacity="0.21" x1="45" y1="255" x2="578" y2="255" stroke="white" stroke-width="2"/>
<path d="M75.51 82.148C75.51 86.792 74.16 90.248 71.46 92.516C68.76 94.748 65.16 95.864 60.66 95.864C56.412 95.864 52.974 94.73 50.346 92.462C47.718 90.194 46.17 86.846 45.702 82.418C45.63 81.41 45.612 80.762 45.648 80.474L53.424 79.772V80.636C53.424 81.068 53.442 81.392 53.478 81.608C53.766 84.236 54.504 86.162 55.692 87.386C56.916 88.61 58.572 89.222 60.66 89.222C62.856 89.222 64.512 88.61 65.628 87.386C66.744 86.162 67.302 84.236 67.302 81.608V56.444H75.51V82.148ZM106.481 86.522C105.797 89.006 104.321 91.148 102.053 92.948C99.7851 94.748 96.5991 95.648 92.4951 95.648C89.5791 95.648 87.0411 95.054 84.8811 93.866C82.7211 92.642 81.0651 90.914 79.9131 88.682C78.7611 86.414 78.1851 83.768 78.1851 80.744C78.1851 77.684 78.7431 75.038 79.8591 72.806C81.0111 70.538 82.6491 68.792 84.7731 67.568C86.9331 66.344 89.4891 65.732 92.4411 65.732C95.2851 65.732 97.7871 66.308 99.9471 67.46C102.107 68.612 103.781 70.322 104.969 72.59C106.157 74.822 106.751 77.504 106.751 80.636C106.751 81.356 106.733 81.914 106.697 82.31H85.8531C85.9251 84.722 86.5551 86.666 87.7431 88.142C88.9311 89.582 90.5151 90.302 92.4951 90.302C94.3671 90.302 95.7891 89.87 96.7611 89.006C97.7331 88.106 98.3991 87.062 98.7591 85.874L106.481 86.522ZM92.4411 71.024C90.5331 71.024 89.0031 71.636 87.8511 72.86C86.7351 74.084 86.1051 75.614 85.9611 77.45H98.9751C98.8311 75.578 98.1831 74.048 97.0311 72.86C95.9151 71.636 94.3851 71.024 92.4411 71.024ZM121.02 65.732C123 65.732 124.71 66.092 126.15 66.812C127.626 67.496 128.778 68.468 129.606 69.728H129.822V55.904H137.382V95H130.146V91.274H129.93C129.102 92.75 127.914 93.848 126.366 94.568C124.854 95.288 123.126 95.648 121.182 95.648C118.77 95.648 116.61 95.036 114.702 93.812C112.794 92.588 111.3 90.86 110.22 88.628C109.14 86.36 108.6 83.732 108.6 80.744C108.6 77.756 109.122 75.128 110.166 72.86C111.246 70.556 112.722 68.792 114.594 67.568C116.502 66.344 118.644 65.732 121.02 65.732ZM123.288 89.87C125.448 89.87 127.14 89.096 128.364 87.548C129.624 85.964 130.254 83.696 130.254 80.744C130.254 77.792 129.624 75.524 128.364 73.94C127.14 72.32 125.448 71.51 123.288 71.51C121.128 71.51 119.418 72.302 118.158 73.886C116.898 75.47 116.268 77.756 116.268 80.744C116.268 83.696 116.898 85.964 118.158 87.548C119.418 89.096 121.128 89.87 123.288 89.87ZM147.962 70.214C150.086 67.226 153.092 65.732 156.98 65.732C159.896 65.732 162.29 66.614 164.162 68.378C166.07 70.142 167.024 72.734 167.024 76.154V95H159.464V78.098C159.464 75.866 159.014 74.264 158.114 73.292C157.25 72.32 155.918 71.834 154.118 71.834C152.426 71.834 150.986 72.5 149.798 73.832C148.646 75.128 148.07 77 148.07 79.448V95H140.51V66.434H147.746V70.214H147.962ZM188.98 95C188.728 94.712 188.53 94.226 188.386 93.542C188.242 92.822 188.17 91.976 188.17 91.004C187.378 92.48 186.1 93.632 184.336 94.46C182.608 95.252 180.736 95.648 178.72 95.648C177.028 95.648 175.444 95.306 173.968 94.622C172.528 93.938 171.358 92.966 170.458 91.706C169.594 90.41 169.162 88.898 169.162 87.17C169.162 84.254 170.152 82.094 172.132 80.69C174.112 79.286 177.082 78.35 181.042 77.882C183.778 77.522 185.632 77.126 186.604 76.694C187.612 76.226 188.116 75.542 188.116 74.642C188.116 73.562 187.702 72.716 186.874 72.104C186.046 71.456 184.804 71.132 183.148 71.132C181.78 71.132 180.556 71.492 179.476 72.212C178.432 72.932 177.694 73.994 177.262 75.398L170.296 74.318C170.908 71.654 172.384 69.566 174.724 68.054C177.064 66.506 179.926 65.732 183.31 65.732C187.45 65.732 190.546 66.56 192.598 68.216C194.65 69.872 195.676 72.122 195.676 74.966V89.276C195.676 90.932 195.712 92.174 195.784 93.002C195.892 93.794 196.108 94.46 196.432 95H188.98ZM188.116 80.906C187.684 81.266 186.946 81.572 185.902 81.824C184.894 82.04 183.562 82.256 181.906 82.472C180.394 82.724 179.17 83.21 178.234 83.93C177.334 84.614 176.884 85.586 176.884 86.846C176.884 87.998 177.244 88.898 177.964 89.546C178.72 90.158 179.746 90.464 181.042 90.464C182.158 90.464 183.256 90.23 184.336 89.762C185.416 89.294 186.316 88.574 187.036 87.602C187.756 86.594 188.116 85.352 188.116 83.876V80.906ZM227.398 95C227.146 94.712 226.948 94.226 226.804 93.542C226.66 92.822 226.588 91.976 226.588 91.004C225.796 92.48 224.518 93.632 222.754 94.46C221.026 95.252 219.154 95.648 217.138 95.648C215.446 95.648 213.862 95.306 212.386 94.622C210.946 93.938 209.776 92.966 208.876 91.706C208.012 90.41 207.58 88.898 207.58 87.17C207.58 84.254 208.57 82.094 210.55 80.69C212.53 79.286 215.5 78.35 219.46 77.882C222.196 77.522 224.05 77.126 225.022 76.694C226.03 76.226 226.534 75.542 226.534 74.642C226.534 73.562 226.12 72.716 225.292 72.104C224.464 71.456 223.222 71.132 221.566 71.132C220.198 71.132 218.974 71.492 217.894 72.212C216.85 72.932 216.112 73.994 215.68 75.398L208.714 74.318C209.326 71.654 210.802 69.566 213.142 68.054C215.482 66.506 218.344 65.732 221.728 65.732C225.868 65.732 228.964 66.56 231.016 68.216C233.068 69.872 234.094 72.122 234.094 74.966V89.276C234.094 90.932 234.13 92.174 234.202 93.002C234.31 93.794 234.526 94.46 234.85 95H227.398ZM226.534 80.906C226.102 81.266 225.364 81.572 224.32 81.824C223.312 82.04 221.98 82.256 220.324 82.472C218.812 82.724 217.588 83.21 216.652 83.93C215.752 84.614 215.302 85.586 215.302 86.846C215.302 87.998 215.662 88.898 216.382 89.546C217.138 90.158 218.164 90.464 219.46 90.464C220.576 90.464 221.674 90.23 222.754 89.762C223.834 89.294 224.734 88.574 225.454 87.602C226.174 86.594 226.534 85.352 226.534 83.876V80.906ZM253.535 95.648C251.555 95.648 249.845 95.306 248.405 94.622C246.965 93.938 245.831 92.948 245.003 91.652H244.787V104.936H237.227V66.434H244.409V70.16H244.625C245.489 68.648 246.677 67.532 248.189 66.812C249.701 66.092 251.447 65.732 253.427 65.732C255.839 65.732 257.999 66.344 259.907 67.568C261.815 68.792 263.309 70.538 264.389 72.806C265.469 75.074 266.009 77.702 266.009 80.69C266.009 83.678 265.469 86.306 264.389 88.574C263.309 90.842 261.815 92.588 259.907 93.812C258.035 95.036 255.911 95.648 253.535 95.648ZM251.321 71.51C249.161 71.51 247.451 72.302 246.191 73.886C244.967 75.47 244.355 77.738 244.355 80.69C244.355 83.642 244.967 85.91 246.191 87.494C247.451 89.078 249.161 89.87 251.321 89.87C253.481 89.87 255.173 89.096 256.397 87.548C257.657 85.964 258.287 83.678 258.287 80.69C258.287 77.738 257.657 75.47 256.397 73.886C255.173 72.302 253.481 71.51 251.321 71.51ZM276.205 55.904V95H268.645V55.904H276.205ZM287.108 66.434V95H279.548V66.434H287.108ZM287.108 55.904V62.384H279.548V55.904H287.108ZM297.958 95H290.398V55.904H297.958V77.504L308.272 66.434H316.966L306.274 77.396L318.208 95H309.406L301.144 82.418L297.958 85.712V95ZM337.444 95C337.192 94.712 336.994 94.226 336.85 93.542C336.706 92.822 336.634 91.976 336.634 91.004C335.842 92.48 334.564 93.632 332.8 94.46C331.072 95.252 329.2 95.648 327.184 95.648C325.492 95.648 323.908 95.306 322.432 94.622C320.992 93.938 319.822 92.966 318.922 91.706C318.058 90.41 317.626 88.898 317.626 87.17C317.626 84.254 318.616 82.094 320.596 80.69C322.576 79.286 325.546 78.35 329.506 77.882C332.242 77.522 334.096 77.126 335.068 76.694C336.076 76.226 336.58 75.542 336.58 74.642C336.58 73.562 336.166 72.716 335.338 72.104C334.51 71.456 333.268 71.132 331.612 71.132C330.244 71.132 329.02 71.492 327.94 72.212C326.896 72.932 326.158 73.994 325.726 75.398L318.76 74.318C319.372 71.654 320.848 69.566 323.188 68.054C325.528 66.506 328.39 65.732 331.774 65.732C335.914 65.732 339.01 66.56 341.062 68.216C343.114 69.872 344.14 72.122 344.14 74.966V89.276C344.14 90.932 344.176 92.174 344.248 93.002C344.356 93.794 344.572 94.46 344.896 95H337.444ZM336.58 80.906C336.148 81.266 335.41 81.572 334.366 81.824C333.358 82.04 332.026 82.256 330.37 82.472C328.858 82.724 327.634 83.21 326.698 83.93C325.798 84.614 325.348 85.586 325.348 86.846C325.348 87.998 325.708 88.898 326.428 89.546C327.184 90.158 328.21 90.464 329.506 90.464C330.622 90.464 331.72 90.23 332.8 89.762C333.88 89.294 334.78 88.574 335.5 87.602C336.22 86.594 336.58 85.352 336.58 83.876V80.906ZM360.827 90.032C364.067 90.032 366.155 88.178 367.091 84.47L374.705 85.334C373.985 88.178 372.509 90.608 370.277 92.624C368.045 94.64 364.895 95.648 360.827 95.648C357.911 95.648 355.373 95.054 353.213 93.866C351.053 92.642 349.397 90.914 348.245 88.682C347.093 86.414 346.517 83.768 346.517 80.744C346.517 77.72 347.093 75.074 348.245 72.806C349.397 70.538 351.053 68.792 353.213 67.568C355.373 66.344 357.911 65.732 360.827 65.732C364.787 65.732 367.847 66.668 370.007 68.54C372.167 70.412 373.589 72.482 374.273 74.75L366.929 76.424C365.885 73.076 363.851 71.402 360.827 71.402C358.775 71.402 357.155 72.212 355.967 73.832C354.779 75.416 354.185 77.72 354.185 80.744C354.185 83.732 354.779 86.036 355.967 87.656C357.155 89.24 358.775 90.032 360.827 90.032ZM374.31 99.428C375.138 99.428 375.75 99.284 376.146 98.996C376.542 98.708 376.74 98.096 376.74 97.16V66.434H384.3V98.51C384.3 100.418 384.03 101.876 383.49 102.884C382.95 103.928 382.14 104.63 381.06 104.99C380.016 105.386 378.612 105.584 376.848 105.584C374.256 105.584 372.726 105.548 372.258 105.476V99.374C372.726 99.41 373.41 99.428 374.31 99.428ZM384.3 55.904V62.384H376.74V55.904H384.3ZM406.435 95C406.183 94.712 405.985 94.226 405.841 93.542C405.697 92.822 405.625 91.976 405.625 91.004C404.833 92.48 403.555 93.632 401.791 94.46C400.063 95.252 398.191 95.648 396.175 95.648C394.483 95.648 392.899 95.306 391.423 94.622C389.983 93.938 388.813 92.966 387.913 91.706C387.049 90.41 386.617 88.898 386.617 87.17C386.617 84.254 387.607 82.094 389.587 80.69C391.567 79.286 394.537 78.35 398.497 77.882C401.233 77.522 403.087 77.126 404.059 76.694C405.067 76.226 405.571 75.542 405.571 74.642C405.571 73.562 405.157 72.716 404.329 72.104C403.501 71.456 402.259 71.132 400.603 71.132C399.235 71.132 398.011 71.492 396.931 72.212C395.887 72.932 395.149 73.994 394.717 75.398L387.751 74.318C388.363 71.654 389.839 69.566 392.179 68.054C394.519 66.506 397.381 65.732 400.765 65.732C404.905 65.732 408.001 66.56 410.053 68.216C412.105 69.872 413.131 72.122 413.131 74.966V89.276C413.131 90.932 413.167 92.174 413.239 93.002C413.347 93.794 413.563 94.46 413.887 95H406.435ZM405.571 80.906C405.139 81.266 404.401 81.572 403.357 81.824C402.349 82.04 401.017 82.256 399.361 82.472C397.849 82.724 396.625 83.21 395.689 83.93C394.789 84.614 394.339 85.586 394.339 86.846C394.339 87.998 394.699 88.898 395.419 89.546C396.175 90.158 397.201 90.464 398.497 90.464C399.613 90.464 400.711 90.23 401.791 89.762C402.871 89.294 403.771 88.574 404.491 87.602C405.211 86.594 405.571 85.352 405.571 83.876V80.906ZM437.671 65.732C439.651 65.732 441.361 66.092 442.801 66.812C444.277 67.496 445.429 68.468 446.257 69.728H446.473V55.904H454.033V95H446.797V91.274H446.581C445.753 92.75 444.565 93.848 443.017 94.568C441.505 95.288 439.777 95.648 437.833 95.648C435.421 95.648 433.261 95.036 431.353 93.812C429.445 92.588 427.951 90.86 426.871 88.628C425.791 86.36 425.251 83.732 425.251 80.744C425.251 77.756 425.773 75.128 426.817 72.86C427.897 70.556 429.373 68.792 431.245 67.568C433.153 66.344 435.295 65.732 437.671 65.732ZM439.939 89.87C442.099 89.87 443.791 89.096 445.015 87.548C446.275 85.964 446.905 83.696 446.905 80.744C446.905 77.792 446.275 75.524 445.015 73.94C443.791 72.32 442.099 71.51 439.939 71.51C437.779 71.51 436.069 72.302 434.809 73.886C433.549 75.47 432.919 77.756 432.919 80.744C432.919 83.696 433.549 85.964 434.809 87.548C436.069 89.096 437.779 89.87 439.939 89.87ZM471.038 65.732C473.99 65.732 476.564 66.344 478.76 67.568C480.956 68.792 482.648 70.538 483.836 72.806C485.024 75.074 485.618 77.72 485.618 80.744C485.618 83.768 485.024 86.414 483.836 88.682C482.648 90.914 480.956 92.642 478.76 93.866C476.564 95.054 473.99 95.648 471.038 95.648C468.05 95.648 465.44 95.054 463.208 93.866C461.012 92.642 459.32 90.914 458.132 88.682C456.98 86.414 456.404 83.768 456.404 80.744C456.404 77.684 456.98 75.038 458.132 72.806C459.32 70.538 461.012 68.792 463.208 67.568C465.44 66.344 468.05 65.732 471.038 65.732ZM471.038 89.978C473.162 89.978 474.836 89.186 476.06 87.602C477.284 86.018 477.896 83.732 477.896 80.744C477.896 77.72 477.284 75.416 476.06 73.832C474.836 72.212 473.162 71.402 471.038 71.402C468.878 71.402 467.168 72.212 465.908 73.832C464.684 75.416 464.072 77.72 464.072 80.744C464.072 83.732 464.684 86.018 465.908 87.602C467.168 89.186 468.878 89.978 471.038 89.978ZM81.936 153H73.512L68.058 133.452H67.842L62.334 153H54.126L44.838 124.434H53.154L58.554 144.414H58.77L63.954 124.434H72.378L77.562 144.414H77.778L83.178 124.434H91.17L81.936 153ZM109.352 133.074C109.064 131.706 108.398 130.644 107.354 129.888C106.346 129.132 105.14 128.754 103.736 128.754C102.332 128.754 101.198 129.06 100.334 129.672C99.47 130.248 99.038 131.076 99.038 132.156C99.038 133.092 99.452 133.776 100.28 134.208C101.108 134.64 102.368 135 104.06 135.288L106.976 135.72C110.144 136.26 112.61 137.142 114.374 138.366C116.174 139.59 117.074 141.642 117.074 144.522C117.074 147.546 115.868 149.832 113.456 151.38C111.044 152.892 107.876 153.648 103.952 153.648C100.208 153.648 97.112 152.856 94.664 151.272C92.252 149.652 90.812 147.456 90.344 144.684L97.418 143.658C97.778 145.35 98.516 146.61 99.632 147.438C100.784 148.266 102.26 148.68 104.06 148.68C105.68 148.68 106.976 148.338 107.948 147.654C108.92 146.97 109.406 146.034 109.406 144.846C109.406 143.874 108.956 143.136 108.056 142.632C107.156 142.128 105.806 141.732 104.006 141.444L100.874 140.958C98.03 140.49 95.744 139.644 94.016 138.42C92.324 137.196 91.478 135.216 91.478 132.48C91.478 130.716 92.018 129.168 93.098 127.836C94.214 126.504 95.708 125.496 97.58 124.812C99.452 124.092 101.504 123.732 103.736 123.732C107.048 123.732 109.856 124.506 112.16 126.054C114.5 127.602 115.886 129.618 116.318 132.102L109.352 133.074ZM118.401 146.898L133.035 130.428H119.157V124.434H142.593V130.482L127.959 147.006H142.593V153H118.401V146.898ZM162.112 153C161.032 155.988 159.898 158.256 158.71 159.804C157.558 161.352 156.316 162.36 154.984 162.828C153.688 163.332 152.122 163.584 150.286 163.584C148.342 163.584 146.83 163.53 145.75 163.422V157.158C146.758 157.302 147.874 157.374 149.098 157.374C150.394 157.374 151.366 157.104 152.014 156.564C152.698 156.024 153.328 155.052 153.904 153.648L154.228 152.73L142.78 124.434H150.988L157.954 143.982H158.17L164.488 124.434H172.534L162.112 153ZM190.578 133.074C190.29 131.706 189.624 130.644 188.58 129.888C187.572 129.132 186.366 128.754 184.962 128.754C183.558 128.754 182.424 129.06 181.56 129.672C180.696 130.248 180.264 131.076 180.264 132.156C180.264 133.092 180.678 133.776 181.506 134.208C182.334 134.64 183.594 135 185.286 135.288L188.202 135.72C191.37 136.26 193.836 137.142 195.6 138.366C197.4 139.59 198.3 141.642 198.3 144.522C198.3 147.546 197.094 149.832 194.682 151.38C192.27 152.892 189.102 153.648 185.178 153.648C181.434 153.648 178.338 152.856 175.89 151.272C173.478 149.652 172.038 147.456 171.57 144.684L178.644 143.658C179.004 145.35 179.742 146.61 180.858 147.438C182.01 148.266 183.486 148.68 185.286 148.68C186.906 148.68 188.202 148.338 189.174 147.654C190.146 146.97 190.632 146.034 190.632 144.846C190.632 143.874 190.182 143.136 189.282 142.632C188.382 142.128 187.032 141.732 185.232 141.444L182.1 140.958C179.256 140.49 176.97 139.644 175.242 138.42C173.55 137.196 172.704 135.216 172.704 132.48C172.704 130.716 173.244 129.168 174.324 127.836C175.44 126.504 176.934 125.496 178.806 124.812C180.678 124.092 182.73 123.732 184.962 123.732C188.274 123.732 191.082 124.506 193.386 126.054C195.726 127.602 197.112 129.618 197.544 132.102L190.578 133.074ZM216.277 147.114V153C215.269 153.072 213.613 153.108 211.309 153.108C209.257 153.108 207.637 152.928 206.449 152.568C205.261 152.172 204.379 151.488 203.803 150.516C203.227 149.508 202.939 148.068 202.939 146.196V129.51H198.403V124.434H202.939V116.442H210.499V124.434H216.493V129.51H210.499V144.306C210.499 145.494 210.733 146.268 211.201 146.628C211.705 146.952 212.587 147.114 213.847 147.114H216.277ZM226.184 153H218.624V113.904H226.184V135.504L236.498 124.434H245.192L234.5 135.396L246.434 153H237.632L229.37 140.418L226.184 143.712V153ZM255.124 124.434V153H247.564V124.434H255.124ZM255.124 113.904V120.384H247.564V113.904H255.124ZM271.967 148.032C275.207 148.032 277.295 146.178 278.231 142.47L285.845 143.334C285.125 146.178 283.649 148.608 281.417 150.624C279.185 152.64 276.035 153.648 271.967 153.648C269.051 153.648 266.513 153.054 264.353 151.866C262.193 150.642 260.537 148.914 259.385 146.682C258.233 144.414 257.657 141.768 257.657 138.744C257.657 135.72 258.233 133.074 259.385 130.806C260.537 128.538 262.193 126.792 264.353 125.568C266.513 124.344 269.051 123.732 271.967 123.732C275.927 123.732 278.987 124.668 281.147 126.54C283.307 128.412 284.729 130.482 285.413 132.75L278.069 134.424C277.025 131.076 274.991 129.402 271.967 129.402C269.915 129.402 268.295 130.212 267.107 131.832C265.919 133.416 265.325 135.72 265.325 138.744C265.325 141.732 265.919 144.036 267.107 145.656C268.295 147.24 269.915 148.032 271.967 148.032ZM295.602 128.214C297.762 125.226 300.714 123.732 304.458 123.732C307.302 123.732 309.66 124.614 311.532 126.378C313.404 128.142 314.34 130.734 314.34 134.154V153H306.78V136.098C306.78 133.866 306.33 132.264 305.43 131.292C304.566 130.32 303.234 129.834 301.434 129.834C300.39 129.834 299.4 130.158 298.464 130.806C297.528 131.418 296.772 132.336 296.196 133.56C295.656 134.748 295.386 136.152 295.386 137.772V153H287.826V113.904H295.386V128.214H295.602ZM346.579 121.248V153H338.479V121.248H326.005V114.444H359.053V121.248H346.579ZM393.497 153H385.073L379.619 133.452H379.403L373.895 153H365.687L356.399 124.434H364.715L370.115 144.414H370.331L375.515 124.434H383.939L389.123 144.414H389.339L394.739 124.434H402.731L393.497 153ZM416.193 123.732C419.145 123.732 421.719 124.344 423.915 125.568C426.111 126.792 427.803 128.538 428.991 130.806C430.179 133.074 430.773 135.72 430.773 138.744C430.773 141.768 430.179 144.414 428.991 146.682C427.803 148.914 426.111 150.642 423.915 151.866C421.719 153.054 419.145 153.648 416.193 153.648C413.205 153.648 410.595 153.054 408.363 151.866C406.167 150.642 404.475 148.914 403.287 146.682C402.135 144.414 401.559 141.768 401.559 138.744C401.559 135.684 402.135 133.038 403.287 130.806C404.475 128.538 406.167 126.792 408.363 125.568C410.595 124.344 413.205 123.732 416.193 123.732ZM416.193 147.978C418.317 147.978 419.991 147.186 421.215 145.602C422.439 144.018 423.051 141.732 423.051 138.744C423.051 135.72 422.439 133.416 421.215 131.832C419.991 130.212 418.317 129.402 416.193 129.402C414.033 129.402 412.323 130.212 411.063 131.832C409.839 133.416 409.227 135.72 409.227 138.744C409.227 141.732 409.839 144.018 411.063 145.602C412.323 147.186 414.033 147.978 416.193 147.978ZM440.924 124.434V153H433.364V124.434H440.924ZM440.924 113.904V120.384H433.364V113.904H440.924ZM457.767 148.032C461.007 148.032 463.095 146.178 464.031 142.47L471.645 143.334C470.925 146.178 469.449 148.608 467.217 150.624C464.985 152.64 461.835 153.648 457.767 153.648C454.851 153.648 452.313 153.054 450.153 151.866C447.993 150.642 446.337 148.914 445.185 146.682C444.033 144.414 443.457 141.768 443.457 138.744C443.457 135.72 444.033 133.074 445.185 130.806C446.337 128.538 447.993 126.792 450.153 125.568C452.313 124.344 454.851 123.732 457.767 123.732C461.727 123.732 464.787 124.668 466.947 126.54C469.107 128.412 470.529 130.482 471.213 132.75L463.869 134.424C462.825 131.076 460.791 129.402 457.767 129.402C455.715 129.402 454.095 130.212 452.907 131.832C451.719 133.416 451.125 135.72 451.125 138.744C451.125 141.732 451.719 144.036 452.907 145.656C454.095 147.24 455.715 148.032 457.767 148.032ZM481.402 128.214C483.562 125.226 486.514 123.732 490.258 123.732C493.102 123.732 495.46 124.614 497.332 126.378C499.204 128.142 500.14 130.734 500.14 134.154V153H492.58V136.098C492.58 133.866 492.13 132.264 491.23 131.292C490.366 130.32 489.034 129.834 487.234 129.834C486.19 129.834 485.2 130.158 484.264 130.806C483.328 131.418 482.572 132.336 481.996 133.56C481.456 134.748 481.186 136.152 481.186 137.772V153H473.626V113.904H481.186V128.214H481.402ZM526.926 118.926C525.81 118.926 524.964 119.16 524.388 119.628C523.812 120.06 523.524 120.852 523.524 122.004V124.434H529.518V129.51H523.524V153H515.964V129.51H511.428V124.434H515.964V121.14C515.964 118.224 516.792 116.19 518.448 115.038C520.14 113.85 522.516 113.256 525.576 113.256C526.656 113.256 528.222 113.364 530.274 113.58V119.088C528.546 118.98 527.43 118.926 526.926 118.926ZM539.579 124.434V153H532.019V124.434H539.579ZM539.579 113.904V120.384H532.019V113.904H539.579ZM550.321 128.214C552.445 125.226 555.451 123.732 559.339 123.732C562.255 123.732 564.649 124.614 566.521 126.378C568.429 128.142 569.383 130.734 569.383 134.154V153H561.823V136.098C561.823 133.866 561.373 132.264 560.473 131.292C559.609 130.32 558.277 129.834 556.477 129.834C554.785 129.834 553.345 130.5 552.157 131.832C551.005 133.128 550.429 135 550.429 137.448V153H542.869V124.434H550.105V128.214H550.321ZM591.339 153C591.087 152.712 590.889 152.226 590.745 151.542C590.601 150.822 590.529 149.976 590.529 149.004C589.737 150.48 588.459 151.632 586.695 152.46C584.967 153.252 583.095 153.648 581.079 153.648C579.387 153.648 577.803 153.306 576.327 152.622C574.887 151.938 573.717 150.966 572.817 149.706C571.953 148.41 571.521 146.898 571.521 145.17C571.521 142.254 572.511 140.094 574.491 138.69C576.471 137.286 579.441 136.35 583.401 135.882C586.137 135.522 587.991 135.126 588.963 134.694C589.971 134.226 590.475 133.542 590.475 132.642C590.475 131.562 590.061 130.716 589.233 130.104C588.405 129.456 587.163 129.132 585.507 129.132C584.139 129.132 582.915 129.492 581.835 130.212C580.791 130.932 580.053 131.994 579.621 133.398L572.655 132.318C573.267 129.654 574.743 127.566 577.083 126.054C579.423 124.506 582.285 123.732 585.669 123.732C589.809 123.732 592.905 124.56 594.957 126.216C597.009 127.872 598.035 130.122 598.035 132.966V147.276C598.035 148.932 598.071 150.174 598.143 151.002C598.251 151.794 598.467 152.46 598.791 153H591.339ZM590.475 138.906C590.043 139.266 589.305 139.572 588.261 139.824C587.253 140.04 585.921 140.256 584.265 140.472C582.753 140.724 581.529 141.21 580.593 141.93C579.693 142.614 579.243 143.586 579.243 144.846C579.243 145.998 579.603 146.898 580.323 147.546C581.079 148.158 582.105 148.464 583.401 148.464C584.517 148.464 585.615 148.23 586.695 147.762C587.775 147.294 588.675 146.574 589.395 145.602C590.115 144.594 590.475 143.352 590.475 141.876V138.906ZM608.62 128.214C610.744 125.226 613.75 123.732 617.638 123.732C620.554 123.732 622.948 124.614 624.82 126.378C626.728 128.142 627.682 130.734 627.682 134.154V153H620.122V136.098C620.122 133.866 619.672 132.264 618.772 131.292C617.908 130.32 616.576 129.834 614.776 129.834C613.084 129.834 611.644 130.5 610.456 131.832C609.304 133.128 608.728 135 608.728 137.448V153H601.168V124.434H608.404V128.214H608.62ZM648.072 133.074C647.784 131.706 647.118 130.644 646.074 129.888C645.066 129.132 643.86 128.754 642.456 128.754C641.052 128.754 639.918 129.06 639.054 129.672C638.19 130.248 637.758 131.076 637.758 132.156C637.758 133.092 638.172 133.776 639 134.208C639.828 134.64 641.088 135 642.78 135.288L645.696 135.72C648.864 136.26 651.33 137.142 653.094 138.366C654.894 139.59 655.794 141.642 655.794 144.522C655.794 147.546 654.588 149.832 652.176 151.38C649.764 152.892 646.596 153.648 642.672 153.648C638.928 153.648 635.832 152.856 633.384 151.272C630.972 149.652 629.532 147.456 629.064 144.684L636.138 143.658C636.498 145.35 637.236 146.61 638.352 147.438C639.504 148.266 640.98 148.68 642.78 148.68C644.4 148.68 645.696 148.338 646.668 147.654C647.64 146.97 648.126 146.034 648.126 144.846C648.126 143.874 647.676 143.136 646.776 142.632C645.876 142.128 644.526 141.732 642.726 141.444L639.594 140.958C636.75 140.49 634.464 139.644 632.736 138.42C631.044 137.196 630.198 135.216 630.198 132.48C630.198 130.716 630.738 129.168 631.818 127.836C632.934 126.504 634.428 125.496 636.3 124.812C638.172 124.092 640.224 123.732 642.456 123.732C645.768 123.732 648.576 124.506 650.88 126.054C653.22 127.602 654.606 129.618 655.038 132.102L648.072 133.074ZM672.079 123.732C675.031 123.732 677.605 124.344 679.801 125.568C681.997 126.792 683.689 128.538 684.877 130.806C686.065 133.074 686.659 135.72 686.659 138.744C686.659 141.768 686.065 144.414 684.877 146.682C683.689 148.914 681.997 150.642 679.801 151.866C677.605 153.054 675.031 153.648 672.079 153.648C669.091 153.648 666.481 153.054 664.249 151.866C662.053 150.642 660.361 148.914 659.173 146.682C658.021 144.414 657.445 141.768 657.445 138.744C657.445 135.684 658.021 133.038 659.173 130.806C660.361 128.538 662.053 126.792 664.249 125.568C666.481 124.344 669.091 123.732 672.079 123.732ZM672.079 147.978C674.203 147.978 675.877 147.186 677.101 145.602C678.325 144.018 678.937 141.732 678.937 138.744C678.937 135.72 678.325 133.416 677.101 131.832C675.877 130.212 674.203 129.402 672.079 129.402C669.919 129.402 668.209 130.212 666.949 131.832C665.725 133.416 665.113 135.72 665.113 138.744C665.113 141.732 665.725 144.018 666.949 145.602C668.209 147.186 669.919 147.978 672.079 147.978ZM669.271 121.194L673.753 112.5H681.691L674.833 121.194H669.271ZM722.553 153H714.129L708.675 133.452H708.459L702.951 153H694.743L685.455 124.434H693.771L699.171 144.414H699.387L704.571 124.434H712.995L718.179 144.414H718.395L723.795 124.434H731.787L722.553 153Z" fill="white"/>
<path d="M55.8771 193.182H59.1584V208.651C59.1584 210.05 58.8814 211.246 58.3274 212.241C57.7805 213.235 57.0099 213.995 56.0156 214.521C55.0213 215.039 53.8565 215.298 52.5213 215.298C51.2926 215.298 50.1882 215.075 49.2081 214.627C48.2351 214.18 47.4645 213.53 46.8963 212.678C46.3352 211.818 46.0547 210.774 46.0547 209.545H49.3253C49.3253 210.149 49.4638 210.671 49.7408 211.112C50.0249 211.552 50.4119 211.896 50.902 212.145C51.3991 212.386 51.9673 212.507 52.6065 212.507C53.3026 212.507 53.892 212.362 54.375 212.07C54.8651 211.772 55.2379 211.335 55.4936 210.76C55.7493 210.185 55.8771 209.482 55.8771 208.651V193.182ZM70.4466 215.33C68.8344 215.33 67.4459 214.986 66.2811 214.297C65.1235 213.601 64.2286 212.624 63.5965 211.367C62.9715 210.103 62.659 208.622 62.659 206.925C62.659 205.249 62.9715 203.771 63.5965 202.493C64.2286 201.214 65.1093 200.217 66.2385 199.499C67.3749 198.782 68.703 198.423 70.2229 198.423C71.1462 198.423 72.0411 198.576 72.9076 198.881C73.774 199.187 74.5517 199.666 75.2407 200.32C75.9296 200.973 76.4729 201.822 76.8706 202.866C77.2684 203.903 77.4672 205.163 77.4672 206.648V207.777H64.4594V205.391H74.3458C74.3458 204.553 74.1753 203.81 73.8344 203.164C73.4935 202.511 73.0141 201.996 72.3962 201.619C71.7854 201.243 71.0681 201.055 70.2442 201.055C69.3493 201.055 68.5681 201.275 67.9005 201.715C67.24 202.148 66.7286 202.717 66.3664 203.42C66.0113 204.116 65.8337 204.872 65.8337 205.689V207.553C65.8337 208.647 66.0255 209.577 66.409 210.344C66.7996 211.112 67.3429 211.697 68.039 212.102C68.735 212.5 69.5482 212.699 70.4786 212.699C71.0823 212.699 71.6327 212.614 72.1299 212.443C72.627 212.266 73.0567 212.003 73.4189 211.655C73.7811 211.307 74.0581 210.877 74.2499 210.366L77.2648 210.909C77.0233 211.797 76.5901 212.575 75.9651 213.242C75.3472 213.903 74.5695 214.418 73.632 214.787C72.7016 215.149 71.6398 215.33 70.4466 215.33ZM86.8272 215.32C85.5062 215.32 84.3272 214.982 83.2903 214.308C82.2604 213.626 81.4508 212.656 80.8613 211.399C80.2789 210.135 79.9877 208.619 79.9877 206.85C79.9877 205.082 80.2825 203.569 80.8719 202.312C81.4685 201.055 82.2853 200.092 83.3222 199.425C84.3592 198.757 85.5346 198.423 86.8485 198.423C87.8641 198.423 88.6809 198.594 89.2988 198.935C89.9238 199.268 90.4067 199.659 90.7477 200.107C91.0957 200.554 91.3656 200.948 91.5573 201.289H91.7491V193.182H94.9344V215H91.8237V212.454H91.5573C91.3656 212.802 91.0886 213.2 90.7264 213.647C90.3712 214.094 89.8812 214.485 89.2562 214.819C88.6312 215.153 87.8215 215.32 86.8272 215.32ZM87.5303 212.603C88.4465 212.603 89.2207 212.362 89.8528 211.879C90.492 211.388 90.9749 210.71 91.3016 209.844C91.6354 208.977 91.8023 207.969 91.8023 206.818C91.8023 205.682 91.639 204.687 91.3123 203.835C90.9856 202.983 90.5062 202.319 89.8741 201.843C89.242 201.367 88.4607 201.129 87.5303 201.129C86.5715 201.129 85.7725 201.378 85.1333 201.875C84.4941 202.372 84.0112 203.05 83.6844 203.91C83.3648 204.769 83.205 205.739 83.205 206.818C83.205 207.912 83.3684 208.896 83.6951 209.769C84.0218 210.643 84.5048 211.335 85.144 211.847C85.7903 212.351 86.5857 212.603 87.5303 212.603ZM102.366 205.284V215H99.1808V198.636H102.238V201.3H102.441C102.817 200.433 103.407 199.737 104.209 199.212C105.019 198.686 106.038 198.423 107.267 198.423C108.382 198.423 109.358 198.658 110.196 199.126C111.034 199.588 111.684 200.277 112.146 201.193C112.608 202.109 112.838 203.242 112.838 204.592V215H109.653V204.975C109.653 203.789 109.344 202.862 108.726 202.195C108.108 201.52 107.26 201.183 106.18 201.183C105.441 201.183 104.784 201.342 104.209 201.662C103.641 201.982 103.19 202.45 102.856 203.068C102.53 203.679 102.366 204.418 102.366 205.284ZM123.703 215.33C122.169 215.33 120.83 214.979 119.687 214.276C118.543 213.572 117.656 212.589 117.024 211.325C116.391 210.06 116.075 208.583 116.075 206.893C116.075 205.195 116.391 203.711 117.024 202.44C117.656 201.168 118.543 200.181 119.687 199.478C120.83 198.775 122.169 198.423 123.703 198.423C125.237 198.423 126.576 198.775 127.72 199.478C128.863 200.181 129.751 201.168 130.383 202.44C131.015 203.711 131.331 205.195 131.331 206.893C131.331 208.583 131.015 210.06 130.383 211.325C129.751 212.589 128.863 213.572 127.72 214.276C126.576 214.979 125.237 215.33 123.703 215.33ZM123.714 212.656C124.708 212.656 125.532 212.393 126.185 211.868C126.839 211.342 127.322 210.643 127.634 209.769C127.954 208.896 128.114 207.933 128.114 206.882C128.114 205.838 127.954 204.879 127.634 204.006C127.322 203.125 126.839 202.418 126.185 201.886C125.532 201.353 124.708 201.087 123.714 201.087C122.712 201.087 121.882 201.353 121.221 201.886C120.568 202.418 120.081 203.125 119.761 204.006C119.449 204.879 119.293 205.838 119.293 206.882C119.293 207.933 119.449 208.896 119.761 209.769C120.081 210.643 120.568 211.342 121.221 211.868C121.882 212.393 122.712 212.656 123.714 212.656ZM145.156 209.45L145.134 205.561H145.688L152.208 198.636H156.022L148.586 206.52H148.085L145.156 209.45ZM142.226 215V193.182H145.411V215H142.226ZM152.56 215L146.701 207.223L148.895 204.996L156.47 215H152.56ZM164.844 215.33C163.31 215.33 161.971 214.979 160.828 214.276C159.684 213.572 158.797 212.589 158.165 211.325C157.532 210.06 157.216 208.583 157.216 206.893C157.216 205.195 157.532 203.711 158.165 202.44C158.797 201.168 159.684 200.181 160.828 199.478C161.971 198.775 163.31 198.423 164.844 198.423C166.378 198.423 167.717 198.775 168.861 199.478C170.004 200.181 170.892 201.168 171.524 202.44C172.156 203.711 172.472 205.195 172.472 206.893C172.472 208.583 172.156 210.06 171.524 211.325C170.892 212.589 170.004 213.572 168.861 214.276C167.717 214.979 166.378 215.33 164.844 215.33ZM164.855 212.656C165.849 212.656 166.673 212.393 167.326 211.868C167.98 211.342 168.463 210.643 168.775 209.769C169.095 208.896 169.255 207.933 169.255 206.882C169.255 205.838 169.095 204.879 168.775 204.006C168.463 203.125 167.98 202.418 167.326 201.886C166.673 201.353 165.849 201.087 164.855 201.087C163.853 201.087 163.023 201.353 162.362 201.886C161.709 202.418 161.222 203.125 160.902 204.006C160.59 204.879 160.434 205.838 160.434 206.882C160.434 207.933 160.59 208.896 160.902 209.769C161.222 210.643 161.709 211.342 162.362 211.868C163.023 212.393 163.853 212.656 164.855 212.656ZM178.913 205.284V215H175.728V198.636H178.785V201.3H178.988C179.364 200.433 179.954 199.737 180.756 199.212C181.566 198.686 182.585 198.423 183.814 198.423C184.929 198.423 185.905 198.658 186.743 199.126C187.581 199.588 188.231 200.277 188.693 201.193C189.155 202.109 189.385 203.242 189.385 204.592V215H186.2V204.975C186.2 203.789 185.891 202.862 185.273 202.195C184.655 201.52 183.807 201.183 182.727 201.183C181.988 201.183 181.331 201.342 180.756 201.662C180.188 201.982 179.737 202.45 179.403 203.068C179.076 203.679 178.913 204.418 178.913 205.284ZM200.996 198.636V201.193H192.058V198.636H200.996ZM194.455 194.716H197.64V210.195C197.64 210.813 197.732 211.278 197.917 211.591C198.102 211.896 198.34 212.106 198.631 212.219C198.929 212.326 199.252 212.379 199.6 212.379C199.856 212.379 200.08 212.362 200.271 212.326C200.463 212.29 200.612 212.262 200.719 212.241L201.294 214.872C201.109 214.943 200.847 215.014 200.506 215.085C200.165 215.163 199.739 215.206 199.227 215.213C198.389 215.227 197.608 215.078 196.884 214.766C196.159 214.453 195.573 213.97 195.126 213.317C194.678 212.663 194.455 211.843 194.455 210.856V194.716ZM210.936 215.33C209.402 215.33 208.064 214.979 206.92 214.276C205.777 213.572 204.889 212.589 204.257 211.325C203.625 210.06 203.309 208.583 203.309 206.893C203.309 205.195 203.625 203.711 204.257 202.44C204.889 201.168 205.777 200.181 206.92 199.478C208.064 198.775 209.402 198.423 210.936 198.423C212.471 198.423 213.809 198.775 214.953 199.478C216.096 200.181 216.984 201.168 217.616 202.44C218.248 203.711 218.564 205.195 218.564 206.893C218.564 208.583 218.248 210.06 217.616 211.325C216.984 212.589 216.096 213.572 214.953 214.276C213.809 214.979 212.471 215.33 210.936 215.33ZM210.947 212.656C211.941 212.656 212.765 212.393 213.419 211.868C214.072 211.342 214.555 210.643 214.868 209.769C215.187 208.896 215.347 207.933 215.347 206.882C215.347 205.838 215.187 204.879 214.868 204.006C214.555 203.125 214.072 202.418 213.419 201.886C212.765 201.353 211.941 201.087 210.947 201.087C209.946 201.087 209.115 201.353 208.454 201.886C207.801 202.418 207.314 203.125 206.995 204.006C206.682 204.879 206.526 205.838 206.526 206.882C206.526 207.933 206.682 208.896 206.995 209.769C207.314 210.643 207.801 211.342 208.454 211.868C209.115 212.393 209.946 212.656 210.947 212.656ZM225.964 212.017L225.804 213.178C225.698 214.031 225.517 214.918 225.261 215.842C225.012 216.772 224.753 217.635 224.483 218.43C224.22 219.226 224.004 219.858 223.833 220.327H221.575C221.667 219.886 221.795 219.29 221.958 218.537C222.122 217.791 222.281 216.957 222.438 216.033C222.594 215.11 222.711 214.169 222.789 213.21L222.896 212.017H225.964ZM243.576 215.32C242.255 215.32 241.076 214.982 240.039 214.308C239.009 213.626 238.2 212.656 237.61 211.399C237.028 210.135 236.737 208.619 236.737 206.85C236.737 205.082 237.031 203.569 237.621 202.312C238.217 201.055 239.034 200.092 240.071 199.425C241.108 198.757 242.283 198.423 243.597 198.423C244.613 198.423 245.43 198.594 246.048 198.935C246.673 199.268 247.156 199.659 247.496 200.107C247.845 200.554 248.114 200.948 248.306 201.289H248.498V193.182H251.683V215H248.572V212.454H248.306C248.114 212.802 247.837 213.2 247.475 213.647C247.12 214.094 246.63 214.485 246.005 214.819C245.38 215.153 244.57 215.32 243.576 215.32ZM244.279 212.603C245.195 212.603 245.97 212.362 246.602 211.879C247.241 211.388 247.724 210.71 248.05 209.844C248.384 208.977 248.551 207.969 248.551 206.818C248.551 205.682 248.388 204.687 248.061 203.835C247.734 202.983 247.255 202.319 246.623 201.843C245.991 201.367 245.21 201.129 244.279 201.129C243.32 201.129 242.521 201.378 241.882 201.875C241.243 202.372 240.76 203.05 240.433 203.91C240.114 204.769 239.954 205.739 239.954 206.818C239.954 207.912 240.117 208.896 240.444 209.769C240.771 210.643 241.254 211.335 241.893 211.847C242.539 212.351 243.335 212.603 244.279 212.603ZM255.589 215V212.816L264.452 201.555V201.406H255.876V198.636H268.426V200.959L259.903 212.081V212.23H268.724V215H255.589ZM272.182 215V198.636H275.368V215H272.182ZM273.791 196.112C273.237 196.112 272.761 195.927 272.363 195.558C271.973 195.181 271.778 194.734 271.778 194.215C271.778 193.69 271.973 193.242 272.363 192.873C272.761 192.496 273.237 192.308 273.791 192.308C274.345 192.308 274.817 192.496 275.208 192.873C275.606 193.242 275.805 193.69 275.805 194.215C275.805 194.734 275.606 195.181 275.208 195.558C274.817 195.927 274.345 196.112 273.791 196.112ZM286.406 215.33C284.793 215.33 283.405 214.986 282.24 214.297C281.082 213.601 280.188 212.624 279.555 211.367C278.93 210.103 278.618 208.622 278.618 206.925C278.618 205.249 278.93 203.771 279.555 202.493C280.188 201.214 281.068 200.217 282.198 199.499C283.334 198.782 284.662 198.423 286.182 198.423C287.105 198.423 288 198.576 288.867 198.881C289.733 199.187 290.511 199.666 291.2 200.32C291.889 200.973 292.432 201.822 292.83 202.866C293.227 203.903 293.426 205.163 293.426 206.648V207.777H280.418V205.391H290.305C290.305 204.553 290.134 203.81 289.793 203.164C289.452 202.511 288.973 201.996 288.355 201.619C287.744 201.243 287.027 201.055 286.203 201.055C285.308 201.055 284.527 201.275 283.859 201.715C283.199 202.148 282.688 202.717 282.325 203.42C281.97 204.116 281.793 204.872 281.793 205.689V207.553C281.793 208.647 281.984 209.577 282.368 210.344C282.759 211.112 283.302 211.697 283.998 212.102C284.694 212.5 285.507 212.699 286.438 212.699C287.041 212.699 287.592 212.614 288.089 212.443C288.586 212.266 289.016 212.003 289.378 211.655C289.74 211.307 290.017 210.877 290.209 210.366L293.224 210.909C292.982 211.797 292.549 212.575 291.924 213.242C291.306 213.903 290.528 214.418 289.591 214.787C288.661 215.149 287.599 215.33 286.406 215.33ZM308.923 202.631L306.035 203.143C305.915 202.773 305.723 202.422 305.46 202.088C305.205 201.754 304.856 201.481 304.416 201.268C303.976 201.055 303.425 200.948 302.765 200.948C301.863 200.948 301.11 201.151 300.506 201.555C299.903 201.953 299.601 202.468 299.601 203.1C299.601 203.647 299.803 204.087 300.208 204.421C300.613 204.755 301.266 205.028 302.168 205.241L304.768 205.838C306.273 206.186 307.396 206.722 308.134 207.447C308.873 208.171 309.242 209.112 309.242 210.27C309.242 211.25 308.958 212.124 308.39 212.891C307.829 213.651 307.044 214.247 306.035 214.68C305.034 215.114 303.873 215.33 302.552 215.33C300.719 215.33 299.224 214.94 298.067 214.158C296.909 213.37 296.199 212.251 295.936 210.803L299.015 210.334C299.207 211.136 299.601 211.744 300.197 212.156C300.794 212.56 301.572 212.763 302.53 212.763C303.575 212.763 304.409 212.546 305.034 212.113C305.659 211.673 305.972 211.136 305.972 210.504C305.972 209.993 305.78 209.563 305.396 209.215C305.02 208.867 304.441 208.604 303.66 208.427L300.89 207.82C299.363 207.472 298.234 206.918 297.502 206.158C296.778 205.398 296.415 204.435 296.415 203.271C296.415 202.305 296.685 201.46 297.225 200.735C297.765 200.011 298.511 199.446 299.462 199.041C300.414 198.629 301.504 198.423 302.733 198.423C304.501 198.423 305.893 198.807 306.909 199.574C307.925 200.334 308.596 201.353 308.923 202.631ZM312.444 215V198.636H315.63V215H312.444ZM314.053 196.112C313.499 196.112 313.023 195.927 312.626 195.558C312.235 195.181 312.04 194.734 312.04 194.215C312.04 193.69 312.235 193.242 312.626 192.873C313.023 192.496 313.499 192.308 314.053 192.308C314.607 192.308 315.079 192.496 315.47 192.873C315.868 193.242 316.067 193.69 316.067 194.215C316.067 194.734 315.868 195.181 315.47 195.558C315.079 195.927 314.607 196.112 314.053 196.112ZM324.377 215.362C323.34 215.362 322.403 215.17 321.565 214.787C320.727 214.396 320.063 213.832 319.573 213.093C319.09 212.354 318.848 211.449 318.848 210.376C318.848 209.453 319.026 208.693 319.381 208.097C319.736 207.5 320.215 207.028 320.819 206.68C321.423 206.332 322.097 206.069 322.843 205.891C323.589 205.714 324.349 205.579 325.123 205.487C326.103 205.373 326.899 205.281 327.509 205.21C328.12 205.131 328.564 205.007 328.841 204.837C329.118 204.666 329.256 204.389 329.256 204.006V203.931C329.256 203.001 328.994 202.28 328.468 201.768C327.95 201.257 327.176 201.001 326.146 201.001C325.073 201.001 324.228 201.239 323.61 201.715C322.999 202.184 322.577 202.706 322.342 203.281L319.349 202.599C319.704 201.605 320.222 200.803 320.904 200.192C321.593 199.574 322.385 199.126 323.28 198.849C324.175 198.565 325.116 198.423 326.103 198.423C326.756 198.423 327.449 198.501 328.18 198.658C328.919 198.807 329.608 199.084 330.247 199.489C330.894 199.893 331.423 200.472 331.835 201.225C332.247 201.971 332.453 202.94 332.453 204.134V215H329.342V212.763H329.214C329.008 213.175 328.699 213.58 328.287 213.977C327.875 214.375 327.346 214.705 326.7 214.968C326.053 215.231 325.279 215.362 324.377 215.362ZM325.07 212.805C325.95 212.805 326.703 212.631 327.328 212.283C327.96 211.935 328.44 211.481 328.766 210.92C329.1 210.352 329.267 209.744 329.267 209.098V206.989C329.154 207.102 328.933 207.209 328.607 207.308C328.287 207.401 327.921 207.482 327.509 207.553C327.097 207.617 326.696 207.678 326.305 207.734C325.915 207.784 325.588 207.827 325.325 207.862C324.707 207.94 324.143 208.072 323.631 208.256C323.127 208.441 322.722 208.707 322.417 209.055C322.119 209.396 321.97 209.851 321.97 210.419C321.97 211.207 322.261 211.804 322.843 212.209C323.426 212.607 324.168 212.805 325.07 212.805ZM330.418 221.296C329.523 221.296 328.777 221.055 328.18 220.572C327.591 220.096 327.268 219.4 327.211 218.484C327.176 217.944 327.264 217.401 327.477 216.854C327.69 216.307 328.049 215.788 328.553 215.298C329.058 214.808 329.725 214.375 330.556 213.999L332.453 215C331.799 215.419 331.234 215.863 330.759 216.332C330.283 216.8 330.045 217.333 330.045 217.93C330.045 218.256 330.127 218.512 330.29 218.697C330.453 218.881 330.734 218.974 331.131 218.974C331.423 218.974 331.682 218.935 331.909 218.857C332.136 218.778 332.321 218.704 332.463 218.633L332.74 220.657C332.492 220.806 332.172 220.948 331.781 221.083C331.398 221.225 330.943 221.296 330.418 221.296ZM344.034 198.636V201.193H335.096V198.636H344.034ZM337.493 194.716H340.678V210.195C340.678 210.813 340.77 211.278 340.955 211.591C341.14 211.896 341.377 212.106 341.669 212.219C341.967 212.326 342.29 212.379 342.638 212.379C342.894 212.379 343.118 212.362 343.309 212.326C343.501 212.29 343.65 212.262 343.757 212.241L344.332 214.872C344.147 214.943 343.885 215.014 343.544 215.085C343.203 215.163 342.777 215.206 342.265 215.213C341.427 215.227 340.646 215.078 339.922 214.766C339.197 214.453 338.611 213.97 338.164 213.317C337.716 212.663 337.493 211.843 337.493 210.856V194.716ZM350.539 209.45L350.517 205.561H351.071L357.591 198.636H361.405L353.969 206.52H353.468L350.539 209.45ZM347.609 215V193.182H350.794V215H347.609ZM357.943 215L352.083 207.223L354.278 204.996L361.853 215H357.943ZM364.008 215V198.636H367.193V215H364.008ZM365.617 196.112C365.063 196.112 364.587 195.927 364.189 195.558C363.799 195.181 363.603 194.734 363.603 194.215C363.603 193.69 363.799 193.242 364.189 192.873C364.587 192.496 365.063 192.308 365.617 192.308C366.171 192.308 366.643 192.496 367.034 192.873C367.431 193.242 367.63 193.69 367.63 194.215C367.63 194.734 367.431 195.181 367.034 195.558C366.643 195.927 366.171 196.112 365.617 196.112ZM378.477 215V212.816L387.341 201.555V201.406H378.765V198.636H391.315V200.959L382.792 212.081V212.23H391.613V215H378.477ZM399.833 215.362C398.796 215.362 397.859 215.17 397.021 214.787C396.183 214.396 395.518 213.832 395.028 213.093C394.545 212.354 394.304 211.449 394.304 210.376C394.304 209.453 394.482 208.693 394.837 208.097C395.192 207.5 395.671 207.028 396.275 206.68C396.879 206.332 397.553 206.069 398.299 205.891C399.045 205.714 399.805 205.579 400.579 205.487C401.559 205.373 402.354 205.281 402.965 205.21C403.576 205.131 404.02 205.007 404.297 204.837C404.574 204.666 404.712 204.389 404.712 204.006V203.931C404.712 203.001 404.45 202.28 403.924 201.768C403.406 201.257 402.631 201.001 401.602 201.001C400.529 201.001 399.684 201.239 399.066 201.715C398.455 202.184 398.033 202.706 397.798 203.281L394.805 202.599C395.16 201.605 395.678 200.803 396.36 200.192C397.049 199.574 397.841 199.126 398.736 198.849C399.631 198.565 400.572 198.423 401.559 198.423C402.212 198.423 402.905 198.501 403.636 198.658C404.375 198.807 405.064 199.084 405.703 199.489C406.349 199.893 406.879 200.472 407.29 201.225C407.702 201.971 407.908 202.94 407.908 204.134V215H404.798V212.763H404.67C404.464 213.175 404.155 213.58 403.743 213.977C403.331 214.375 402.802 214.705 402.156 214.968C401.509 215.231 400.735 215.362 399.833 215.362ZM400.526 212.805C401.406 212.805 402.159 212.631 402.784 212.283C403.416 211.935 403.896 211.481 404.222 210.92C404.556 210.352 404.723 209.744 404.723 209.098V206.989C404.609 207.102 404.389 207.209 404.062 207.308C403.743 207.401 403.377 207.482 402.965 207.553C402.553 207.617 402.152 207.678 401.761 207.734C401.371 207.784 401.044 207.827 400.781 207.862C400.163 207.94 399.599 208.072 399.087 208.256C398.583 208.441 398.178 208.707 397.873 209.055C397.575 209.396 397.425 209.851 397.425 210.419C397.425 211.207 397.717 211.804 398.299 212.209C398.881 212.607 399.624 212.805 400.526 212.805ZM424.113 202.631L421.226 203.143C421.105 202.773 420.914 202.422 420.651 202.088C420.395 201.754 420.047 201.481 419.607 201.268C419.166 201.055 418.616 200.948 417.956 200.948C417.054 200.948 416.301 201.151 415.697 201.555C415.093 201.953 414.791 202.468 414.791 203.1C414.791 203.647 414.994 204.087 415.399 204.421C415.804 204.755 416.457 205.028 417.359 205.241L419.958 205.838C421.464 206.186 422.586 206.722 423.325 207.447C424.063 208.171 424.433 209.112 424.433 210.27C424.433 211.25 424.149 212.124 423.581 212.891C423.019 213.651 422.235 214.247 421.226 214.68C420.225 215.114 419.063 215.33 417.742 215.33C415.91 215.33 414.415 214.94 413.257 214.158C412.1 213.37 411.389 212.251 411.127 210.803L414.206 210.334C414.397 211.136 414.791 211.744 415.388 212.156C415.985 212.56 416.762 212.763 417.721 212.763C418.765 212.763 419.6 212.546 420.225 212.113C420.85 211.673 421.162 211.136 421.162 210.504C421.162 209.993 420.97 209.563 420.587 209.215C420.21 208.867 419.632 208.604 418.85 208.427L416.081 207.82C414.554 207.472 413.424 206.918 412.693 206.158C411.968 205.398 411.606 204.435 411.606 203.271C411.606 202.305 411.876 201.46 412.416 200.735C412.956 200.011 413.701 199.446 414.653 199.041C415.605 198.629 416.695 198.423 417.924 198.423C419.692 198.423 421.084 198.807 422.1 199.574C423.115 200.334 423.786 201.353 424.113 202.631ZM435.274 198.636V201.193H426.335V198.636H435.274ZM428.732 194.716H431.918V210.195C431.918 210.813 432.01 211.278 432.195 211.591C432.379 211.896 432.617 212.106 432.909 212.219C433.207 212.326 433.53 212.379 433.878 212.379C434.134 212.379 434.357 212.362 434.549 212.326C434.741 212.29 434.89 212.262 434.997 212.241L435.572 214.872C435.387 214.943 435.124 215.014 434.784 215.085C434.443 215.163 434.016 215.206 433.505 215.213C432.667 215.227 431.886 215.078 431.161 214.766C430.437 214.453 429.851 213.97 429.404 213.317C428.956 212.663 428.732 211.843 428.732 210.856V194.716ZM445.214 215.33C443.68 215.33 442.341 214.979 441.198 214.276C440.054 213.572 439.167 212.589 438.534 211.325C437.902 210.06 437.586 208.583 437.586 206.893C437.586 205.195 437.902 203.711 438.534 202.44C439.167 201.168 440.054 200.181 441.198 199.478C442.341 198.775 443.68 198.423 445.214 198.423C446.748 198.423 448.087 198.775 449.231 199.478C450.374 200.181 451.262 201.168 451.894 202.44C452.526 203.711 452.842 205.195 452.842 206.893C452.842 208.583 452.526 210.06 451.894 211.325C451.262 212.589 450.374 213.572 449.231 214.276C448.087 214.979 446.748 215.33 445.214 215.33ZM445.225 212.656C446.219 212.656 447.043 212.393 447.696 211.868C448.35 211.342 448.833 210.643 449.145 209.769C449.465 208.896 449.625 207.933 449.625 206.882C449.625 205.838 449.465 204.879 449.145 204.006C448.833 203.125 448.35 202.418 447.696 201.886C447.043 201.353 446.219 201.087 445.225 201.087C444.223 201.087 443.392 201.353 442.732 201.886C442.079 202.418 441.592 203.125 441.272 204.006C440.96 204.879 440.804 205.838 440.804 206.882C440.804 207.933 440.96 208.896 441.272 209.769C441.592 210.643 442.079 211.342 442.732 211.868C443.392 212.393 444.223 212.656 445.225 212.656ZM468.36 202.631L465.473 203.143C465.352 202.773 465.16 202.422 464.897 202.088C464.642 201.754 464.294 201.481 463.853 201.268C463.413 201.055 462.862 200.948 462.202 200.948C461.3 200.948 460.547 201.151 459.943 201.555C459.34 201.953 459.038 202.468 459.038 203.1C459.038 203.647 459.24 204.087 459.645 204.421C460.05 204.755 460.703 205.028 461.605 205.241L464.205 205.838C465.71 206.186 466.833 206.722 467.571 207.447C468.31 208.171 468.679 209.112 468.679 210.27C468.679 211.25 468.395 212.124 467.827 212.891C467.266 213.651 466.481 214.247 465.473 214.68C464.471 215.114 463.31 215.33 461.989 215.33C460.157 215.33 458.661 214.94 457.504 214.158C456.346 213.37 455.636 212.251 455.373 210.803L458.452 210.334C458.644 211.136 459.038 211.744 459.635 212.156C460.231 212.56 461.009 212.763 461.968 212.763C463.012 212.763 463.846 212.546 464.471 212.113C465.096 211.673 465.409 211.136 465.409 210.504C465.409 209.993 465.217 209.563 464.833 209.215C464.457 208.867 463.878 208.604 463.097 208.427L460.327 207.82C458.8 207.472 457.671 206.918 456.939 206.158C456.215 205.398 455.853 204.435 455.853 203.271C455.853 202.305 456.122 201.46 456.662 200.735C457.202 200.011 457.948 199.446 458.899 199.041C459.851 198.629 460.941 198.423 462.17 198.423C463.938 198.423 465.331 198.807 466.346 199.574C467.362 200.334 468.033 201.353 468.36 202.631ZM478.774 215.33C477.24 215.33 475.901 214.979 474.758 214.276C473.615 213.572 472.727 212.589 472.095 211.325C471.463 210.06 471.146 208.583 471.146 206.893C471.146 205.195 471.463 203.711 472.095 202.44C472.727 201.168 473.615 200.181 474.758 199.478C475.901 198.775 477.24 198.423 478.774 198.423C480.308 198.423 481.647 198.775 482.791 199.478C483.934 200.181 484.822 201.168 485.454 202.44C486.086 203.711 486.402 205.195 486.402 206.893C486.402 208.583 486.086 210.06 485.454 211.325C484.822 212.589 483.934 213.572 482.791 214.276C481.647 214.979 480.308 215.33 478.774 215.33ZM478.785 212.656C479.779 212.656 480.603 212.393 481.257 211.868C481.91 211.342 482.393 210.643 482.705 209.769C483.025 208.896 483.185 207.933 483.185 206.882C483.185 205.838 483.025 204.879 482.705 204.006C482.393 203.125 481.91 202.418 481.257 201.886C480.603 201.353 479.779 201.087 478.785 201.087C477.784 201.087 476.953 201.353 476.292 201.886C475.639 202.418 475.152 203.125 474.833 204.006C474.52 204.879 474.364 205.838 474.364 206.882C474.364 207.933 474.52 208.896 474.833 209.769C475.152 210.643 475.639 211.342 476.292 211.868C476.953 212.393 477.784 212.656 478.785 212.656ZM492.707 215L487.892 198.636H491.184L494.391 210.653H494.55L497.768 198.636H501.06L504.256 210.6H504.415L507.601 198.636H510.893L506.088 215H502.839L499.515 203.185H499.27L495.946 215H492.707ZM518.378 215.362C517.341 215.362 516.403 215.17 515.565 214.787C514.727 214.396 514.063 213.832 513.573 213.093C513.09 212.354 512.849 211.449 512.849 210.376C512.849 209.453 513.026 208.693 513.381 208.097C513.736 207.5 514.216 207.028 514.819 206.68C515.423 206.332 516.098 206.069 516.844 205.891C517.589 205.714 518.349 205.579 519.123 205.487C520.103 205.373 520.899 205.281 521.51 205.21C522.121 205.131 522.564 205.007 522.841 204.837C523.118 204.666 523.257 204.389 523.257 204.006V203.931C523.257 203.001 522.994 202.28 522.469 201.768C521.95 201.257 521.176 201.001 520.146 201.001C519.074 201.001 518.228 201.239 517.611 201.715C517 202.184 516.577 202.706 516.343 203.281L513.349 202.599C513.704 201.605 514.223 200.803 514.905 200.192C515.594 199.574 516.385 199.126 517.28 198.849C518.175 198.565 519.116 198.423 520.103 198.423C520.757 198.423 521.449 198.501 522.181 198.658C522.92 198.807 523.608 199.084 524.248 199.489C524.894 199.893 525.423 200.472 525.835 201.225C526.247 201.971 526.453 202.94 526.453 204.134V215H523.342V212.763H523.214C523.008 213.175 522.699 213.58 522.287 213.977C521.875 214.375 521.346 214.705 520.7 214.968C520.054 215.231 519.28 215.362 518.378 215.362ZM519.07 212.805C519.951 212.805 520.704 212.631 521.329 212.283C521.961 211.935 522.44 211.481 522.767 210.92C523.101 210.352 523.268 209.744 523.268 209.098V206.989C523.154 207.102 522.934 207.209 522.607 207.308C522.287 207.401 521.922 207.482 521.51 207.553C521.098 207.617 520.697 207.678 520.306 207.734C519.915 207.784 519.589 207.827 519.326 207.862C518.708 207.94 518.143 208.072 517.632 208.256C517.128 208.441 516.723 208.707 516.417 209.055C516.119 209.396 515.97 209.851 515.97 210.419C515.97 211.207 516.261 211.804 516.844 212.209C517.426 212.607 518.168 212.805 519.07 212.805ZM533.581 205.284V215H530.396V198.636H533.453V201.3H533.656C534.032 200.433 534.621 199.737 535.424 199.212C536.234 198.686 537.253 198.423 538.482 198.423C539.597 198.423 540.573 198.658 541.411 199.126C542.249 199.588 542.899 200.277 543.361 201.193C543.822 202.109 544.053 203.242 544.053 204.592V215H540.868V204.975C540.868 203.789 540.559 202.862 539.941 202.195C539.323 201.52 538.474 201.183 537.395 201.183C536.656 201.183 535.999 201.342 535.424 201.662C534.856 201.982 534.405 202.45 534.071 203.068C533.744 203.679 533.581 204.418 533.581 205.284ZM535.903 196.452L538.396 191.541H541.752L538.45 196.452H535.903ZM550.124 215.202C549.542 215.202 549.041 214.996 548.622 214.585C548.203 214.165 547.993 213.661 547.993 213.072C547.993 212.489 548.203 211.992 548.622 211.58C549.041 211.161 549.542 210.952 550.124 210.952C550.706 210.952 551.207 211.161 551.626 211.58C552.045 211.992 552.255 212.489 552.255 213.072C552.255 213.462 552.155 213.821 551.956 214.148C551.765 214.467 551.509 214.723 551.189 214.915C550.87 215.107 550.515 215.202 550.124 215.202Z" fill="white"/>
<defs>
<linearGradient id="paint0_linear_190_571" x1="0" y1="0" x2="884.384" y2="796.418" gradientUnits="userSpaceOnUse">
<stop stop-color="#E75D77"/>
<stop offset="1" stop-color="#EE9D55"/>
</linearGradient>
</defs>
</svg>
